<?xml version="1.0" encoding="UTF-8"?><!DOCTYPE svg PUBLIC "-//W3C//DTD SVG 1.1//EN" "http://www.w3.org/Graphics/SVG/1.1/DTD/svg11.dtd"><svg xmlns="http://www.w3.org/2000/svg" xmlns:xlink="http://www.w3.org/1999/xlink"><defs>
        <path id="b" d="M522 693.518l4.083 4.482 5.917-7"/>
        <filter x="-30%" y="-28.6%" width="160%" height="185.7%" filterUnits="objectBoundingBox" id="a">
            <feMorphology radius="1" operator="dilate" in="SourceAlpha" result="shadowSpreadOuter1"/>
            <feOffset dy="1" in="shadowSpreadOuter1" result="shadowOffsetOuter1"/>
            <feMorphology radius="1" in="SourceAlpha" result="shadowInner"/>
            <feOffset dy="1" in="shadowInner" result="shadowInner"/>
            <feComposite in="shadowOffsetOuter1" in2="shadowInner" operator="out" result="shadowOffsetOuter1"/>
            <feGaussianBlur stdDeviation=".5" in="shadowOffsetOuter1" result="shadowBlurOuter1"/>
            <feColorMatrix values="0 0 0 0 0 0 0 0 0 0 0 0 0 0 0 0 0 0 0.2 0" in="shadowBlurOuter1"/>
        </filter>
    
        <path id="a" d="M.004.06h26.933v15.872H.004z"/>
    </defs><symbol id="ico-adv-1" viewBox="0 0 44 41">
    <title>
        sewing-machine copy 9
    </title>
    <g fill-rule="evenodd">
        <path d="M23.486 34.871h13.597V21.145c-.218-3.34-1.89-6.391-4.726-8.352-2.909-2.033-6.544-2.687-9.962-1.67l-7.634 2.251c-1.018.29-2.036.436-3.127.436h-.51A9.093 9.093 0 0 1 6.4 12.503c-.873-.509-1.527-1.235-2.182-2.324-.29-.436-.727-.726-1.236-.726-.8 0-1.454.653-1.454 1.452v16.704c0 .798.654 1.452 1.454 1.452.8 0 1.454-.654 1.454-1.452v-1.453a5.056 5.056 0 0 1 5.09-5.084h10.18c1.018 0 2.036.29 2.908.8 2.109 1.234 3.2 3.848 2.545 6.39l-1.672 6.609zm15.051 1.452H21.595l2.11-8.424c.508-1.888-.292-3.849-1.891-4.793a4.665 4.665 0 0 0-2.182-.581H9.452a3.598 3.598 0 0 0-3.635 3.631v1.453a2.915 2.915 0 0 1-2.909 2.905A2.915 2.915 0 0 1 0 27.609V10.905A2.915 2.915 0 0 1 2.908 8c1.018 0 1.964.581 2.545 1.453.51.871 1.018 1.452 1.673 1.815 1.163.726 2.545 1.09 3.999 1.09h.509c.945 0 1.818-.146 2.69-.364l7.635-2.251c3.854-1.162 7.926-.436 11.27 1.888 3.127 2.252 5.09 5.665 5.308 9.441V36.323z"/>
        <path d="M2.908 36.452c-.8 0-1.454.654-1.454 1.453s.655 1.452 1.454 1.452h37.81c.8 0 1.455-.653 1.455-1.452 0-.799-.655-1.453-1.454-1.453H2.909zm37.81 4.358H2.909A2.915 2.915 0 0 1 0 37.905 2.915 2.915 0 0 1 2.908 35h37.81c1.6 0 2.91 1.307 2.91 2.905a2.915 2.915 0 0 1-2.91 2.905z"/>
        <path d="M2.727 33.357c-.436 0-.727-.29-.727-.726v-2.905c0-.436.29-.726.727-.726.436 0 .727.29.727.726v2.905c0 .436-.29.726-.727.726"/>
        <path d="M25.727 10.084c-.436 0-.727-.29-.727-.727v-3.63c0-.437.29-.727.727-.727.436 0 .727.29.727.726v3.631c0 .436-.29.727-.727.727"/>
        <path d="M29.454 30.726c0 .436-.29.726-.727.726-.436 0-.727-.29-.727-.726s.29-.726.727-.726c.436 0 .727.29.727.726"/>
        <path d="M29.454 18.726c0 .436-.29.727-.727.727-.436 0-.727-.291-.727-.727s.29-.726.727-.726c.436 0 .727.29.727.726"/>
        <path d="M32.454 30.726c0 .436-.29.726-.727.726-.436 0-.727-.29-.727-.726s.29-.726.727-.726c.436 0 .727.29.727.726"/>
        <path d="M25.454 4.357h1.454V1.453h-1.454v2.904zm2.182 1.453h-2.909c-.436 0-.727-.29-.727-.726V.726c0-.436.29-.726.727-.726h2.909c.436 0 .727.29.727.726v4.358c0 .435-.291.726-.727.726z"/>
        <path d="M29.544 1.453h-5.817c-.436 0-.727-.291-.727-.727S23.29 0 23.727 0h5.817c.436 0 .727.29.727.726s-.29.727-.727.727"/>
        <path d="M29.544 6.453h-5.817c-.436 0-.727-.291-.727-.727S23.29 5 23.727 5h5.817c.436 0 .727.29.727.726s-.29.727-.727.727"/>
        <path d="M39.908 26.453h-2.18c-.437 0-.728-.291-.728-.727 0-.435.29-.726.727-.726h2.181c.437 0 .728.29.728.726s-.291.727-.728.727"/>
        <path d="M41.181 20.452c-.436 0-.727.291-.727.727v8.715c0 .435.291.726.727.726.437 0 .727-.29.727-.726v-8.715c0-.436-.29-.727-.727-.727zm0 11.62c-1.236 0-2.181-.944-2.181-2.178v-8.715c0-1.235.945-2.179 2.181-2.179 1.236 0 2.182.944 2.182 2.179v8.715c0 1.234-.946 2.178-2.182 2.178z"/>
        <path d="M28.636 16.452c-1.237 0-2.182.945-2.182 2.18 0 1.234.945 2.178 2.182 2.178 1.236 0 2.18-.944 2.18-2.179 0-1.234-.944-2.179-2.18-2.179zm0 5.81A3.598 3.598 0 0 1 25 18.632C25 16.597 26.6 15 28.636 15a3.598 3.598 0 0 1 3.635 3.631c0 2.034-1.6 3.631-3.635 3.631z"/>
        <path d="M14.09 16.452H9.727c-.436 0-.727-.29-.727-.726S9.29 15 9.727 15h4.363c.436 0 .727.29.727.726s-.29.726-.727.726"/>
        <path d="M16.998 19.453h-7.27c-.437 0-.728-.291-.728-.727S9.29 18 9.727 18h7.271c.437 0 .727.29.727.726s-.29.727-.727.727"/>
        <path d="M40 23.453h2.909V22H40z"/>
        <path d="M40 26.453h2.909V25H40z"/>
        <path d="M40 29.452h2.909V28H40z"/>
    </g>
</symbol><symbol id="ico-adv-2" viewBox="0 0 40 35">
    <title>
        wallet copy
    </title>
    <g fill-rule="evenodd">
        <path d="M37.988 15.906L22.01 31.776a4.843 4.843 0 0 1-3.432 1.41c-1.297 0-2.516-.5-3.433-1.41a.834.834 0 0 0-.116-.096L3.099 19.83A4.8 4.8 0 0 1 3.085 13L14.167 1.994c.22-.22.516-.34.832-.34.316 0 .611.12.832.34l3.348 3.326L7.265 17.153l-.002.002c-.2.199-.467.308-.75.308s-.55-.11-.75-.308a1.052 1.052 0 0 1 0-1.493.833.833 0 0 0 .085-.1L13.23 8.24a.822.822 0 0 0 0-1.168.838.838 0 0 0-1.178 0l-7.469 7.405a.836.836 0 0 0-.101.123 2.697 2.697 0 0 0 .1 3.722 2.72 2.72 0 0 0 1.93.794 2.72 2.72 0 0 0 1.926-.79l.003-.003L24.432 2.44c.222-.22.518-.34.833-.34.316 0 .612.12.833.34l2.678 2.66-1.167 1.158-1.754-1.742a.837.837 0 0 0-1.18 0l-2.564 2.547a.822.822 0 0 0 .001 1.169.834.834 0 0 0 1.179-.001l1.974-1.962 1.167 1.159-2.426 2.41a2.697 2.697 0 0 0 0 3.828l2.679 2.66c.514.511 1.199.792 1.929.792a2.72 2.72 0 0 0 1.93-.791l2.423-2.408 1.166 1.159-1.976 1.963a.822.822 0 0 0 0 1.169.834.834 0 0 0 1.18-.001l2.564-2.547a.821.821 0 0 0 0-1.168l-1.756-1.744 1.166-1.159 2.676 2.658c.46.457.46 1.2 0 1.657zM32.043 5.683l2.678 2.661a1.052 1.052 0 0 1 0 1.493l-2.341 2.326-.002.002-.002.002-3.012 2.992a1.056 1.056 0 0 1-.75.306c-.285 0-.55-.108-.75-.306l-2.679-2.66a1.052 1.052 0 0 1 0-1.494l5.356-5.32.002-.002c.2-.197.465-.306.75-.306s.55.109.75.306zm7.124 7.398l-2.77-2.751a2.698 2.698 0 0 0-.496-3.153l-2.679-2.661a2.718 2.718 0 0 0-1.929-.792c-.442 0-.866.104-1.247.298l-2.769-2.75a2.835 2.835 0 0 0-2.011-.825c-.762 0-1.477.293-2.012.825l-2.897 2.877L17.01.825A2.835 2.835 0 0 0 14.999 0c-.762 0-1.476.293-2.012.825L1.905 11.833a6.446 6.446 0 0 0 0 9.15l12.051 11.971a.828.828 0 0 0 .126.103 6.505 6.505 0 0 0 4.496 1.782c1.742 0 3.38-.673 4.611-1.895l15.978-15.87a2.813 2.813 0 0 0 0-3.993z"/>
        <path d="M27.555 11.551a1.873 1.873 0 0 0 0 2.661c.74.735 1.939.735 2.679 0 .74-.735.74-1.926 0-2.66a1.903 1.903 0 0 0-2.68 0"/>
        <path d="M19.808 10.243l-2.564 2.547a.821.821 0 0 0 0 1.168.834.834 0 0 0 1.18 0l2.563-2.548a.822.822 0 0 0 0-1.168.838.838 0 0 0-1.18 0"/>
        <path d="M14.808 15.243l-2.564 2.547a.822.822 0 0 0 0 1.169.834.834 0 0 0 1.179-.001l2.565-2.548a.821.821 0 0 0-.002-1.168.838.838 0 0 0-1.178 0"/>
        <path d="M29.808 20.242l-2.564 2.547a.822.822 0 0 0 0 1.17.835.835 0 0 0 1.179-.002l2.564-2.547a.822.822 0 0 0 0-1.168.838.838 0 0 0-1.179 0"/>
        <path d="M24.808 25.242l-2.564 2.547a.822.822 0 0 0 0 1.17.834.834 0 0 0 1.179-.002l2.564-2.547a.821.821 0 0 0 0-1.168.838.838 0 0 0-1.18 0"/>
        <path d="M14.833 7.034c.214 0 .427-.08.59-.242l.384-.381a.822.822 0 0 0 0-1.17.838.838 0 0 0-1.179.001l-.384.382a.822.822 0 0 0 0 1.168.835.835 0 0 0 .59.242"/>
    </g>
</symbol><symbol id="ico-adv-3" viewBox="0 0 53 39">
    <title>
        handshake (1) copy
    </title>
    <g fill-rule="evenodd">
        <path d="M46.922 15.263l-9.064-9.004 3.935-3.91 9.064 9.005-3.935 3.909zm-4.756 2.657a3.928 3.928 0 0 0-1.113 2.092 11.48 11.48 0 0 1-3.223 6.127l-.649.645-5.344-5.31a4.336 4.336 0 0 0 1.996-.304.837.837 0 0 0 .462-1.094.847.847 0 0 0-1.102-.459c-2.174.884-4.78-1.552-5.071-1.832a.94.94 0 0 0-.015-.014l-.03-.03-.026-.026-.712-.708.806-.8a.835.835 0 0 0 0-1.188.849.849 0 0 0-1.194 0l-1.402 1.393-.002.002-.001.001-3.224 3.202a1.709 1.709 0 0 1-2.402 0 1.67 1.67 0 0 1-.497-1.193c0-.45.176-.874.497-1.193l5.564-5.527a5.603 5.603 0 0 1 3.958-1.629 5.67 5.67 0 0 1 2.314.496c1.637.738 3.582.394 4.84-.856l1.176-1.168 6.915 6.87-2.52 2.503zm-5.321 12.52a1.146 1.146 0 0 1-.813.335c-.307 0-.596-.12-.814-.335l-8.195-8.14a.849.849 0 0 0-1.195 0 .835.835 0 0 0 0 1.187l8.828 8.769c.217.215.337.502.337.808 0 .305-.12.593-.337.808-.449.446-1.179.446-1.627 0l-1.49-1.48-.025-.025-.007-.007-6.847-6.8a.849.849 0 0 0-1.195 0 .835.835 0 0 0 0 1.186l6.869 6.823c.21.214.325.497.325.797 0 .305-.12.592-.337.808a1.157 1.157 0 0 1-1.626 0l-7.447-7.399a.849.849 0 0 0-1.195 0 .835.835 0 0 0 0 1.187l5.52 5.484.005.005c.217.215.336.502.336.807 0 .305-.12.592-.338.808a1.145 1.145 0 0 1-1.03.314 3.005 3.005 0 0 0-.856-2.583 3.03 3.03 0 0 0-2.15-.884l-.068.001a3 3 0 0 0-.888-2.201 3.031 3.031 0 0 0-2.301-.881 3.003 3.003 0 0 0-.886-2.286 3.054 3.054 0 0 0-2.835-.805l-.606-.602a11.482 11.482 0 0 1-3.209-6.05 4.23 4.23 0 0 0-1.186-2.228l-1.49-1.48 8.473-8.416 2.112 2.097a4.323 4.323 0 0 0 3.048 1.238c.507 0 1.02-.086 1.514-.265.239-.086.487-.148.738-.188l-5.231 5.197a3.332 3.332 0 0 0-.993 2.38c0 .899.353 1.744.993 2.38.66.656 1.528.984 2.395.984.868 0 1.736-.328 2.396-.984l2.628-2.61.71.707h.001l.03.03.028.028h.001l.025.024 9.905 9.84c.218.216.337.503.337.808 0 .306-.12.593-.337.809zm-14.35 6.442a1.347 1.347 0 0 1-.954.394c-.361 0-.7-.14-.956-.394a1.337 1.337 0 0 1 0-1.897c.264-.262.61-.393.956-.393.345 0 .691.13.955.393a1.337 1.337 0 0 1 0 1.897zm-4.06-2.691c-.36 0-.7-.14-.955-.393a1.337 1.337 0 0 1 0-1.898c.263-.262.61-.393.955-.393.346 0 .692.131.955.393a1.337 1.337 0 0 1 0 1.898 1.345 1.345 0 0 1-.955.393zm-4.142-3.56a1.33 1.33 0 0 1-.396-.948c0-.359.14-.696.396-.95.263-.261.61-.392.955-.392.346 0 .692.131.955.393a1.338 1.338 0 0 1 0 1.898 1.36 1.36 0 0 1-1.91 0zM2.04 12.185L12.264 2.026l3.935 3.91L5.974 16.091 2.04 12.184zm50.61-1.423L42.39.569a.849.849 0 0 0-1.195 0l-5.13 5.096a.836.836 0 0 0 0 1.187l.513.508-1.176 1.168c-.764.758-1.948.965-2.948.514a7.382 7.382 0 0 0-3.012-.645 7.306 7.306 0 0 0-3.494.886 5.724 5.724 0 0 0-3.307.175c-.997.36-2.066.137-2.79-.582L17.74 6.778l.251-.25a.836.836 0 0 0 0-1.186L12.861.246a.849.849 0 0 0-1.194 0L.247 11.59a.835.835 0 0 0 0 1.187l5.13 5.096a.848.848 0 0 0 1.195 0l.306-.304 1.489 1.479c.376.373.625.84.72 1.348a13.151 13.151 0 0 0 3.675 6.93l.28.279a2.988 2.988 0 0 0-.834 2.077c0 .807.316 1.566.89 2.136a3.04 3.04 0 0 0 2.302.88 3.03 3.03 0 0 0 3.035 3.172l.068-.003a3.001 3.001 0 0 0 .888 2.202 3.03 3.03 0 0 0 2.15.885 3.031 3.031 0 0 0 2.288-1.033c.3.103.616.159.935.159.76 0 1.474-.294 2.009-.828a2.81 2.81 0 0 0 .642-.978l.086.086a2.84 2.84 0 0 0 2.008.825 2.84 2.84 0 0 0 2.664-1.839 2.848 2.848 0 0 0 1.67.538c.727 0 1.454-.275 2.008-.825a2.794 2.794 0 0 0 .832-1.996c0-.227-.028-.45-.08-.667a2.823 2.823 0 0 0 1.437-.77 2.793 2.793 0 0 0 .832-1.995c0-.593-.184-1.159-.524-1.632l.677-.674a13.145 13.145 0 0 0 3.691-7.017c.081-.447.304-.862.645-1.201l2.521-2.504.443.44a.845.845 0 0 0 1.195 0l5.13-5.096a.837.837 0 0 0 0-1.186z"/>
        <path d="M47.845 12c.466 0 .845.376.845.84 0 .463-.379.838-.845.838A.842.842 0 0 1 47 12.84c0-.463.378-.839.845-.839"/>
        <path d="M5.845 12c.466 0 .845.376.845.84 0 .463-.379.838-.845.838A.842.842 0 0 1 5 12.84c0-.463.378-.839.845-.839"/>
    </g>
</symbol><symbol id="ico-adv-4" viewBox="0 0 38 42">
    <title>
        coat copy 2
    </title>
    <g fill-rule="evenodd">
        <path d="M23.318 4.155l-3.845 10.478-1.068 3.171 5.98-6.273-1.281-3.033c-.071-.207-.071-.483.071-.62.143-.207.356-.276.57-.276h2.136l-2.563-3.447zM16.697 21.32c-.143 0-.214 0-.356-.07-.285-.137-.428-.482-.285-.826l2.136-6.205L22.463 2.5c.071-.206.285-.413.57-.482s.498.069.712.276l4.271 5.515c.143.206.214.482.072.689-.214.276-.428.414-.712.414h-2.492l1.068 2.481c.071.276.071.552-.143.69l-8.543 8.961c-.213.207-.356.276-.57.276z"/>
        <path d="M17.424 39.801h1.424c3.488 0 7.048-.413 10.465-1.171l-4.058-13.098c0-.07-.071-.207 0-.276l1.424-11.03c.071-.344.356-.551.64-.62.357 0 .642.207.713.551l3.63 14.063c.072.345.428.552.784.552l2.776-.345c.214 0 .356-.138.499-.276.142-.138.142-.344.07-.551L30.596 9.332c-.641-2.55-2.706-4.55-5.269-5.308l-.498-.138 2.99 3.86c.143.207.214.483.071.69 0 .276-.213.413-.498.413h-2.492l1.068 2.482c.071.276.071.552-.142.69l-8.401 8.823v18.957zm1.424 1.448l-2.136-.069c-.356 0-.712-.345-.712-.69V20.569c0-.206.071-.344.214-.482l8.258-8.617-1.281-3.033c-.072-.207-.072-.483.07-.62.143-.207.357-.276.57-.276h2.136L22.55 3.128c-.214-.207-.214-.552 0-.827.213-.276.498-.345.783-.276l2.563.758c3.061.896 5.41 3.31 6.194 6.273l5.197 18.268c.142.62.071 1.172-.285 1.724-.356.482-.925.827-1.495.896l-2.848.275c-1.068.138-2.135-.551-2.349-1.585l-2.705-10.478-.926 7.169 4.272 13.65c.07.206 0 .344-.072.55-.07.139-.284.276-.427.345h-.356a47.38 47.38 0 0 1-11.248 1.38z"/>
        <path d="M12.708 11.444l4.272 4.55.57-1.655-3.774-10.27-2.634 3.377h2.136c.214 0 .427.138.57.276.142.137.142.413.07.62l-1.21 3.102zm4.486 6.618c-.214 0-.427-.069-.499-.207l-5.34-5.79c-.213-.207-.213-.483-.142-.69l1.068-2.482H9.718c-.284 0-.498-.137-.64-.413-.143-.276-.072-.483.07-.69l4.272-5.514c.143-.207.428-.276.712-.276.285.069.499.207.57.483l4.272 11.719a.428.428 0 0 1 0 .413l-1.068 3.033a.847.847 0 0 1-.499.483c-.07-.07-.142-.07-.213-.07z"/>
        <path d="M7.971 38.699c2.492.551 5.055.965 7.618 1.102V20.637c0-.069 0-.137.071-.206l.997-2.827-5.126-5.446c-.214-.206-.214-.482-.142-.689l1.068-2.482H9.894c-.285 0-.499-.138-.641-.413-.143-.276-.071-.483.071-.69l2.99-3.86-.498.069C9.253 4.85 7.259 6.85 6.547 9.4L1.35 27.738c-.07.207 0 .413.071.551.072.138.285.276.499.276l2.848.345c.356.069.712-.207.783-.552l3.63-14.063c.072-.344.428-.551.713-.551.356 0 .64.276.64.62l1.424 11.03v.276L7.971 38.699zm8.33 2.55c-3.133-.138-6.194-.551-9.113-1.31l-.285-.069c-.213-.069-.356-.137-.427-.344-.142-.138-.142-.345-.142-.483l4.271-13.649-.925-7.238-2.705 10.547c-.214 1.034-1.282 1.723-2.35 1.585l-2.776-.344c-.641-.07-1.14-.414-1.495-.896-.356-.483-.428-1.103-.285-1.655L5.266 9.056C6.049 6.092 8.47 3.68 11.46 2.783l2.492-.758c.284-.07.64 0 .783.276a.854.854 0 0 1 0 .827L11.317 7.54h2.136c.214 0 .427.138.57.275.142.138.142.414.071.62l-1.281 3.034 5.054 5.446c.143.207.214.414.143.69l-.997 3.17V40.56a.617.617 0 0 1-.214.482.656.656 0 0 1-.498.207z"/>
        <path d="M14.523 2.275l3.417 9.444 3.418-9.444-.428-.414c-.427-.482-1.993-.482-2.99-.482-.996 0-2.563 0-3.061.482l-.356.414zm3.417 12.201a.68.68 0 0 1-.64-.482l-4.272-11.72c-.071-.275 0-.55.142-.689l.712-.689C14.737.07 16.232 0 17.94 0c1.424 0 3.133 0 4.058.896l.712.69c.214.206.285.482.143.689L18.58 13.994a.68.68 0 0 1-.64.482z"/>
        <path d="M18.848 25.379h-2.136c-.427 0-.712-.276-.712-.69 0-.413.285-.689.712-.689h2.136c.427 0 .712.276.712.69 0 .413-.285.689-.712.689"/>
        <path d="M18.712 25.757c-.427 0-.712-.275-.712-.689V23.69c0-.413.285-.689.712-.689s.712.276.712.69v1.378c0 .414-.285.69-.712.69"/>
        <path d="M18.848 30.379h-2.136c-.427 0-.712-.276-.712-.69 0-.413.285-.689.712-.689h2.136c.427 0 .712.276.712.69 0 .413-.285.689-.712.689"/>
        <path d="M18.712 31.757c-.427 0-.712-.275-.712-.689V29.69c0-.413.285-.689.712-.689s.712.276.712.69v1.378c0 .414-.285.69-.712.69"/>
    </g>
</symbol><symbol id="ico-adv-5" viewBox="0 0 39 32">
    <title>
        delivery-truck copy
    </title>
    <g fill-rule="evenodd">
        <path d="M37.375 27.179h-2.519c-.377-1.822-2.019-3.198-3.98-3.198H24.375v-12.79H32.5c.448 0 .813.359.813.8v.8h-5.688a.806.806 0 0 0-.812.798v7.195c0 .441.364.799.812.799h9.75v5.596zm-6.5 3.197c-1.344 0-2.437-1.076-2.437-2.398 0-1.32 1.09-2.395 2.431-2.398h.008c1.343.001 2.434 1.075 2.436 2.396v.005c-.002 1.32-1.095 2.395-2.437 2.395zm-6.5-4.796h3.253a3.948 3.948 0 0 0-.733 1.599h-2.52V25.58zm-16.25 4.796c-1.344 0-2.438-1.076-2.438-2.398s1.094-2.398 2.438-2.398 2.437 1.076 2.437 2.398-1.093 2.398-2.437 2.398zm-6.5-15.987h3.25a.806.806 0 0 0 .812-.8c0-.441-.364-.799-.812-.799h-3.25v-1.599h9.75a.806.806 0 0 0 .812-.799c0-.441-.364-.8-.812-.8h-9.75V6.396H22.75V23.98h-5.526a.806.806 0 0 0-.812.8c0 .441.363.799.812.799h5.526v1.599H12.105c-.377-1.822-2.018-3.198-3.98-3.198-1.962 0-3.604 1.376-3.98 3.198h-2.52v-12.79zm5.688-12.46l1.05 1.034.001.001 1.862 1.832H4.4L7.313 1.93zM19.5 3.199v1.598h-6.976L10.9 3.198h8.6zm8.938 16.786h1.625V14.39h-1.625v5.595zm8.937-2.398v2.398h-5.687V14.39h2.437c1.792 0 3.25 1.434 3.25 3.197zm-2.437-4.728v-.867c0-1.323-1.094-2.398-2.438-2.398h-8.125V5.596c0-.442-.364-.8-.813-.8h-2.437V2.398c0-.441-.364-.799-.813-.799H9.275L7.887.234a.822.822 0 0 0-1.149 0L2.101 4.796H.813a.806.806 0 0 0-.813.8v22.382c0 .442.364.8.813.8h3.331c.122.59.377 1.133.733 1.598H3.25a.806.806 0 0 0-.813.8c0 .441.364.799.813.799H8.13c1.959-.003 3.597-1.377 3.974-3.197h14.79c.122.59.377 1.133.733 1.598H26a.806.806 0 0 0-.813.8c0 .441.364.799.813.799h4.88c1.96-.003 3.598-1.377 3.975-3.197h3.331a.806.806 0 0 0 .813-.8V17.586c0-2.372-1.76-4.346-4.062-4.728z"/>
        <path d="M14.812 24.599h.508a.806.806 0 0 0 .812-.8c0-.441-.364-.799-.812-.799h-.508a.806.806 0 0 0-.812.8c0 .44.364.799.812.799"/>
        <path d="M14.812 9.599h.508a.806.806 0 0 0 .812-.8c0-.441-.364-.799-.812-.799h-.508a.806.806 0 0 0-.812.8c0 .44.364.799.812.799"/>
    </g>
</symbol><symbol id="ico-attention" viewBox="0 0 13 12">
    <title>
        attention
    </title>
    <path d="M12.815 10.023L7.6.688a1.255 1.255 0 0 0-2.21 0L.174 10.023c-.23.413-.23.906 0 1.318.23.413.643.659 1.104.659h10.434c.46 0 .874-.246 1.104-.659.23-.412.23-.905 0-1.318zm-6.32.458c-.459 0-.831-.384-.831-.858 0-.473.372-.857.83-.857.458 0 .83.384.83.857 0 .474-.372.858-.83.858zm.835-3.667c0 .477-.375.864-.836.864-.46 0-.836-.387-.836-.864V2.851c0-.226.177-.41.396-.41h.88c.219 0 .396.184.396.41v3.963z" fill-rule="evenodd"/>
</symbol><symbol id="ico-cart" viewBox="0 0 32 31">
    <title>
        cart
    </title>
    <path d="M31.647 8.822c.282.35.388.77.317 1.26l-1.34 7.627c-.048.397-.23.723-.547.98a1.666 1.666 0 0 1-1.077.385H9.452l-.389 2.17h18.632c.447 0 .835.157 1.164.472.33.315.494.705.494 1.172 0 .466-.165.857-.494 1.172a1.63 1.63 0 0 1-1.164.472H7.087c-.494 0-.917-.198-1.27-.594a1.69 1.69 0 0 1-.388-1.365l.882-4.759-1.34-13.366-3.812-1.19c-.447-.14-.77-.407-.97-.804a1.726 1.726 0 0 1-.124-1.26C.206.752.483.432.895.233c.411-.198.829-.239 1.252-.122l4.87 1.54c.306.093.558.268.758.524.2.257.324.548.37.875l.283 2.66 22.09 2.448c.494.07.87.292 1.129.665zM9.593 25.442a2.46 2.46 0 0 1 1.8.735c.493.49.74 1.084.74 1.784s-.247 1.3-.74 1.802a2.43 2.43 0 0 1-1.8.753c-.706 0-1.306-.251-1.8-.753a2.476 2.476 0 0 1-.74-1.802c0-.7.246-1.294.74-1.784a2.46 2.46 0 0 1 1.8-.735zm15.067 0c.706 0 1.306.245 1.8.735a2.42 2.42 0 0 1 .74 1.784c0 .7-.246 1.3-.74 1.802a2.432 2.432 0 0 1-1.8.753c-.706 0-1.306-.251-1.8-.753a2.476 2.476 0 0 1-.74-1.802c0-.7.246-1.294.74-1.784a2.46 2.46 0 0 1 1.8-.735z" fill-rule="evenodd"/>
</symbol><symbol id="ico-check" viewBox="0 0 14 12">
    <title>
        Path 2 Copy
    </title>
    
    <g transform="translate(-520 -690)" fill-rule="evenodd">
        <use filter="url(#a)" xlink:href="#b"/>
        <use stroke-width="2" xlink:href="#b"/>
    </g>
</symbol><symbol id="ico-close" viewBox="0 0 11 11">
    <title>
        Group 3
    </title>
    <g fill-rule="evenodd">
        <path d="M9.5 0l1.414 1.414-9.5 9.5L0 9.5z"/>
        <path d="M1.415 0L0 1.414l9.5 9.5L10.915 9.5z"/>
    </g>
</symbol><symbol id="ico-coat" viewBox="0 0 38 42">
    <title>
        coat
    </title>
    <g fill-rule="evenodd">
        <path d="M23.318 4.155l-3.845 10.478-1.068 3.171 5.98-6.273-1.281-3.033c-.071-.207-.071-.483.071-.62.143-.207.356-.276.57-.276h2.136l-2.563-3.447zM16.697 21.32c-.143 0-.214 0-.356-.07-.285-.137-.428-.482-.285-.826l2.136-6.205L22.463 2.5c.071-.206.285-.413.57-.482s.498.069.712.276l4.271 5.515c.143.206.214.482.072.689-.214.276-.428.414-.712.414h-2.492l1.068 2.481c.071.276.071.552-.143.69l-8.543 8.961c-.213.207-.356.276-.57.276z"/>
        <path d="M17.424 39.801h1.424c3.488 0 7.048-.413 10.465-1.171l-4.058-13.098c0-.07-.071-.207 0-.276l1.424-11.03c.071-.344.356-.551.64-.62.357 0 .642.207.713.551l3.63 14.063c.072.345.428.552.784.552l2.776-.345c.214 0 .356-.138.499-.276.142-.138.142-.344.07-.551L30.596 9.332c-.641-2.55-2.706-4.55-5.269-5.308l-.498-.138 2.99 3.86c.143.207.214.483.071.69 0 .276-.213.413-.498.413h-2.492l1.068 2.482c.071.276.071.552-.142.69l-8.401 8.823v18.957zm1.424 1.448l-2.136-.069c-.356 0-.712-.345-.712-.69V20.569c0-.206.071-.344.214-.482l8.258-8.617-1.281-3.033c-.072-.207-.072-.483.07-.62.143-.207.357-.276.57-.276h2.136L22.55 3.128c-.214-.207-.214-.552 0-.827.213-.276.498-.345.783-.276l2.563.758c3.061.896 5.41 3.31 6.194 6.273l5.197 18.268c.142.62.071 1.172-.285 1.724-.356.482-.925.827-1.495.896l-2.848.275c-1.068.138-2.135-.551-2.349-1.585l-2.705-10.478-.926 7.169 4.272 13.65c.07.206 0 .344-.072.55-.07.139-.284.276-.427.345h-.356a47.38 47.38 0 0 1-11.248 1.38z"/>
        <path d="M12.708 11.444l4.272 4.55.57-1.655-3.774-10.27-2.634 3.377h2.136c.214 0 .427.138.57.276.142.137.142.413.07.62l-1.21 3.102zm4.486 6.618c-.214 0-.427-.069-.499-.207l-5.34-5.79c-.213-.207-.213-.483-.142-.69l1.068-2.482H9.718c-.284 0-.498-.137-.64-.413-.143-.276-.072-.483.07-.69l4.272-5.514c.143-.207.428-.276.712-.276.285.069.499.207.57.483l4.272 11.719a.428.428 0 0 1 0 .413l-1.068 3.033a.847.847 0 0 1-.499.483c-.07-.07-.142-.07-.213-.07z"/>
        <path d="M7.971 38.699c2.492.551 5.055.965 7.618 1.102V20.637c0-.069 0-.137.071-.206l.997-2.827-5.126-5.446c-.214-.206-.214-.482-.142-.689l1.068-2.482H9.894c-.285 0-.499-.138-.641-.413-.143-.276-.071-.483.071-.69l2.99-3.86-.498.069C9.253 4.85 7.259 6.85 6.547 9.4L1.35 27.738c-.07.207 0 .413.071.551.072.138.285.276.499.276l2.848.345c.356.069.712-.207.783-.552l3.63-14.063c.072-.344.428-.551.713-.551.356 0 .64.276.64.62l1.424 11.03v.276L7.971 38.699zm8.33 2.55c-3.133-.138-6.194-.551-9.113-1.31l-.285-.069c-.213-.069-.356-.137-.427-.344-.142-.138-.142-.345-.142-.483l4.271-13.649-.925-7.238-2.705 10.547c-.214 1.034-1.282 1.723-2.35 1.585l-2.776-.344c-.641-.07-1.14-.414-1.495-.896-.356-.483-.428-1.103-.285-1.655L5.266 9.056C6.049 6.092 8.47 3.68 11.46 2.783l2.492-.758c.284-.07.64 0 .783.276a.854.854 0 0 1 0 .827L11.317 7.54h2.136c.214 0 .427.138.57.275.142.138.142.414.071.62l-1.281 3.034 5.054 5.446c.143.207.214.414.143.69l-.997 3.17V40.56a.617.617 0 0 1-.214.482.656.656 0 0 1-.498.207z"/>
        <path d="M14.523 2.275l3.417 9.444 3.418-9.444-.428-.414c-.427-.482-1.993-.482-2.99-.482-.996 0-2.563 0-3.061.482l-.356.414zm3.417 12.201a.68.68 0 0 1-.64-.482l-4.272-11.72c-.071-.275 0-.55.142-.689l.712-.689C14.737.07 16.232 0 17.94 0c1.424 0 3.133 0 4.058.896l.712.69c.214.206.285.482.143.689L18.58 13.994a.68.68 0 0 1-.64.482z"/>
        <path d="M18.848 25.379h-2.136c-.427 0-.712-.276-.712-.69 0-.413.285-.689.712-.689h2.136c.427 0 .712.276.712.69 0 .413-.285.689-.712.689"/>
        <path d="M18.712 25.757c-.427 0-.712-.275-.712-.689V23.69c0-.413.285-.689.712-.689s.712.276.712.69v1.378c0 .414-.285.69-.712.69"/>
        <path d="M18.848 30.379h-2.136c-.427 0-.712-.276-.712-.69 0-.413.285-.689.712-.689h2.136c.427 0 .712.276.712.69 0 .413-.285.689-.712.689"/>
        <path d="M18.712 31.757c-.427 0-.712-.275-.712-.689V29.69c0-.413.285-.689.712-.689s.712.276.712.69v1.378c0 .414-.285.69-.712.69"/>
    </g>
</symbol><symbol id="ico-commerce" viewBox="0 0 16 16">
    <title>
        tag
    </title>
    <g fill-rule="evenodd">
        <path d="M11.933 2.203c-1.01 0-1.835.829-1.835 1.842 0 1.013.826 1.842 1.835 1.842 1.01 0 1.835-.83 1.835-1.842a1.844 1.844 0 0 0-1.835-1.842zm0 2.947a1.106 1.106 0 0 1 0-2.21c.606 0 1.101.497 1.101 1.105s-.495 1.105-1.101 1.105z"/>
        <path d="M14.135.012H9.18c-.495 0-.954.184-1.284.534L.536 7.894a1.839 1.839 0 0 0 0 2.597l4.919 4.917c.349.35.807.535 1.303.535.495 0 .954-.185 1.303-.535l7.359-7.385a1.76 1.76 0 0 0 .55-1.27v-4.9A1.844 1.844 0 0 0 14.135.012zm1.101 6.74c0 .277-.11.553-.33.737l-7.377 7.404a1.08 1.08 0 0 1-.771.313 1.08 1.08 0 0 1-.771-.313L1.051 9.975c-.422-.423-.422-1.123 0-1.565L8.41 1.06a1.08 1.08 0 0 1 .77-.313h4.955c.606 0 1.101.498 1.101 1.105v4.9z"/>
    </g>
</symbol><symbol id="ico-delete" viewBox="0 0 12 12">
    <title>
        Group
    </title>
    <g stroke-width="2" fill-rule="evenodd">
        <path d="M10.996.996l-10 10"/>
        <path d="M1.004.996l10 10"/>
    </g>
</symbol><symbol id="ico-delivery-truck" viewBox="0 0 39 32">
    <title>
        delivery-truck
    </title>
    <g fill-rule="evenodd">
        <path d="M37.375 27.179h-2.519c-.377-1.822-2.019-3.198-3.98-3.198H24.375v-12.79H32.5c.448 0 .813.359.813.8v.8h-5.688a.806.806 0 0 0-.812.798v7.195c0 .441.364.799.812.799h9.75v5.596zm-6.5 3.197c-1.344 0-2.437-1.076-2.437-2.398 0-1.32 1.09-2.395 2.431-2.398h.008c1.343.001 2.434 1.075 2.436 2.396v.005c-.002 1.32-1.095 2.395-2.437 2.395zm-6.5-4.796h3.253a3.948 3.948 0 0 0-.733 1.599h-2.52V25.58zm-16.25 4.796c-1.344 0-2.438-1.076-2.438-2.398s1.094-2.398 2.438-2.398 2.437 1.076 2.437 2.398-1.093 2.398-2.437 2.398zm-6.5-15.987h3.25a.806.806 0 0 0 .812-.8c0-.441-.364-.799-.812-.799h-3.25v-1.599h9.75a.806.806 0 0 0 .812-.799c0-.441-.364-.8-.812-.8h-9.75V6.396H22.75V23.98h-5.526a.806.806 0 0 0-.812.8c0 .441.363.799.812.799h5.526v1.599H12.105c-.377-1.822-2.018-3.198-3.98-3.198-1.962 0-3.604 1.376-3.98 3.198h-2.52v-12.79zm5.688-12.46l1.05 1.034.001.001 1.862 1.832H4.4L7.313 1.93zM19.5 3.199v1.598h-6.976L10.9 3.198h8.6zm8.938 16.786h1.625V14.39h-1.625v5.595zm8.937-2.398v2.398h-5.687V14.39h2.437c1.792 0 3.25 1.434 3.25 3.197zm-2.437-4.728v-.867c0-1.323-1.094-2.398-2.438-2.398h-8.125V5.596c0-.442-.364-.8-.813-.8h-2.437V2.398c0-.441-.364-.799-.813-.799H9.275L7.887.234a.822.822 0 0 0-1.149 0L2.101 4.796H.813a.806.806 0 0 0-.813.8v22.382c0 .442.364.8.813.8h3.331c.122.59.377 1.133.733 1.598H3.25a.806.806 0 0 0-.813.8c0 .441.364.799.813.799H8.13c1.959-.003 3.597-1.377 3.974-3.197h14.79c.122.59.377 1.133.733 1.598H26a.806.806 0 0 0-.813.8c0 .441.364.799.813.799h4.88c1.96-.003 3.598-1.377 3.975-3.197h3.331a.806.806 0 0 0 .813-.8V17.586c0-2.372-1.76-4.346-4.062-4.728z"/>
        <path d="M14.812 24.599h.508a.806.806 0 0 0 .812-.8c0-.441-.364-.799-.812-.799h-.508a.806.806 0 0 0-.812.8c0 .44.364.799.812.799"/>
        <path d="M14.812 9.599h.508a.806.806 0 0 0 .812-.8c0-.441-.364-.799-.812-.799h-.508a.806.806 0 0 0-.812.8c0 .44.364.799.812.799"/>
    </g>
</symbol><symbol id="ico-email" viewBox="0 0 49 35">
    <title>
        email@2x
    </title>
    <g fill-rule="evenodd">
        <path d="M44.49 0c2.338 0 4.13 1.781 4.13 3.813v1.272l-5.402 3.813-19.067 13.029L5.402 8.897v26.059h-1.27C1.791 34.956 0 33.175 0 31.143V3.813C0 1.783 1.793.001 4.131 0l20.02 14.936L44.49 0z" fill-rule="nonzero"/>
        <path d="M48.62 5.085v26.058c-.092 2.737-1.316 3.765-5.402 3.813V8.898l5.403-3.813z" fill-rule="nonzero"/>
        <path d="M3.813 0h40.765v5.461H3.813z"/>
        <path d="M4.767 29.554h38.451v5.402H4.767z"/>
    </g>
</symbol><symbol id="ico-eye" viewBox="0 0 27 16">
    <title>
        eye (4)
    </title>
    
    <g fill-rule="evenodd">
        <mask id="b">
            <use xlink:href="#a"/>
        </mask>
        <path d="M13.468.06C8.322.06 3.655 2.843.211 7.364c-.281.37-.281.888 0 1.258 3.444 4.526 8.11 7.31 13.257 7.31s9.814-2.784 13.258-7.304c.281-.37.281-.888 0-1.259C23.282 2.843 18.615.06 13.468.06zm.37 13.524c-3.417.213-6.238-2.57-6.023-5.953.176-2.789 2.463-5.05 5.284-5.224 3.417-.212 6.238 2.571 6.023 5.954-.182 2.783-2.469 5.044-5.285 5.223zm-.171-2.582c-1.84.115-3.361-1.383-3.24-3.202.093-1.503 1.328-2.718 2.848-2.816 1.84-.114 3.362 1.383 3.24 3.202-.099 1.51-1.333 2.724-2.848 2.816z" mask="url(#b)"/>
    </g>
</symbol><symbol id="ico-handshake" viewBox="0 0 53 39">
    <title>
        handshake
    </title>
    <g fill-rule="evenodd">
        <path d="M46.922 15.263l-9.064-9.004 3.935-3.91 9.064 9.005-3.935 3.909zm-4.756 2.657a3.928 3.928 0 0 0-1.113 2.092 11.48 11.48 0 0 1-3.223 6.127l-.649.645-5.344-5.31a4.336 4.336 0 0 0 1.996-.304.837.837 0 0 0 .462-1.094.847.847 0 0 0-1.102-.459c-2.174.884-4.78-1.552-5.071-1.832a.94.94 0 0 0-.015-.014l-.03-.03-.026-.026-.712-.708.806-.8a.835.835 0 0 0 0-1.188.849.849 0 0 0-1.194 0l-1.402 1.393-.002.002-.001.001-3.224 3.202a1.709 1.709 0 0 1-2.402 0 1.67 1.67 0 0 1-.497-1.193c0-.45.176-.874.497-1.193l5.564-5.527a5.603 5.603 0 0 1 3.958-1.629 5.67 5.67 0 0 1 2.314.496c1.637.738 3.582.394 4.84-.856l1.176-1.168 6.915 6.87-2.52 2.503zm-5.321 12.52a1.146 1.146 0 0 1-.813.335c-.307 0-.596-.12-.814-.335l-8.195-8.14a.849.849 0 0 0-1.195 0 .835.835 0 0 0 0 1.187l8.828 8.769c.217.215.337.502.337.808 0 .305-.12.593-.337.808-.449.446-1.179.446-1.627 0l-1.49-1.48-.025-.025-.007-.007-6.847-6.8a.849.849 0 0 0-1.195 0 .835.835 0 0 0 0 1.186l6.869 6.823c.21.214.325.497.325.797 0 .305-.12.592-.337.808a1.157 1.157 0 0 1-1.626 0l-7.447-7.399a.849.849 0 0 0-1.195 0 .835.835 0 0 0 0 1.187l5.52 5.484.005.005c.217.215.336.502.336.807 0 .305-.12.592-.338.808a1.145 1.145 0 0 1-1.03.314 3.005 3.005 0 0 0-.856-2.583 3.03 3.03 0 0 0-2.15-.884l-.068.001a3 3 0 0 0-.888-2.201 3.031 3.031 0 0 0-2.301-.881 3.003 3.003 0 0 0-.886-2.286 3.054 3.054 0 0 0-2.835-.805l-.606-.602a11.482 11.482 0 0 1-3.209-6.05 4.23 4.23 0 0 0-1.186-2.228l-1.49-1.48 8.473-8.416 2.112 2.097a4.323 4.323 0 0 0 3.048 1.238c.507 0 1.02-.086 1.514-.265.239-.086.487-.148.738-.188l-5.231 5.197a3.332 3.332 0 0 0-.993 2.38c0 .899.353 1.744.993 2.38.66.656 1.528.984 2.395.984.868 0 1.736-.328 2.396-.984l2.628-2.61.71.707h.001l.03.03.028.028h.001l.025.024 9.905 9.84c.218.216.337.503.337.808 0 .306-.12.593-.337.809zm-14.35 6.442a1.347 1.347 0 0 1-.954.394c-.361 0-.7-.14-.956-.394a1.337 1.337 0 0 1 0-1.897c.264-.262.61-.393.956-.393.345 0 .691.13.955.393a1.337 1.337 0 0 1 0 1.897zm-4.06-2.691c-.36 0-.7-.14-.955-.393a1.337 1.337 0 0 1 0-1.898c.263-.262.61-.393.955-.393.346 0 .692.131.955.393a1.337 1.337 0 0 1 0 1.898 1.345 1.345 0 0 1-.955.393zm-4.142-3.56a1.33 1.33 0 0 1-.396-.948c0-.359.14-.696.396-.95.263-.261.61-.392.955-.392.346 0 .692.131.955.393a1.338 1.338 0 0 1 0 1.898 1.36 1.36 0 0 1-1.91 0zM2.04 12.185L12.264 2.026l3.935 3.91L5.974 16.091 2.04 12.184zm50.61-1.423L42.39.569a.849.849 0 0 0-1.195 0l-5.13 5.096a.836.836 0 0 0 0 1.187l.513.508-1.176 1.168c-.764.758-1.948.965-2.948.514a7.382 7.382 0 0 0-3.012-.645 7.306 7.306 0 0 0-3.494.886 5.724 5.724 0 0 0-3.307.175c-.997.36-2.066.137-2.79-.582L17.74 6.778l.251-.25a.836.836 0 0 0 0-1.186L12.861.246a.849.849 0 0 0-1.194 0L.247 11.59a.835.835 0 0 0 0 1.187l5.13 5.096a.848.848 0 0 0 1.195 0l.306-.304 1.489 1.479c.376.373.625.84.72 1.348a13.151 13.151 0 0 0 3.675 6.93l.28.279a2.988 2.988 0 0 0-.834 2.077c0 .807.316 1.566.89 2.136a3.04 3.04 0 0 0 2.302.88 3.03 3.03 0 0 0 3.035 3.172l.068-.003a3.001 3.001 0 0 0 .888 2.202 3.03 3.03 0 0 0 2.15.885 3.031 3.031 0 0 0 2.288-1.033c.3.103.616.159.935.159.76 0 1.474-.294 2.009-.828a2.81 2.81 0 0 0 .642-.978l.086.086a2.84 2.84 0 0 0 2.008.825 2.84 2.84 0 0 0 2.664-1.839 2.848 2.848 0 0 0 1.67.538c.727 0 1.454-.275 2.008-.825a2.794 2.794 0 0 0 .832-1.996c0-.227-.028-.45-.08-.667a2.823 2.823 0 0 0 1.437-.77 2.793 2.793 0 0 0 .832-1.995c0-.593-.184-1.159-.524-1.632l.677-.674a13.145 13.145 0 0 0 3.691-7.017c.081-.447.304-.862.645-1.201l2.521-2.504.443.44a.845.845 0 0 0 1.195 0l5.13-5.096a.837.837 0 0 0 0-1.186z"/>
        <path d="M47.845 12c.466 0 .845.376.845.84 0 .463-.379.838-.845.838A.842.842 0 0 1 47 12.84c0-.463.378-.839.845-.839"/>
        <path d="M5.845 12c.466 0 .845.376.845.84 0 .463-.379.838-.845.838A.842.842 0 0 1 5 12.84c0-.463.378-.839.845-.839"/>
    </g>
</symbol><symbol id="ico-like" viewBox="0 0 30 25">
    <title>
        like
    </title>
    <path d="M27.826 2c-1.415-1.333-3.37-2-5.866-2a6.88 6.88 0 0 0-2.114.347 8.7 8.7 0 0 0-2.005.935c-.62.393-1.15.762-1.597 1.105-.446.345-.868.711-1.27 1.098-.4-.387-.824-.753-1.27-1.098a22.014 22.014 0 0 0-1.596-1.105 8.683 8.683 0 0 0-2.006-.935A6.875 6.875 0 0 0 7.99 0C5.493 0 3.538.667 2.122 2 .707 3.334 0 5.185 0 7.55c0 .72.131 1.463.393 2.226.262.764.56 1.415.894 1.952.335.538.713 1.063 1.137 1.574.423.511.732.863.927 1.056.195.194.348.334.459.42l10.429 9.712c.2.194.446.29.735.29.29 0 .535-.096.736-.29l10.412-9.68c2.55-2.463 3.827-4.883 3.827-7.26 0-2.365-.708-4.216-2.123-5.55z" fill-rule="evenodd"/>
</symbol><symbol id="ico-location" viewBox="0 0 15 21">
    <title>
        location
    </title>
    <path d="M7.397 11.175c-2.052 0-3.722-1.678-3.722-3.74 0-2.063 1.67-3.741 3.722-3.741s3.721 1.678 3.721 3.74c0 2.063-1.67 3.741-3.721 3.741zM7.397 0C3.318 0 0 3.335 0 7.435c0 5.087 6.62 12.556 6.901 12.871a.664.664 0 0 0 .991 0c.282-.315 6.902-7.784 6.902-12.871 0-4.1-3.319-7.435-7.397-7.435z" fill-rule="evenodd"/>
</symbol><symbol id="ico-logo" viewBox="0 0 218 71">
    <title>
        logo
    </title>
    <path d="M183.152 32.244c-4.754 9.877-9.42 17.87-10.022 17.87-.432-2.407 4.406-18.645 8.463-22.852.954-.947 1.905-1.119 3.2.167-.52 1.463-1.124 3.096-1.641 4.815zM10.345 51.317C13.023 40.92 22.355 17.38 24.6 18.067c-.433-1.202-3.11-2.922-4.838-3.782a22.8 22.8 0 0 1 3.369-.256c11.314 0 13.393 7.129 11.666 14.602-2.508 11.255-13.567 22.686-24.453 22.686zM211.14 22.36c1.814-1.027 5.79 1.467 6.308 2.407-5.272 11.947-13.652 37.977-13.652 46.223-.952.086-5.703-1.72-5.27-4.038 1.209-7.04 3.283-14.689 5.27-21.733-2.163 5.496-4.753 10.992-6.74 10.992-1.122 0-4.662-1.372-5.44-4.893-.245-1.024-.267-2.386-.14-3.965-2.18 4.027-4.597 7.401-5.904 7.401-1.993 0-5.618-4.21-5.618-6.014 0-1.291.085-2.922.344-4.643-2.161 5.762-5.095 12.114-7.169 12.114-1.126 0-4.666-1.372-5.446-4.893-1.639-7.047 5.62-32.13 13.135-30.072 1.9.518 3.714 1.718 5.27 3.007.779-1.893 1.554-3.094 1.985-3.094 2.074 0 5.617 1.717 6.308 2.754-1.557 2.403-6.22 12.284-8.121 24.224 2.286-2.608 4.967-6.5 6.884-9.743 2.161-8.381 5.696-17.18 6.764-17.235 2.16-.085 5.615 2.06 5.957 2.754-3.365 5.235-9.24 23.795-8.81 26.203.692 0 6.395-9.885 11.668-21.307 1.29-3.87 2.245-6.357 2.417-6.45zM21.317 7.497c10.8 0 19.613 9.456 19.613 20.193 0 14-14.43 29.467-29.033 29.467-10.71 0-14.338-8.588-10.278-13.743-.952 3.092.778 5.84 4.063 7.129-.345-1.03-.604-1.974-.604-2.663 0-3.87 8.722-28.353 12.268-33.249-7.087 1.377-13.05 4.98-13.57 8.332-.429-.344-3.453-6.7-1.294-9.191 1.989-2.233 11.75-6.275 18.835-6.275zm35.334 6.788c-1.297 0-3.718-2.572-3.718-3.78 0-5.069 2.938-9.62 4.325-9.62 1.809 0 4.23 1.804 4.92 2.75-1.468 1.2-4.577 6.528-5.527 10.65zm61.515 8.073c1.816-1.025 5.787 1.467 6.308 2.409-5.273 11.947-13.654 37.976-13.654 46.221-.95.087-5.7-1.718-5.27-4.036 1.212-7.04 3.282-14.69 5.27-21.735-2.16 5.497-4.753 10.994-6.738 10.994-1.124 0-4.666-1.373-5.441-4.893-1.644-7.048 6.563-30.074 8.293-30.16 2.16-.085 5.614 2.061 5.96 2.754-3.372 5.236-9.243 23.794-8.812 26.202.693 0 6.394-9.885 11.666-21.307 1.294-3.87 2.245-6.357 2.418-6.449zm50.128-15.03c2.247 0 7.601 4.895 7.258 6.528-5.443 17.27-16.675 43.22-22.034 43.22-2.073 0-8.81-4.3-8.986-8.251-.17-2.576.35-7.733 1.128-13.574-4.15 11.856-8.47 21.824-12.013 21.824-2.07 0-8.035-4.299-8.296-8.25-.43-7.733 9.16-41.754 11.061-41.754 1.727 0 6.653 3.18 7.085 4.468-3.804.254-13.825 38.66-12.092 40.635 4.836-3.265 12.957-21.734 17.275-33.675 1.124-4.983 2.16-8.591 2.85-8.591h.174c1.986.255 6.227 3.263 6.655 4.377-2.246 0-9.936 35.914-8.212 37.889 6.399-4.294 20.912-43.13 18.147-44.846zm-85.07 42.364c5.664-1.763 9.531-1.91 10.47-1.212 1.04.858 3.077 6.185 2.47 7.73-1.812-2.402-10.777-2.919-18.382 0-2.23 0-4.275-4.89-2.885-6.9h.003c.01-.013.016-.04.03-.055.015 0 .025-.004.04-.004 6.19-4.808 16.918-16.638 18.258-20.995-3.734 2.217-7.956 2.294-9.757 1.601-1.046-.853-3.817-7.15-3.227-8.699 2.665 1.664 10.58 3.26 16.06 0 .037 0 .074.016.112.027a.316.316 0 0 1 .112-.027c2.784 2.61 4.668 4.136 4.387 5.763-.978 5.681-9.304 17.256-17.691 22.77zm-23.048 0c5.666-1.763 9.535-1.91 10.475-1.212 1.033.858 3.072 6.185 2.467 7.73-1.811-2.402-10.78-2.919-18.382 0-1.338 0-2.618-1.777-3.115-3.627-2.203 2.213-5.095 3.628-6.982 3.628-1.9 0-5.269-4.207-5.269-6.012.174-8.936 7.432-29.041 8.986-29.041 2.158 0 5.27 1.717 5.964 2.754-1.558 2.403-6.568 13.143-8.812 25.258 3.427 1.338 6.632-.159 8.828-1.94C60.566 41.696 69 32.09 70.181 28.257c-3.733 2.217-7.957 2.294-9.755 1.601-1.047-.853-3.818-7.15-3.224-8.699 2.662 1.664 10.574 3.26 16.052 0 .042 0 .073.016.114.027.043-.014.078-.027.113-.027 2.788 2.61 4.67 4.136 4.39 5.763-.977 5.681-9.308 17.256-17.695 22.77z" fill-rule="evenodd"/>
</symbol><symbol id="ico-logout" viewBox="0 0 22 16">
    <title>
        logout
    </title>
    <g fill-rule="evenodd">
        <path d="M3.414 9.002H15c.552 0 1-.436 1-.974a.988.988 0 0 0-1-.975H3.414l1.293-1.26a.957.957 0 0 0 0-1.378 1.018 1.018 0 0 0-1.414 0l-3 2.923a.991.991 0 0 0-.066.071l-.014.019a.832.832 0 0 0-.044.058l-.011.018a.806.806 0 0 0-.04.064l-.006.013a.926.926 0 0 0-.036.073l-.003.01-.03.08-.002.01a1.018 1.018 0 0 0-.022.082l-.003.025a.826.826 0 0 0-.01.264c.001.024.006.047.01.07l.003.024c.006.028.014.056.022.083l.002.01.03.08.004.01c.01.024.022.049.035.072l.006.014a.815.815 0 0 0 .04.064l.01.017.045.058.014.02c.021.024.043.047.066.07l3 2.923c.195.19.451.286.707.286.256 0 .512-.095.707-.286a.957.957 0 0 0 0-1.378l-1.293-1.26z"/>
        <path d="M13.82.055c-2.73 0-5.27 1.32-6.794 3.53a.96.96 0 0 0 .272 1.353c.46.3 1.08.182 1.389-.266 1.152-1.67 3.07-2.668 5.133-2.668 3.407 0 6.18 2.702 6.18 6.024 0 3.32-2.773 6.023-6.18 6.023-2.056 0-3.972-.993-5.125-2.656a1.016 1.016 0 0 0-1.389-.262.96.96 0 0 0-.269 1.353C8.563 14.686 11.098 16 13.82 16 18.33 16 22 12.424 22 8.028 22 3.632 18.33.055 13.82.055z"/>
    </g>
</symbol><symbol id="ico-mail" viewBox="0 0 16 14">
    <title>
        mail
    </title>
    <g fill-rule="evenodd">
        <path d="M1.533 3.88c.202.142.811.563 1.827 1.264 1.017.7 1.795 1.24 2.335 1.618l.38.271c.193.14.353.251.48.337.128.086.283.182.464.288.181.107.352.187.512.24.161.053.31.08.447.08h.017c.137 0 .285-.027.446-.08.16-.053.331-.134.513-.24.18-.106.335-.202.463-.288.128-.086.288-.198.481-.337s.32-.23.38-.27c.546-.38 1.936-1.34 4.17-2.883a4.22 4.22 0 0 0 1.088-1.09c.29-.427.437-.872.437-1.34 0-.39-.142-.724-.424-1.002A1.38 1.38 0 0 0 14.546.03H1.426C.968.031.616.185.37.492.123.8 0 1.184 0 1.645c0 .373.163.776.49 1.211.327.434.675.776 1.043 1.024z"/>
        <path d="M15.081 5.83a185.87 185.87 0 0 0-4.438 3.059c-.339.248-.614.442-.825.58-.21.14-.492.282-.842.426a2.575 2.575 0 0 1-.98.218h-.018c-.304 0-.63-.072-.981-.218a5.058 5.058 0 0 1-.843-.425c-.21-.14-.485-.333-.824-.581-.802-.586-2.279-1.606-4.43-3.06a4.721 4.721 0 0 1-.9-.772V12.1c0 .39.14.725.419 1.003.28.278.615.416 1.007.416h13.12c.393 0 .729-.138 1.008-.416.28-.278.419-.612.419-1.003V5.057a4.929 4.929 0 0 1-.892.772z"/>
    </g>
</symbol><symbol id="ico-phone" viewBox="0 0 14 14">
    <title>
        phone
    </title>
    <path d="M13.473 11.125l-2.128-2.13c-.424-.421-1.126-.408-1.564.03l-1.073 1.073a18.834 18.834 0 0 1-.211-.118c-.678-.375-1.604-.889-2.58-1.865-.978-.978-1.493-1.907-1.869-2.585l-.115-.206.719-.719.354-.354c.44-.44.452-1.141.029-1.564L2.905.557c-.422-.423-1.124-.41-1.564.03l-.599.603.015.016c-.2.257-.368.553-.493.872a3.585 3.585 0 0 0-.22.885c-.282 2.33.784 4.459 3.672 7.349 3.995 3.993 7.214 3.693 7.353 3.677.302-.036.592-.108.887-.222.317-.124.613-.291.868-.492l.013.012.61-.596c.436-.44.45-1.141.026-1.566z" fill-rule="evenodd"/>
</symbol><symbol id="ico-plus" viewBox="0 0 10 10">
    <title>
        plus
    </title>
    <g fill-rule="evenodd">
        <path d="M4 0h2v10H4z"/>
        <path d="M10 4v2H0V4z"/>
    </g>
</symbol><symbol id="ico-rain" viewBox="0 0 40 40">
    <title>
        rain
    </title>
    <path d="M21.146 2.696V1.233c0-.705-.47-1.175-1.175-1.175-.705 0-1.175.47-1.175 1.175v1.466C8.306 3.276 0 11.465 0 21.204c0 .704.47 1.174 1.175 1.174.705 0 1.175-.47 1.175-1.174a2.607 2.607 0 0 1 2.584-2.585c1.41 0 2.584 1.175 2.584 2.585 0 .704.47 1.174 1.175 1.174.705 0 1.175-.47 1.175-1.174a2.607 2.607 0 0 1 2.584-2.585c1.41 0 2.585 1.175 2.585 2.585 0 .704.47 1.174 1.175 1.174.704 0 1.175-.47 1.175-1.174 0-1.016.62-1.89 1.484-2.31a1.313 1.313 0 0 0-.075.43v16.682c0 .94-.705 1.645-1.644 1.645-.94 0-1.645-.705-1.645-1.645V33.89c0-.704-.47-1.174-1.175-1.174-.705 0-1.175.47-1.175 1.174v2.115c0 2.114 1.88 3.994 3.994 3.994 2.115 0 3.995-1.88 3.995-3.994V19.324c0-.158-.031-.299-.075-.43.867.42 1.484 1.297 1.484 2.31 0 .704.47 1.174 1.175 1.174.705 0 1.175-.47 1.175-1.174a2.607 2.607 0 0 1 2.584-2.585c1.41 0 2.585 1.175 2.585 2.585 0 .704.47 1.174 1.175 1.174.704 0 1.174-.47 1.174-1.174a2.607 2.607 0 0 1 2.585-2.585 2.607 2.607 0 0 1 2.584 2.585c0 .704.47 1.174 1.175 1.174.705 0 1.175-.47 1.175-1.174 0-9.967-8.306-17.946-18.796-18.508zM35.008 16.27c-1.41 0-2.82.47-3.76 1.644-.939-.94-2.349-1.644-3.759-1.644-1.41 0-2.82.47-3.759 1.644-.94-.94-2.35-1.644-3.759-1.644-1.41 0-2.82.47-3.76 1.644-.939-.94-2.349-1.644-3.759-1.644-1.409 0-2.82.47-3.759 1.644-.94-.94-2.35-1.644-3.759-1.644-.662 0-1.28.124-1.845.34C5.268 9.91 12.06 4.992 19.971 4.992c7.91 0 14.703 4.915 16.882 11.618a5.127 5.127 0 0 0-1.845-.34z" fill-rule="evenodd"/>
</symbol><symbol id="ico-search" viewBox="0 0 16 17">
    <title>
        search
    </title>
    <path d="M7 13A6 6 0 1 0 7 1a6 6 0 0 0 0 12zm5.207.207l.707-.707H11.5l.354.354-.354-.354v1.414l.707-.707L13 14l-.793-.793zM14.5 15.5v-1.414l-.707.707L13 14l.793.793-.707.707H14.5z" fill-rule="evenodd"/>
</symbol><symbol id="ico-sewing-machine" viewBox="0 0 44 41">
    <title>
        sewing-machine
    </title>
    <g fill-rule="evenodd">
        <path d="M23.486 34.871h13.597V21.145c-.218-3.34-1.89-6.391-4.726-8.352-2.909-2.033-6.544-2.687-9.962-1.67l-7.634 2.251c-1.018.29-2.036.436-3.127.436h-.51A9.093 9.093 0 0 1 6.4 12.503c-.873-.509-1.527-1.235-2.182-2.324-.29-.436-.727-.726-1.236-.726-.8 0-1.454.653-1.454 1.452v16.704c0 .798.654 1.452 1.454 1.452.8 0 1.454-.654 1.454-1.452v-1.453a5.056 5.056 0 0 1 5.09-5.084h10.18c1.018 0 2.036.29 2.908.8 2.109 1.234 3.2 3.848 2.545 6.39l-1.672 6.609zm15.051 1.452H21.595l2.11-8.424c.508-1.888-.292-3.849-1.891-4.793a4.665 4.665 0 0 0-2.182-.581H9.452a3.598 3.598 0 0 0-3.635 3.631v1.453a2.915 2.915 0 0 1-2.909 2.905A2.915 2.915 0 0 1 0 27.609V10.905A2.915 2.915 0 0 1 2.908 8c1.018 0 1.964.581 2.545 1.453.51.871 1.018 1.452 1.673 1.815 1.163.726 2.545 1.09 3.999 1.09h.509c.945 0 1.818-.146 2.69-.364l7.635-2.251c3.854-1.162 7.926-.436 11.27 1.888 3.127 2.252 5.09 5.665 5.308 9.441V36.323z"/>
        <path d="M2.908 36.452c-.8 0-1.454.654-1.454 1.453s.655 1.452 1.454 1.452h37.81c.8 0 1.455-.653 1.455-1.452 0-.799-.655-1.453-1.454-1.453H2.909zm37.81 4.358H2.909A2.915 2.915 0 0 1 0 37.905 2.915 2.915 0 0 1 2.908 35h37.81c1.6 0 2.91 1.307 2.91 2.905a2.915 2.915 0 0 1-2.91 2.905z"/>
        <path d="M2.727 33.357c-.436 0-.727-.29-.727-.726v-2.905c0-.436.29-.726.727-.726.436 0 .727.29.727.726v2.905c0 .436-.29.726-.727.726"/>
        <path d="M25.727 10.084c-.436 0-.727-.29-.727-.727v-3.63c0-.437.29-.727.727-.727.436 0 .727.29.727.726v3.631c0 .436-.29.727-.727.727"/>
        <path d="M29.454 30.726c0 .436-.29.726-.727.726-.436 0-.727-.29-.727-.726s.29-.726.727-.726c.436 0 .727.29.727.726"/>
        <path d="M29.454 18.726c0 .436-.29.727-.727.727-.436 0-.727-.291-.727-.727s.29-.726.727-.726c.436 0 .727.29.727.726"/>
        <path d="M32.454 30.726c0 .436-.29.726-.727.726-.436 0-.727-.29-.727-.726s.29-.726.727-.726c.436 0 .727.29.727.726"/>
        <path d="M25.454 4.357h1.454V1.453h-1.454v2.904zm2.182 1.453h-2.909c-.436 0-.727-.29-.727-.726V.726c0-.436.29-.726.727-.726h2.909c.436 0 .727.29.727.726v4.358c0 .435-.291.726-.727.726z"/>
        <path d="M29.544 1.453h-5.817c-.436 0-.727-.291-.727-.727S23.29 0 23.727 0h5.817c.436 0 .727.29.727.726s-.29.727-.727.727"/>
        <path d="M29.544 6.453h-5.817c-.436 0-.727-.291-.727-.727S23.29 5 23.727 5h5.817c.436 0 .727.29.727.726s-.29.727-.727.727"/>
        <path d="M39.908 26.453h-2.18c-.437 0-.728-.291-.728-.727 0-.435.29-.726.727-.726h2.181c.437 0 .728.29.728.726s-.291.727-.728.727"/>
        <path d="M41.181 20.452c-.436 0-.727.291-.727.727v8.715c0 .435.291.726.727.726.437 0 .727-.29.727-.726v-8.715c0-.436-.29-.727-.727-.727zm0 11.62c-1.236 0-2.181-.944-2.181-2.178v-8.715c0-1.235.945-2.179 2.181-2.179 1.236 0 2.182.944 2.182 2.179v8.715c0 1.234-.946 2.178-2.182 2.178z"/>
        <path d="M28.636 16.452c-1.237 0-2.182.945-2.182 2.18 0 1.234.945 2.178 2.182 2.178 1.236 0 2.18-.944 2.18-2.179 0-1.234-.944-2.179-2.18-2.179zm0 5.81A3.598 3.598 0 0 1 25 18.632C25 16.597 26.6 15 28.636 15a3.598 3.598 0 0 1 3.635 3.631c0 2.034-1.6 3.631-3.635 3.631z"/>
        <path d="M14.09 16.452H9.727c-.436 0-.727-.29-.727-.726S9.29 15 9.727 15h4.363c.436 0 .727.29.727.726s-.29.726-.727.726"/>
        <path d="M16.998 19.453h-7.27c-.437 0-.728-.291-.728-.727S9.29 18 9.727 18h7.271c.437 0 .727.29.727.726s-.29.727-.727.727"/>
        <path d="M40 23.453h2.909V22H40z"/>
        <path d="M40 26.453h2.909V25H40z"/>
        <path d="M40 29.452h2.909V28H40z"/>
    </g>
</symbol><symbol id="ico-size" viewBox="0 0 17 17">
    <title>
        Fill 1
    </title>
    <path d="M5.876 6.51l1.305 1.3.653-.65L6.53 5.858l-.653.651zM7.18 5.206L9.14 7.16l.653-.65-1.959-1.953-.653.65zm3.265-3.254l-.652.65 1.305 1.302.653-.65-1.306-1.302zM11.1 0L0 11.066l5.876 5.858L16.975 5.858 11.099 0zM1.306 11.066l.652-.65 1.306 1.3.653-.65L2.61 9.764l.654-.65 1.958 1.952.653-.65-1.958-1.954.652-.651 1.306 1.302.653-.65L5.223 7.16 9 3.394l-.513.512 1.306 1.302.652-.651L9.14 3.254l1.958-1.952 4.57 4.556-9.792 9.764-4.57-4.556z" fill-rule="evenodd"/>
</symbol><symbol id="ico-snow" viewBox="0 0 36 40">
    <title>
        snow
    </title>
    <path d="M35.79 23.688c-.473-.701-1.182-.701-1.655-.468l-4.046 2.204-9.707-5.528 9.5-5.412L33.9 16.67c0 .233.237.233.473.233.473 0 .945-.233.945-.468.237-.702 0-1.403-.472-1.637l-2.728-1.589 2.962-1.686c.71-.469.71-1.17.473-1.638-.473-.702-1.183-.702-1.655-.469l-3.073 1.75V7.779c0-.701-.473-1.17-1.182-1.17s-1.182.469-1.182 1.17v4.736L19.004 17.9V6.562l3.783-2.059c.709-.468.709-1.17.472-1.638-.472-.702-1.182-.702-1.654-.467l-2.6 1.514V1.228c0-.702-.474-1.17-1.183-1.17-.709 0-1.182.468-1.182 1.17v2.96l-3.073-1.79c-.71-.234-1.418 0-1.655.468-.236.702 0 1.403.473 1.637L16.64 6.82v10.946l-9.455-5.386V7.545c0-.702-.474-1.17-1.183-1.17-.709 0-1.182.468-1.182 1.17v3.488L1.984 9.416c-.71-.233-1.418 0-1.655.469-.236.701 0 1.403.473 1.637l2.64 1.505-2.64 1.537c-.71.468-.71 1.17-.473 1.638.237.468.473.701.946.701 0 0 .236 0 .472-.468l3.927-2.138 9.827 5.597-9.496 5.409-4.258-2.319c-.709-.234-1.418-.234-1.654.468-.237.702 0 1.404.473 1.638l2.874 1.673-2.4 1.37c-.708.469-.708 1.17-.472 1.639.236.467.473.701.945.701.237 0 .237 0 .71-.234l2.363-1.347v3.22c0 .701.473 1.169 1.182 1.169.71 0 1.182-.468 1.418-1.404v-4.466l9.457-5.386v11.069l-3.783 2.058c-.71.469-.71 1.17-.472 1.638.472.702 1.182.702 1.654.469l2.6-1.514v2.917c0 .702.473 1.17 1.183 1.17.71 0 1.181-.468 1.181-1.17v-3.194l3.073 1.79c0 .234.237.234.473.234.237 0 .71-.233 1.419-.702.236-.701 0-1.403-.473-1.638l-4.492-2.444V21.892l9.693 5.52v4.701c0 .702.473 1.17 1.182 1.17s1.182-.468 1.418-.935v-3.454l2.364 1.348c0 .234.236.234.473.234.472 0 .945-.234 1.182-.702.236-.702 0-1.404-.473-1.638l-2.198-1.252 2.671-1.556c.708-.47.708-1.171.472-1.64z" fill-rule="evenodd"/>
</symbol><symbol id="ico-social-fb" viewBox="0 0 9 17">
    <title>
        social-fb
    </title>
    <path d="M8.662.003L6.502 0C4.079 0 2.51 1.561 2.51 3.977v1.835H.339A.334.334 0 0 0 0 6.14v2.657c0 .182.152.33.339.33h2.17v6.704c0 .182.153.33.34.33h2.832c.188 0 .34-.148.34-.33V9.127h2.538c.187 0 .339-.147.339-.329l.001-2.657a.328.328 0 0 0-.1-.233.344.344 0 0 0-.24-.096H6.021V4.257c0-.747.183-1.127 1.185-1.127h1.455A.334.334 0 0 0 9 2.8V.333a.335.335 0 0 0-.338-.33z" fill-rule="evenodd"/>
</symbol><symbol id="ico-social-ok" viewBox="0 0 11 18">
    <title>
        social-ok
    </title>
    <g fill-rule="evenodd">
        <path d="M4.598 12.64c-1.42-.147-2.7-.492-3.797-1.34-.136-.106-.276-.208-.4-.326-.48-.456-.528-.978-.15-1.517.326-.46.871-.584 1.438-.32.11.052.215.116.315.185 2.043 1.388 4.849 1.428 6.9.062.204-.154.42-.28.672-.344.49-.124.946.054 1.209.477.3.484.295.957-.074 1.332-.567.576-1.25.994-2.007 1.285-.717.274-1.501.412-2.279.505.118.126.173.188.247.26 1.055 1.05 2.114 2.094 3.165 3.146.358.359.433.803.236 1.22-.216.456-.698.756-1.172.724-.3-.02-.533-.168-.742-.376-.796-.793-1.606-1.57-2.387-2.378-.226-.236-.336-.191-.535.013-.801.816-1.615 1.62-2.434 2.418-.367.359-.805.423-1.231.219-.454-.217-.742-.675-.72-1.135.015-.312.17-.55.386-.763 1.044-1.031 2.085-2.066 3.126-3.099.07-.068.134-.141.234-.248z"/>
        <path d="M5.467 9C3.005 8.992.986 6.953 1 4.49A4.509 4.509 0 0 1 5.52 0C8.013.006 10.013 2.042 10 4.558 9.987 7.016 7.954 9.008 5.467 9zm2.238-4.504A2.193 2.193 0 0 0 5.503 2.3a2.196 2.196 0 0 0-2.207 2.224 2.193 2.193 0 0 0 2.218 2.18 2.19 2.19 0 0 0 2.19-2.207z"/>
    </g>
</symbol><symbol id="ico-social-vk" viewBox="0 0 18 12">
    <title>
        social-vk
    </title>
    <path d="M14.953 5.839s2.372-3.46 2.607-4.597c.079-.406-.094-.634-.502-.634H15c-.471 0-.644.211-.785.52 0 0-1.113 2.451-2.466 3.996-.435.5-.656.65-.896.65-.193 0-.282-.167-.282-.618V1.21c0-.552-.063-.715-.503-.715H6.77c-.252 0-.409.152-.409.358 0 .52.77.637.77 2.046v2.908c0 .585-.032.812-.299.812-.706 0-2.387-2.517-3.33-5.376C3.315.657 3.11.494 2.577.494H.518a.499.499 0 0 0-.518.52c0 .569.644 3.2 3.173 6.725 1.696 2.372 3.926 3.655 5.937 3.655 1.225 0 1.524-.211 1.524-.747v-1.82c0-.454.172-.65.424-.65.282 0 .781.095 1.947 1.284 1.382 1.364 1.477 1.933 2.23 1.933h2.31c.235 0 .455-.114.455-.52 0-.536-.675-1.494-1.712-2.631-.424-.585-1.115-1.219-1.335-1.51-.314-.342-.22-.537 0-.894" fill-rule="evenodd"/>
</symbol><symbol id="ico-sort" viewBox="0 0 8 8">
    <path d="M0 0h8v2H0zm2 3h6v2H2zm2 3h4v2H4z" fill-rule="evenodd"/>
</symbol><symbol id="ico-sun" viewBox="0 0 40 40">
    <title>
        sun
    </title>
    <path d="M19.971 9.456A10.53 10.53 0 0 0 9.398 20.029a10.53 10.53 0 0 0 10.573 10.573 10.53 10.53 0 0 0 10.573-10.573A10.53 10.53 0 0 0 19.971 9.456zm0 18.796c-4.464 0-8.223-3.759-8.223-8.223s3.759-8.223 8.223-8.223 8.223 3.759 8.223 8.223-3.76 8.223-8.223 8.223zm0-23.495c-.705 0-1.175-.47-1.175-1.175v-2.35c0-.704.47-1.174 1.175-1.174.705 0 1.175.47 1.175 1.175v2.349c0 .705-.47 1.175-1.175 1.175zm0 30.544c.705 0 1.175.47 1.175 1.174v2.35c0 .705-.47 1.175-1.175 1.175-.705 0-1.175-.47-1.175-1.175v-2.35c0-.704.47-1.174 1.175-1.174zm18.796-16.447c.705 0 1.175.47 1.175 1.175 0 .705-.47 1.175-1.175 1.175h-2.35c-.704 0-1.174-.47-1.174-1.175 0-.705.47-1.175 1.174-1.175h2.35zm-35.242 0c.704 0 1.174.47 1.174 1.175 0 .705-.47 1.175-1.174 1.175h-2.35C.47 21.204 0 20.734 0 20.029c0-.705.47-1.175 1.175-1.175h2.35zM32.423 5.931c.47-.469 1.175-.469 1.645 0 .47.47.47 1.175 0 1.645l-1.645 1.645c-.235.235-.47.235-.704.235-.236 0-.705 0-.94-.235a1.136 1.136 0 0 1 0-1.645l1.644-1.645zm-25.14 25.14c.47-.47 1.175-.47 1.645 0s.47 1.176 0 1.645l-1.644 1.645s-.236.235-.706.235c-.234 0-.704 0-.94-.235a1.136 1.136 0 0 1 0-1.645l1.646-1.644zm25.14 0l1.645 1.645c.47.47.47 1.175 0 1.645-.235 0-.47.235-.705.235s-.705 0-.94-.235l-1.644-1.645a1.135 1.135 0 0 1 0-1.644c.47-.47 1.174-.47 1.644 0zM7.283 5.932l1.645 1.645c.47.47.47 1.175 0 1.645 0 .235-.235.235-.705.235-.234 0-.705 0-.94-.235L5.64 7.576a1.136 1.136 0 0 1 0-1.645c.47-.469 1.175-.469 1.645 0z" fill-rule="evenodd"/>
</symbol><symbol id="ico-wallet" viewBox="0 0 40 35">
    <title>
        wallet
    </title>
    <g fill-rule="evenodd">
        <path d="M37.988 15.906L22.01 31.776a4.843 4.843 0 0 1-3.432 1.41c-1.297 0-2.516-.5-3.433-1.41a.834.834 0 0 0-.116-.096L3.099 19.83A4.8 4.8 0 0 1 3.085 13L14.167 1.994c.22-.22.516-.34.832-.34.316 0 .611.12.832.34l3.348 3.326L7.265 17.153l-.002.002c-.2.199-.467.308-.75.308s-.55-.11-.75-.308a1.052 1.052 0 0 1 0-1.493.833.833 0 0 0 .085-.1L13.23 8.24a.822.822 0 0 0 0-1.168.838.838 0 0 0-1.178 0l-7.469 7.405a.836.836 0 0 0-.101.123 2.697 2.697 0 0 0 .1 3.722 2.72 2.72 0 0 0 1.93.794 2.72 2.72 0 0 0 1.926-.79l.003-.003L24.432 2.44c.222-.22.518-.34.833-.34.316 0 .612.12.833.34l2.678 2.66-1.167 1.158-1.754-1.742a.837.837 0 0 0-1.18 0l-2.564 2.547a.822.822 0 0 0 .001 1.169.834.834 0 0 0 1.179-.001l1.974-1.962 1.167 1.159-2.426 2.41a2.697 2.697 0 0 0 0 3.828l2.679 2.66c.514.511 1.199.792 1.929.792a2.72 2.72 0 0 0 1.93-.791l2.423-2.408 1.166 1.159-1.976 1.963a.822.822 0 0 0 0 1.169.834.834 0 0 0 1.18-.001l2.564-2.547a.821.821 0 0 0 0-1.168l-1.756-1.744 1.166-1.159 2.676 2.658c.46.457.46 1.2 0 1.657zM32.043 5.683l2.678 2.661a1.052 1.052 0 0 1 0 1.493l-2.341 2.326-.002.002-.002.002-3.012 2.992a1.056 1.056 0 0 1-.75.306c-.285 0-.55-.108-.75-.306l-2.679-2.66a1.052 1.052 0 0 1 0-1.494l5.356-5.32.002-.002c.2-.197.465-.306.75-.306s.55.109.75.306zm7.124 7.398l-2.77-2.751a2.698 2.698 0 0 0-.496-3.153l-2.679-2.661a2.718 2.718 0 0 0-1.929-.792c-.442 0-.866.104-1.247.298l-2.769-2.75a2.835 2.835 0 0 0-2.011-.825c-.762 0-1.477.293-2.012.825l-2.897 2.877L17.01.825A2.835 2.835 0 0 0 14.999 0c-.762 0-1.476.293-2.012.825L1.905 11.833a6.446 6.446 0 0 0 0 9.15l12.051 11.971a.828.828 0 0 0 .126.103 6.505 6.505 0 0 0 4.496 1.782c1.742 0 3.38-.673 4.611-1.895l15.978-15.87a2.813 2.813 0 0 0 0-3.993z"/>
        <path d="M27.555 11.551a1.873 1.873 0 0 0 0 2.661c.74.735 1.939.735 2.679 0 .74-.735.74-1.926 0-2.66a1.903 1.903 0 0 0-2.68 0"/>
        <path d="M19.808 10.243l-2.564 2.547a.821.821 0 0 0 0 1.168.834.834 0 0 0 1.18 0l2.563-2.548a.822.822 0 0 0 0-1.168.838.838 0 0 0-1.18 0"/>
        <path d="M14.808 15.243l-2.564 2.547a.822.822 0 0 0 0 1.169.834.834 0 0 0 1.179-.001l2.565-2.548a.821.821 0 0 0-.002-1.168.838.838 0 0 0-1.178 0"/>
        <path d="M29.808 20.242l-2.564 2.547a.822.822 0 0 0 0 1.17.835.835 0 0 0 1.179-.002l2.564-2.547a.822.822 0 0 0 0-1.168.838.838 0 0 0-1.179 0"/>
        <path d="M24.808 25.242l-2.564 2.547a.822.822 0 0 0 0 1.17.834.834 0 0 0 1.179-.002l2.564-2.547a.821.821 0 0 0 0-1.168.838.838 0 0 0-1.18 0"/>
        <path d="M14.833 7.034c.214 0 .427-.08.59-.242l.384-.381a.822.822 0 0 0 0-1.17.838.838 0 0 0-1.179.001l-.384.382a.822.822 0 0 0 0 1.168.835.835 0 0 0 .59.242"/>
    </g>
</symbol><symbol id="ico-zoom" viewBox="0 0 30 32">
    <title>
        Fill 1
    </title>
    <path d="M29.542 28.26l-7.394-7.677a12.483 12.483 0 0 0 2.944-8.056C25.092 5.62 19.464 0 12.544 0 5.628 0 0 5.62 0 12.527c0 6.91 5.628 12.529 12.544 12.529 2.597 0 5.074-.782 7.188-2.269l7.453 7.74c.311.324.73.502 1.18.502a1.633 1.633 0 0 0 1.177-2.768zM12.544 3.27c5.114 0 9.274 4.154 9.274 9.258 0 5.106-4.16 9.26-9.274 9.26-5.11 0-9.27-4.154-9.27-9.26 0-5.104 4.16-9.258 9.27-9.258z" fill-rule="evenodd"/>
</symbol></svg>