<?xml version="1.0" encoding="UTF-8"?>
<svg width="53px" height="39px" viewBox="0 0 53 39" version="1.1" xmlns="http://www.w3.org/2000/svg" xmlns:xlink="http://www.w3.org/1999/xlink">
    <!-- Generator: Sketch 47.1 (45422) - http://www.bohemiancoding.com/sketch -->
    <title>handshake (1) copy</title>
    <desc>Created with Sketch.</desc>
    <defs></defs>
    <g id="Page-1" stroke="none" stroke-width="1" fill="none" fill-rule="evenodd">
        <g id="cart_new_customers_v2" transform="translate(-1164.000000, -521.000000)" fill="#000000">
            <g id="handshake-(1)-copy" transform="translate(1164.000000, 521.000000)">
                <path d="M46.9222276,15.2630349 L37.8578845,6.25855066 L41.7927987,2.34972434 L50.8571418,11.3542086 L46.9222276,15.2630349 Z M42.166175,17.9201664 C41.5799722,18.5026007 41.1950249,19.225948 41.0530716,20.0119007 C40.6315512,22.3436901 39.5170015,24.4624164 37.830403,26.1388007 L37.1810755,26.7837375 L31.8366506,21.4746059 C31.9527753,21.4831243 32.0693134,21.4887691 32.1867812,21.4887691 C32.7279391,21.4887691 33.2817013,21.3945533 33.8329839,21.1705086 C34.2648358,20.9951112 34.4716701,20.5049428 34.2951067,20.0760454 C34.1184401,19.647148 33.6255297,19.441577 33.1932646,19.617077 C31.0189215,20.5008375 28.4121067,18.0651849 28.1220015,17.7845901 C28.1171457,17.7798691 28.11229,17.7752507 28.1073309,17.7706322 L28.0773699,17.7408691 C28.0772666,17.7407664 28.0771633,17.7407664 28.0769566,17.7406638 L28.0509215,17.7148007 C28.0507149,17.714698 28.0505083,17.7144928 28.0503017,17.7143901 L27.3390892,17.0074638 L28.1454537,16.2062191 C28.4755414,15.8784138 28.4755414,15.3470901 28.145557,15.0192849 C27.8156759,14.6916849 27.2807169,14.6914796 26.9509391,15.0192849 L25.5489703,16.4119954 C25.5483504,16.4125086 25.5478338,16.4130217 25.5472139,16.4135349 C25.5466974,16.4141507 25.5462841,16.4146638 25.5456642,16.4152796 L22.3222724,19.6173849 C21.6598241,20.2753559 20.5822607,20.2751507 19.920019,19.6173849 C19.5992295,19.2987138 19.4225629,18.874948 19.4225629,18.4241901 C19.4225629,17.9734322 19.5992295,17.5496664 19.9201223,17.2309954 L25.4837792,11.7038743 C25.7934108,11.3964928 26.1373426,11.1260586 26.5072061,10.8995507 C27.3856837,10.3601191 28.4003289,10.0750086 29.4414225,10.0750086 C30.2363192,10.0750086 31.0364849,10.2464033 31.7559625,10.5708217 C33.3926603,11.3085375 35.3379566,10.9648243 36.5962159,9.71507961 L37.7722373,8.54713224 L44.6869293,15.4160586 L42.166175,17.9201664 Z M36.844789,30.4399875 C36.6276233,30.6559243 36.3388611,30.7748743 36.0318124,30.7748743 C35.7247636,30.7748743 35.4360015,30.6559243 35.2184225,30.439577 L27.0225356,22.2996612 C26.6923445,21.9718559 26.1575921,21.9719586 25.827711,22.2998664 C25.4979332,22.6275691 25.4980365,23.1589954 25.8279176,23.486698 L34.6561886,32.2557454 C34.8734576,32.471477 34.9929917,32.7583322 34.9929917,33.0636612 C34.9929917,33.3694007 34.8733543,33.6566664 34.6564985,33.8720901 C34.2073933,34.3178191 33.4771711,34.3179217 33.0286857,33.872398 L31.5393134,32.3928612 C31.5311516,32.3843428 31.5229898,32.3757217 31.5144147,32.3674086 C31.5119352,32.3649454 31.5091457,32.3627901 31.5065629,32.360327 L24.6602646,25.5592401 C24.3302802,25.2315375 23.7954245,25.2315375 23.4654401,25.5592401 C23.135559,25.8870454 23.135559,26.4184717 23.4654401,26.7460717 L30.3338475,33.5689164 C30.5437812,33.782698 30.6593894,34.0655507 30.6593894,34.3656454 C30.6593894,34.6709743 30.5396486,34.9578296 30.3224829,35.1735612 C29.8742042,35.6190849 29.1444985,35.6190849 28.6960132,35.1735612 L21.248635,27.7753638 C20.9186506,27.4475586 20.3837948,27.4475586 20.0538104,27.7753638 C19.7239293,28.1030664 19.7239293,28.6344928 20.0538104,28.9620928 L25.5742822,34.4462112 C25.5758319,34.4478533 25.5770716,34.4494954 25.5787247,34.4509322 C25.795787,34.6661507 25.9151145,34.9525954 25.9151145,35.2575138 C25.9151145,35.5626375 25.7954771,35.8495954 25.5774849,36.0662507 C25.3606291,36.2821875 25.071867,36.4011375 24.764405,36.4011375 C24.6901223,36.4011375 24.6174927,36.3935428 24.5464128,36.3802007 C24.683097,35.4654454 24.3980541,34.4999901 23.6907675,33.7973743 C23.1164459,33.2268454 22.3528533,32.9126901 21.5407032,32.9126901 C21.5180775,32.9126901 21.4955551,32.9138191 21.4729293,32.9143322 C21.4902861,32.1190401 21.1950151,31.3182059 20.5853601,30.712577 C20.0110385,30.1421507 19.2475492,29.8278928 18.4352958,29.8278928 C18.3844654,29.8278928 18.3338416,29.8291243 18.2835278,29.8315875 C18.3240268,29.009098 18.0290658,28.1732664 17.3981282,27.5463928 C16.6300931,26.7835322 15.5504635,26.5155612 14.5627831,26.7410428 L13.9569508,26.1392112 C12.2894654,24.4820191 11.1800814,22.3895664 10.7483328,20.0881559 C10.5901594,19.2451401 10.1799001,18.4750954 9.56198002,17.8610507 L8.07271101,16.3817191 L16.5453757,7.96490329 L18.656904,10.0624875 C19.4685375,10.8686586 20.5735824,11.3002243 21.7053855,11.3002243 C22.2123465,11.3002243 22.7248865,11.2136033 23.21852,11.0353322 C23.4580015,10.9488138 23.7056447,10.8867217 23.9565941,10.8473112 L18.7256077,16.0438559 C18.0855785,16.6795559 17.733175,17.5248296 17.733175,18.4239849 C17.733175,19.3229349 18.0855785,20.1682086 18.7255044,20.8040112 C19.3860931,21.4601349 20.2535161,21.788248 21.1213523,21.7881454 C21.988982,21.7881454 22.8567149,21.4599296 23.5174069,20.8040112 L26.1446779,18.1939875 L26.855787,18.9009138 C26.856097,18.9011191 26.8562003,18.9012217 26.8564069,18.901427 L26.8859547,18.9307796 L26.9142627,18.9590033 C26.914366,18.9591059 26.9146759,18.9593112 26.9148826,18.9594138 L26.9153991,18.959927 C26.9235609,18.9680349 26.9315161,18.975527 26.9395746,18.9831217 L36.8453056,28.8235401 C37.0625746,29.0392717 37.1821087,29.326127 37.1821087,29.6314559 C37.181902,29.9369901 37.0623679,30.223948 36.844789,30.4399875 Z M22.4957364,36.882377 C22.2405512,37.135877 21.9013718,37.2755586 21.5405999,37.2755586 C21.1797247,37.2755586 20.840442,37.135877 20.5853601,36.882377 C20.0585629,36.3591612 20.0585629,35.5077296 20.5853601,34.9845138 C20.8488104,34.7229059 21.1946019,34.5920507 21.5405999,34.5920507 C21.8863913,34.5920507 22.2324927,34.7229059 22.4957364,34.9845138 C23.0225336,35.5077296 23.0225336,36.3591612 22.4957364,36.882377 Z M18.4350892,34.1906586 C18.0743173,34.1906586 17.7350346,34.050977 17.480056,33.7975796 C16.9531555,33.2743638 16.9531555,32.4228296 17.480056,31.8996138 C17.743403,31.6380059 18.0891944,31.5071507 18.4352958,31.5071507 C18.7810872,31.5071507 19.1270853,31.6380059 19.3903289,31.8996138 C19.9172295,32.4228296 19.9172295,33.2743638 19.3903289,33.7975796 C19.1353504,34.0511822 18.7961711,34.1906586 18.4350892,34.1906586 Z M14.2927208,30.6316007 C14.0376389,30.377998 13.8970288,30.0410586 13.8970288,29.6825664 C13.8970288,29.324177 14.0376389,28.9871349 14.2929274,28.7336349 C14.5562744,28.472027 14.9020658,28.3411717 15.2479605,28.3411717 C15.5939586,28.3411717 15.9399566,28.472027 16.2032003,28.7336349 C16.7298942,29.2568507 16.7298942,30.1083849 16.2033036,30.6316007 C15.676713,31.1546112 14.8197247,31.1548164 14.2927208,30.6316007 Z M2.039596,12.1835743 L12.2643601,2.02622961 L16.1992744,5.93505592 L5.97430361,16.0924007 L2.039596,12.1835743 Z M52.6492237,10.7606901 L42.3902627,0.569271711 C42.0602783,0.241569079 41.5254225,0.241569079 41.1954381,0.569271711 L36.0658026,5.66503224 C35.9074225,5.82236645 35.8184693,6.03584013 35.8184693,6.25844803 C35.8184693,6.48095329 35.9074225,6.69452961 36.0658026,6.85176118 L36.5776194,7.36019803 L35.4017013,8.52804276 C34.6383153,9.28607961 33.4538221,9.49298487 32.454364,9.04232961 C31.5173075,8.61979539 30.4754907,8.39657171 29.4415258,8.39657171 C28.2138475,8.39657171 27.0140638,8.70272171 25.948175,9.28259013 C25.5035122,9.17380066 25.0473816,9.11807171 24.5866019,9.11807171 C23.9202276,9.11807171 23.2657344,9.23240329 22.6414089,9.45788487 C21.6442237,9.81771118 20.575442,9.59469276 19.8516252,8.87575855 L17.7399937,6.77807171 L17.9914596,6.52826645 C18.1498397,6.37093224 18.2387929,6.15745855 18.2387929,5.93495329 C18.2387929,5.71234539 18.1498397,5.49887171 17.9914596,5.3415375 L12.8618241,0.245776974 C12.5318397,-0.0819256579 11.9969839,-0.0819256579 11.6669995,0.245776974 L0.247410819,11.5900559 C-0.0824702729,11.9178612 -0.0824702729,12.4492875 0.247410819,12.7768875 L5.37683967,17.872648 C5.53542641,18.0300849 5.75021589,18.1184507 5.97430361,18.1184507 C6.19849464,18.1184507 6.4131808,18.0300849 6.57176754,17.872648 L6.87778314,17.5686533 L8.36694883,19.0479849 C8.74270127,19.4213586 8.99179094,19.8874086 9.08714961,20.3956401 C9.58160965,23.031527 10.8523699,25.4278717 12.7620229,27.3259401 L13.04252,27.6045849 C12.5038416,28.1681349 12.2075375,28.9023612 12.2075375,29.6823612 C12.2075375,30.489148 12.5237812,31.247698 13.0981028,31.8181243 C13.6909176,32.407127 14.4693874,32.7013717 15.2480638,32.7013717 C15.2987909,32.7013717 15.3494147,32.7000375 15.4000385,32.6974717 C15.3589196,33.5204743 15.6539839,34.3570243 16.2852315,34.9843086 C16.8595531,35.5548375 17.6230424,35.8689928 18.4352958,35.8689928 C18.4579215,35.8689928 18.480444,35.8678638 18.5030697,35.867248 C18.485713,36.6625401 18.7810872,37.4633743 19.3905356,38.0690033 C19.9649605,38.6396349 20.7284498,38.9536875 21.5407032,38.9536875 C22.3528533,38.9536875 23.1164459,38.6394296 23.6907675,38.0690033 C23.7391184,38.0209717 23.7846798,37.971298 23.8292081,37.9210086 C24.1283017,38.0244612 24.4446486,38.079677 24.764405,38.079677 C25.5240716,38.079677 26.2377636,37.7855349 26.7729293,37.2522612 C27.0577656,36.9694086 27.2738981,36.636677 27.4146116,36.2742849 L27.5011886,36.3601875 C28.0548475,36.9101901 28.7820736,37.1852428 29.5092997,37.1852428 C30.2365258,37.1852428 30.9637519,36.9101901 31.5174108,36.3601875 C31.8116486,36.0678928 32.0327403,35.7227428 32.1728338,35.3463928 C32.6685336,35.7044743 33.2551496,35.8836691 33.8422822,35.8836691 C34.5695083,35.8836691 35.2971477,35.6088217 35.8512198,35.0590243 C36.3875219,34.5262638 36.6828962,33.8174901 36.6828962,33.0633533 C36.6828962,32.8355112 36.6554147,32.6120822 36.6030346,32.3961454 C37.1440892,32.2869454 37.6412354,32.0230796 38.0401301,31.6263059 C38.5764323,31.0935454 38.8718065,30.3850796 38.8718065,29.6314559 C38.8718065,29.0376296 38.6877013,28.4724375 38.3476954,27.9985875 L39.0254342,27.3252217 C40.9572997,25.4052928 42.2335356,22.978877 42.7163212,20.308198 C42.7972159,19.8611349 43.0201672,19.4456822 43.3613095,19.1067928 L45.8819605,16.6027875 L46.3250736,17.0429743 C46.4901691,17.206877 46.7063017,17.2888796 46.9225375,17.2888796 C47.1387734,17.2888796 47.3550093,17.2069796 47.5200015,17.0429743 L52.6496369,11.9473164 C52.8080171,11.7899822 52.8969703,11.5764059 52.8969703,11.3539007 C52.8969703,11.1312928 52.8076038,10.918127 52.6492237,10.7606901 L52.6492237,10.7606901 Z" id="Fill-1"></path>
                <path d="M47.8447973,12 C48.3114659,12 48.6896979,12.3757342 48.6896979,12.8392184 C48.6896979,13.3027026 48.3114659,13.6784368 47.8447973,13.6784368 C47.378232,13.6784368 47,13.3027026 47,12.8392184 C47,12.3757342 47.378232,12 47.8447973,12" id="Fill-4"></path>
                <path d="M5.84490058,12 C6.31146589,12 6.68969786,12.3757342 6.68969786,12.8392184 C6.68969786,13.3027026 6.31146589,13.6784368 5.84490058,13.6784368 C5.37823197,13.6784368 5,13.3027026 5,12.8392184 C5,12.3757342 5.37823197,12 5.84490058,12" id="Fill-5"></path>
            </g>
        </g>
    </g>
</svg>