<?xml version="1.0" encoding="UTF-8"?>
<svg width="40px" height="35px" viewBox="0 0 40 35" version="1.1" xmlns="http://www.w3.org/2000/svg" xmlns:xlink="http://www.w3.org/1999/xlink">
    <!-- Generator: Sketch 47.1 (45422) - http://www.bohemiancoding.com/sketch -->
    <title>wallet copy</title>
    <desc>Created with Sketch.</desc>
    <defs></defs>
    <g id="Page-1" stroke="none" stroke-width="1" fill="none" fill-rule="evenodd">
        <g id="cart_new_customers_v2" transform="translate(-1170.000000, -363.000000)" fill="#000000">
            <g id="wallet-copy" transform="translate(1170.000000, 363.000000)">
                <path d="M37.9876646,15.9064108 L22.0103209,31.7762539 C21.0934459,32.6854883 19.8744615,33.1862799 18.5777427,33.1862799 C17.2811021,33.1862799 16.0621177,32.6854883 15.1451646,31.7762539 C15.1090709,31.7404609 15.0700865,31.7083867 15.0287584,31.6801087 L3.09907087,19.8303118 C3.09430524,19.8251986 3.08953962,19.8203952 3.08461774,19.8155143 C1.19289899,17.9366934 1.19289899,14.8796484 3.08461774,13.0008275 L14.1669615,1.99278516 C14.3875865,1.77353385 14.6829771,1.65275195 14.9989146,1.65275195 C15.3148521,1.65275195 15.610399,1.77361133 15.8312584,1.9929401 L19.1792271,5.31866471 L7.26461774,17.1531992 C7.26407087,17.1536641 7.26344587,17.1542064 7.26289899,17.1546712 C7.06243024,17.3537018 6.79610212,17.46325 6.51289899,17.46325 L6.51274274,17.46325 C6.22969587,17.46325 5.96336774,17.3537018 5.76305524,17.1547487 C5.34860212,16.7431296 5.34860212,16.0732897 5.76305524,15.6616706 C5.79469587,15.6302936 5.82219587,15.596515 5.84766462,15.5618066 L13.2311021,8.24020768 C13.5564146,7.91745117 13.5564927,7.39419206 13.2311021,7.07151302 C12.9057115,6.74875651 12.3780552,6.74875651 12.0525084,7.07143555 L4.58414899,14.4773262 C4.54571149,14.5155208 4.51203962,14.556737 4.48258649,14.5999674 C3.52219587,15.6615931 3.55586774,17.3015618 4.58368024,18.3224362 C5.09883649,18.8341517 5.78391462,19.1159245 6.51274274,19.1159245 L6.51297712,19.1159245 C7.24032087,19.1159245 7.92414899,18.8352363 8.43899274,18.3255352 C8.44008649,18.3244505 8.44118024,18.3235983 8.44235212,18.3225137 L24.4328209,2.43973242 C24.6537584,2.22032617 24.9495396,2.0994668 25.2654771,2.0994668 C25.5814146,2.0994668 25.8770396,2.2202487 26.0978209,2.43965495 L28.7759459,5.09964583 L27.6093052,6.25834635 L25.8550084,4.51572461 C25.6986802,4.3604668 25.4864927,4.27315365 25.2652427,4.27315365 C25.0439927,4.27315365 24.8318834,4.3604668 24.6754771,4.51572461 L22.1111802,7.06283594 C21.786024,7.38582487 21.7864927,7.90900651 22.1121959,8.2315306 C22.2748521,8.39252148 22.4878209,8.47301693 22.7008677,8.47301693 C22.9144615,8.47301693 23.127899,8.39213411 23.2905552,8.23052344 L25.2651646,6.26911523 L26.4315709,7.42781576 L24.0058677,9.83725586 C22.9429771,10.8926836 22.9429771,12.6102812 24.0058677,13.6659414 L26.6848521,16.3269395 C27.1986021,16.8371829 27.8837584,17.1182585 28.6139146,17.1182585 C29.3440709,17.1182585 30.0290709,16.8372604 30.5432115,16.326862 L32.9671177,13.9192812 L34.1334459,15.0778268 L32.156649,17.040862 C31.8315709,17.3638509 31.8320396,17.88711 32.1576646,18.2096341 C32.3203209,18.3707025 32.5334459,18.4511979 32.7464146,18.4511979 C32.9599302,18.4511979 33.1734459,18.3703151 33.3361802,18.2087044 L35.9005552,15.661748 C36.225399,15.339069 36.225399,14.8165846 35.9005552,14.4939831 L34.1445396,12.7496569 L35.3111021,11.5909564 L37.9871959,14.2490104 C38.4474302,14.7061068 38.4475084,15.4497018 37.9876646,15.9064108 Z M32.0425865,5.68341211 L34.7214927,8.34441016 C35.1359459,8.75595182 35.1358677,9.42579167 34.7215709,9.83741081 L32.379774,12.1632565 C32.3792271,12.1637988 32.3786802,12.1641862 32.3780552,12.164806 C32.3775865,12.1653483 32.3771177,12.1659681 32.3764927,12.1665104 L29.3636021,15.159097 C29.1646959,15.3566556 28.8984459,15.4653516 28.6139146,15.4653516 C28.3292271,15.4653516 28.0630552,15.3566556 27.8642271,15.159097 L25.185399,12.4982539 C24.7708677,12.0867122 24.7708677,11.4170273 25.1855552,11.0052533 L30.5411021,5.68565885 L30.5433677,5.68348958 C30.7421959,5.48593099 31.0083677,5.37715755 31.2929771,5.37715755 C31.5775865,5.37715755 31.8437584,5.48593099 32.0425865,5.68341211 Z M39.1669615,13.0814004 L36.3968052,10.3299128 C36.9236021,9.31159505 36.7586802,8.02854883 35.901024,7.17672266 L33.2221177,4.51572461 C32.7083677,4.00540365 32.0232115,3.72448307 31.2930552,3.72448307 C30.8513365,3.72448307 30.426649,3.82783333 30.046024,4.02198307 L27.2774302,1.27204492 C26.741649,0.739798828 26.027274,0.446714844 25.2655552,0.446714844 C24.5039927,0.446714844 23.7894615,0.739798828 23.253524,1.27196745 L20.3568052,4.14896289 L17.0107896,0.82517513 C16.4750084,0.29300651 15.7604771,0 14.9989146,0 C14.2373521,0 13.5229771,0.29300651 12.9873521,0.824942708 L1.90500837,11.8330625 C-0.629679132,14.3505788 -0.634991632,18.443373 1.88907087,20.9673197 C1.89430524,20.9726654 1.89953962,20.9780111 1.90485212,20.9833568 L13.9563365,32.9540905 C13.9951646,32.9926725 14.0374302,33.027071 14.0824302,33.0568984 C15.3000084,34.2073092 16.8898521,34.8387995 18.5776646,34.8387995 C20.3195396,34.8387995 21.9571177,34.1660931 23.1892271,32.9442513 L39.1670396,17.0740208 C40.2752427,15.9735807 40.2751646,14.1823828 39.1669615,13.0814004 L39.1669615,13.0814004 Z" id="Fill-1"></path>
                <path d="M27.5548242,11.5511304 C26.8150586,12.2858934 26.8150586,13.4770555 27.5548242,14.2119735 C28.2944336,14.9467365 29.4938086,14.9467365 30.2335742,14.2119735 C30.9734961,13.476978 30.9734961,12.2858159 30.2335742,11.5511304 C29.4938867,10.8162899 28.2944336,10.8162899 27.5548242,11.5511304" id="Fill-4"></path>
                <path d="M19.8079398,10.2425422 L17.2435648,12.7896535 C16.9184085,13.1126424 16.9188773,13.6358241 17.2445804,13.9582707 C17.4073148,14.119339 17.6202835,14.1998345 17.8334085,14.1998345 C18.0467679,14.1998345 18.2603616,14.1189517 18.4231741,13.957341 L20.9873929,11.4102297 C21.3125491,11.0871633 21.3120804,10.5639816 20.9863773,10.241535 C20.6607523,9.91916586 20.1330179,9.91947576 19.8079398,10.2425422" id="Fill-5"></path>
                <path d="M14.808057,15.2425035 L12.2435257,17.7899247 C11.9184476,18.1129136 11.9188382,18.6361728 12.2446195,18.9586194 C12.4072757,19.1196877 12.6203226,19.2001832 12.8333695,19.2001832 C13.046807,19.2001832 13.2602445,19.1193004 13.4229788,18.9576122 L15.9875882,16.410191 C16.3126663,16.0872795 16.3122757,15.5640204 15.9864945,15.2415738 C15.6608695,14.9190497 15.1332913,14.919592 14.808057,15.2425035" id="Fill-6"></path>
                <path d="M29.8080666,20.2424549 L27.2436135,22.7894888 C26.9184573,23.1124777 26.9188479,23.6356594 27.2444729,23.9581834 C27.4071291,24.1192518 27.6203323,24.1998247 27.833301,24.1998247 C28.0467385,24.1998247 28.2602541,24.1189419 28.4229885,23.9572538 L30.9873635,21.4103748 C31.3125979,21.0873859 31.3122073,20.5642043 30.9865823,20.2416802 C30.6609573,19.9191561 30.133301,19.919466 29.8080666,20.2424549" id="Fill-7"></path>
                <path d="M24.8079495,25.2424937 L22.2435745,27.7894501 C21.9184183,28.1123616 21.918887,28.6356981 22.244512,28.9581448 C22.4071683,29.1192131 22.6202933,29.199786 22.833262,29.199786 C23.0467776,29.199786 23.2602151,29.1188257 23.4229495,28.9572151 L25.9873245,26.4102587 C26.3125589,26.0873472 26.312012,25.5640881 25.986387,25.2416415 C25.660762,24.9191174 25.1331839,24.9195048 24.8079495,25.2424937" id="Fill-8"></path>
                <path d="M14.8333399,7.03410785 C15.0466993,7.03410785 15.2600586,6.95337999 15.422793,6.79192426 L15.8070899,6.41051996 C16.1324805,6.0876085 16.132168,5.56442686 15.8066993,5.2418253 C15.4812305,4.91930121 14.9536524,4.91937868 14.6281836,5.24213519 L14.2438868,5.62353949 C13.9185743,5.94637348 13.9187305,6.46955512 14.2441993,6.79223415 C14.4070118,6.95345746 14.620293,7.03410785 14.8333399,7.03410785" id="Fill-10"></path>
            </g>
        </g>
    </g>
</svg>