<?xml version="1.0" encoding="UTF-8"?>
<svg width="39px" height="32px" viewBox="0 0 39 32" version="1.1" xmlns="http://www.w3.org/2000/svg" xmlns:xlink="http://www.w3.org/1999/xlink">
    <!-- Generator: Sketch 47.1 (45422) - http://www.bohemiancoding.com/sketch -->
    <title>delivery-truck copy</title>
    <desc>Created with Sketch.</desc>
    <defs></defs>
    <g id="Page-1" stroke="none" stroke-width="1" fill="none" fill-rule="evenodd">
        <g id="cart_new_customers_v2" transform="translate(-1171.000000, -824.000000)" fill="#000000">
            <g id="delivery-truck-copy" transform="translate(1171.000000, 824.000000)">
                <path d="M37.3750254,27.1788478 L34.8560977,27.1788478 C34.478666,25.3565714 32.8372383,23.981171 30.8755078,23.981171 C30.873375,23.981171 30.8712422,23.9813208 30.8691855,23.9813208 L24.3749238,23.9813208 L24.3749238,11.1914379 L32.5004062,11.1914379 C32.948373,11.1914379 33.3128555,11.5500328 33.3128555,11.9908384 L33.3128555,12.790089 L27.6254062,12.790089 C27.1767539,12.790089 26.812957,13.1480094 26.812957,13.5894895 L26.812957,20.783719 C26.812957,21.2251991 27.1767539,21.5830445 27.6254062,21.5830445 L37.3750254,21.5830445 L37.3750254,27.1788478 Z M30.8755078,30.3761499 C29.5314551,30.3761499 28.4379316,29.3004403 28.4379316,27.9781733 C28.4379316,26.6577799 29.5280273,25.5834192 30.8691855,25.5801218 L30.8752793,25.5801218 C30.876041,25.5801218 30.8768027,25.5799719 30.8774121,25.5799719 C32.2196367,25.5810211 33.311332,26.655082 33.3127793,27.9756253 C33.3127793,27.9765246 33.3127031,27.9773489 33.3127031,27.9781733 C33.3127031,27.9790726 33.3127793,27.979897 33.3127793,27.9807213 C33.311332,29.3018642 32.2184941,30.3761499 30.8755078,30.3761499 Z M24.3749238,25.5800468 L27.6276152,25.5800468 C27.2719688,26.0450585 27.0169453,26.5883841 26.8947656,27.1788478 L24.3749238,27.1788478 L24.3749238,25.5800468 Z M8.12494922,30.3761499 C6.78082031,30.3761499 5.68737305,29.3004403 5.68737305,27.9781733 C5.68737305,26.6558314 6.78082031,25.579897 8.12494922,25.579897 C9.46884961,25.579897 10.5622207,26.6558314 10.5622207,27.9781733 C10.5622207,29.3004403 9.46884961,30.3761499 8.12494922,30.3761499 Z M1.62497461,14.388815 L4.87484766,14.388815 C5.3235,14.388815 5.68737305,14.0309696 5.68737305,13.5894895 C5.68737305,13.1480094 5.3235,12.790089 4.87484766,12.790089 L1.62497461,12.790089 L1.62497461,11.1914379 L11.3747461,11.1914379 C11.8234746,11.1914379 12.1872715,10.8335925 12.1872715,10.3921124 C12.1872715,9.95055738 11.8234746,9.59271194 11.3747461,9.59271194 L1.62497461,9.59271194 L1.62497461,6.39488525 L2.4369668,6.39488525 L2.43826172,6.39488525 L22.7499492,6.39488525 L22.7499492,23.9813208 L17.2242129,23.9813208 C16.7754844,23.9813208 16.4116875,24.3393162 16.4116875,24.7807213 C16.4116875,25.2221265 16.7754844,25.5800468 17.2242129,25.5800468 L22.7499492,25.5800468 L22.7499492,27.1788478 L12.1054629,27.1788478 C11.7281074,25.3565714 10.0866797,23.981171 8.12494922,23.981171 C6.16306641,23.981171 4.52148633,25.3565714 4.14413086,27.1788478 L1.62497461,27.1788478 L1.62497461,14.388815 Z M7.31272852,1.92979859 L8.36298633,2.96301639 C8.36336719,2.9633911 8.36382422,2.96376581 8.36420508,2.96421546 L10.2263027,4.79615925 L4.39923047,4.79615925 L7.31272852,1.92979859 Z M19.4999238,3.19773302 L19.4999238,4.79615925 L12.5244082,4.79615925 L10.8996621,3.19773302 L19.4999238,3.19773302 Z M28.4379316,19.9843185 L30.0629824,19.9843185 L30.0629824,14.388815 L28.4379316,14.388815 L28.4379316,19.9843185 Z M37.3750254,17.5860422 L37.3750254,19.9843185 L31.687957,19.9843185 L31.687957,14.388815 L34.1253809,14.388815 C35.917248,14.388815 37.3750254,15.8230445 37.3750254,17.5860422 Z M34.9378301,12.8579859 L34.9378301,11.9908384 C34.9378301,10.6684965 33.844459,9.59271194 32.5004062,9.59271194 L24.3749238,9.59271194 L24.3749238,5.59555972 C24.3749238,5.15407963 24.0112031,4.79615925 23.5624746,4.79615925 L21.1248984,4.79615925 L21.1248984,2.39840749 C21.1248984,1.9569274 20.7611016,1.59900703 20.3124492,1.59900703 L9.27461133,1.59900703 L7.8872168,0.234098361 C7.57003711,-0.0780327869 7.05549609,-0.0780327869 6.73824023,0.234098361 L2.10104883,4.79615925 L0.812525391,4.79615925 C0.363796875,4.79615925 0,5.15407963 0,5.59555972 L0,27.9781733 C0,28.4195785 0.363796875,28.7775738 0.812525391,28.7775738 L4.14420703,28.7775738 C4.26646289,29.3679625 4.52148633,29.911363 4.87713281,30.3762998 L3.24994922,30.3762998 C2.8012207,30.3762998 2.4375,30.7342201 2.4375,31.1757002 C2.4375,31.6171054 2.8012207,31.9750258 3.24994922,31.9750258 L8.12479687,31.9750258 C8.12677734,31.9750258 8.12875781,31.974726 8.13081445,31.974726 C10.0899551,31.9719532 11.7284121,30.5978267 12.1054629,28.7775738 L26.8947656,28.7775738 C27.0170215,29.3679625 27.2721211,29.911363 27.6277676,30.3762998 L26.0005078,30.3762998 C25.5518555,30.3762998 25.1880586,30.7342201 25.1880586,31.1757002 C25.1880586,31.6171054 25.5518555,31.9750258 26.0005078,31.9750258 L30.8752793,31.9750258 C30.8773359,31.9750258 30.8793926,31.974726 30.881373,31.974726 C32.8405898,31.9719532 34.4790469,30.5978267 34.8560977,28.7775738 L38.1874746,28.7775738 C38.6362793,28.7775738 39,28.4195785 39,27.9781733 L39,17.5860422 C39,15.2139953 37.240125,13.2398126 34.9378301,12.8579859 L34.9378301,12.8579859 Z" id="Fill-1"></path>
                <path d="M14.8124492,24.598726 L15.3196016,24.598726 C15.7683301,24.598726 16.132127,24.2408056 16.132127,23.7994005 C16.132127,23.3579953 15.7683301,23 15.3196016,23 L14.8124492,23 C14.3637207,23 14,23.3579953 14,23.7994005 C14,24.2408056 14.3637969,24.598726 14.8124492,24.598726" id="Fill-4"></path>
                <path d="M14.8124492,9.598726 L15.3196016,9.598726 C15.7683301,9.598726 16.132127,9.24088056 16.132127,8.79940047 C16.132127,8.35784543 15.7683301,8 15.3196016,8 L14.8124492,8 C14.3637207,8 14,8.35784543 14,8.79940047 C14,9.24088056 14.3637969,9.598726 14.8124492,9.598726" id="Fill-5"></path>
            </g>
        </g>
    </g>
</svg>