<?xml version="1.0" encoding="UTF-8"?>
<svg width="13px" height="12px" viewBox="0 0 13 12" version="1.1" xmlns="http://www.w3.org/2000/svg" xmlns:xlink="http://www.w3.org/1999/xlink">
    <!-- Generator: Sketch 47.1 (45422) - http://www.bohemiancoding.com/sketch -->
    <title>attention</title>
    <desc>Created with Sketch.</desc>
    <defs></defs>
    <g id="Page-1" stroke="none" stroke-width="1" fill="none" fill-rule="evenodd">
        <g id="delivery" transform="translate(-120.000000, -586.000000)" fill="#FF8F5B">
            <g id="attention" transform="translate(120.000000, 586.000000)">
                <path d="M12.8151624,10.0232727 L7.59859898,0.687681818 C7.36816244,0.275113636 6.95519797,0.0287727273 6.49406091,0.0287727273 C6.03292386,0.0287727273 5.61995939,0.275113636 5.38952284,0.687681818 L0.172959391,10.0232727 C-0.0577411168,10.4357727 -0.0577411168,10.9285227 0.172959391,11.3410909 C0.403395939,11.7535909 0.816360406,12 1.27749746,12 L11.7108883,12 C12.1717614,12 12.5847259,11.7535909 12.8154264,11.3410909 C13.0458629,10.9285227 13.0458629,10.4357727 12.8151624,10.0232727 Z M6.49406091,10.4813182 C6.03628934,10.4813182 5.66377665,10.0965 5.66377665,9.62345455 C5.66377665,9.15047727 6.03628934,8.76559091 6.49406091,8.76559091 C6.95189848,8.76559091 7.32434518,9.15047727 7.32434518,9.62345455 C7.32434518,10.0965 6.95189848,10.4813182 6.49406091,10.4813182 Z M7.3300203,6.81443182 C7.3300203,7.29061364 6.955,7.67788636 6.49406091,7.67788636 C6.03318782,7.67788636 5.65836548,7.29061364 5.65836548,6.81443182 L5.65836548,2.85081818 C5.65836548,2.62472727 5.83548223,2.44172727 6.05430457,2.44172727 L6.93408122,2.44172727 C7.15296954,2.44172727 7.3300203,2.62472727 7.3300203,2.85081818 L7.3300203,6.81443182 Z" id="Fill-1"></path>
            </g>
        </g>
    </g>
</svg>