<?xml version="1.0" encoding="UTF-8"?>
<svg width="32px" height="31px" viewBox="0 0 32 31" version="1.1" xmlns="http://www.w3.org/2000/svg" xmlns:xlink="http://www.w3.org/1999/xlink">
    <!-- Generator: Sketch 47.1 (45422) - http://www.bohemiancoding.com/sketch -->
    <title>cart</title>
    <desc>Created with Sketch.</desc>
    <defs></defs>
    <g id="Page-1" stroke="none" stroke-width="1" fill="none" fill-rule="evenodd">
        <g id="main" transform="translate(-1258.000000, -25.000000)" fill="#FFFFFF">
            <g id="shopping-store-cart-" transform="translate(1258.000000, 25.000000)">
                <path d="M31.6467027,8.82208863 C31.9290811,9.172125 32.0348829,9.59198284 31.9642523,10.0816621 L30.6232793,17.7094249 C30.5762883,18.1061281 30.3941622,18.432438 30.0765405,18.688998 C29.758991,18.9458437 29.4003604,19.0739808 29.0002883,19.0739808 L9.4516036,19.0739808 L9.06335135,21.2433058 L27.6945586,21.2433058 C28.1416216,21.2433058 28.5295856,21.4007436 28.8592432,21.7156906 C29.1883243,22.0305661 29.353009,22.4214091 29.353009,22.8878622 C29.353009,23.3543153 29.1883243,23.7451583 28.8592432,24.0600338 C28.5295856,24.3749808 28.1416216,24.5324185 27.6945586,24.5324185 L7.08727928,24.5324185 C6.59344144,24.5324185 6.17001802,24.3341742 5.81700901,23.9375425 C5.48763964,23.5411253 5.35841441,23.0860351 5.42875676,22.5729867 L6.31106306,17.8144073 L4.97016216,4.44849206 L1.15935135,3.25866855 C0.712288288,3.11881122 0.388828829,2.85053099 0.188900901,2.45411373 C-0.010954955,2.0574106 -0.0523963964,1.63755277 0.0652972973,1.19454022 C0.206342342,0.751241803 0.482810811,0.430506148 0.894702703,0.232261783 C1.30630631,0.0340888832 1.72381982,-0.0069321209 2.14724324,0.109770492 L7.01686486,1.64934452 C7.32266667,1.74253509 7.57542342,1.91755328 7.77535135,2.17411322 C7.9754955,2.43067316 8.09881081,2.72239395 8.1458018,3.04877536 L8.42818018,5.70806557 L30.5174775,8.15739114 C31.0115315,8.2272126 31.387964,8.44882608 31.6467027,8.82208863 Z M9.59264865,25.4421701 C10.2984505,25.4421701 10.8983784,25.6870097 11.3921441,26.1769034 C11.8862703,26.6665827 12.1334775,27.2614588 12.1334775,27.9613171 C12.1334775,28.6611755 11.8862703,29.2619116 11.3921441,29.7633112 C10.8983784,30.2649967 10.2984505,30.515625 9.59264865,30.515625 C8.88713514,30.515625 8.28713514,30.2649967 7.79308108,29.7633112 C7.29895495,29.2619116 7.05210811,28.6611755 7.05210811,27.9613171 C7.05210811,27.2614588 7.29895495,26.6665827 7.79308108,26.1769034 C8.28713514,25.6870097 8.88713514,25.4421701 9.59264865,25.4421701 Z M24.6598919,25.4421701 C25.3656937,25.4421701 25.9656216,25.6870097 26.4597477,26.1769034 C26.9535135,26.6665827 27.2007207,27.2614588 27.2007207,27.9613171 C27.2007207,28.6611755 26.9535135,29.2619116 26.4597477,29.7633112 C25.9656216,30.2649967 25.3656937,30.515625 24.6598919,30.515625 C23.9543784,30.515625 23.3544505,30.2649967 22.8603964,29.7633112 C22.3662703,29.2619116 22.1193514,28.6611755 22.1193514,27.9613171 C22.1193514,27.2614588 22.3662703,26.6665827 22.8603964,26.1769034 C23.3544505,25.6870097 23.9543784,25.4421701 24.6598919,25.4421701 Z" id="cart"></path>
            </g>
        </g>
    </g>
</svg>