<?xml version="1.0" encoding="UTF-8"?>
<svg width="38px" height="42px" viewBox="0 0 38 42" version="1.1" xmlns="http://www.w3.org/2000/svg" xmlns:xlink="http://www.w3.org/1999/xlink">
    <!-- Generator: Sketch 47.1 (45422) - http://www.bohemiancoding.com/sketch -->
    <title>coat</title>
    <desc>Created with Sketch.</desc>
    <defs></defs>
    <g id="Page-1" stroke="none" stroke-width="1" fill="none" fill-rule="evenodd">
        <g id="main" transform="translate(-840.000000, -1659.000000)" fill="#000000">
            <g id="coat" transform="translate(840.000000, 1659.000000)">
                <path d="M23.3176369,4.1549575 L19.4731646,14.6331271 L18.4052511,17.804103 L24.3855504,11.5310233 L23.104005,8.49787105 C23.0328764,8.29101647 23.0328764,8.01528979 23.1752156,7.87746618 C23.3176369,7.67061159 23.5311868,7.60166007 23.7448187,7.60166007 L25.8805637,7.60166007 L23.3176369,4.1549575 Z M16.6966058,21.3198365 C16.5541846,21.3198365 16.4829739,21.3198365 16.3406347,21.250885 C16.0558741,21.1130614 15.9134529,20.7683832 16.0558741,20.423705 L18.1916192,14.2194974 L22.4632733,2.50043859 C22.5344839,2.29366345 22.7480338,2.0868883 23.0328764,2.01793677 C23.3176369,1.94898525 23.5311868,2.0868883 23.7448187,2.29366345 L28.0163908,7.80851465 C28.1588121,8.01528979 28.2300227,8.29101647 28.0876014,8.49787105 C27.8740515,8.77359772 27.6604196,8.91150078 27.3756591,8.91150078 L24.8838608,8.91150078 L25.9517744,11.3931203 C26.022985,11.6688469 26.022985,11.9446531 25.8094351,12.0824767 L17.2661269,21.0441099 C17.052577,21.250885 16.9101557,21.3198365 16.6966058,21.3198365 L16.6966058,21.3198365 Z" id="Fill-1"></path>
                <path d="M17.4238847,39.8014106 L18.8477694,39.8014106 C22.3362705,39.8014106 25.8959002,39.3878603 29.3132727,38.6295523 L25.2551685,25.5317807 C25.2551685,25.4629086 25.1840399,25.3250056 25.2551685,25.2560541 L26.6790532,14.2264311 C26.7502639,13.8817529 27.0350244,13.6748983 27.3197849,13.6060262 C27.6757561,13.6060262 27.9605987,13.8128014 28.0317273,14.1574796 L31.6626497,28.2202548 C31.7338603,28.564933 32.0898315,28.7717876 32.4458027,28.7717876 L35.2223614,28.4271094 C35.4359113,28.4271094 35.5783326,28.2892063 35.7206718,28.1513827 C35.8630931,28.0134797 35.8630931,27.8067045 35.7918825,27.5998499 L30.5947361,9.33198476 C29.9540044,6.78141374 27.889388,4.78229607 25.3263792,4.02398814 L24.8280687,3.88608509 L27.8181774,7.74649681 C27.9605987,7.95327196 28.0317273,8.22899863 27.889388,8.43585322 C27.889388,8.71157989 27.6757561,8.84948294 27.3909956,8.84948294 L24.8991973,8.84948294 L25.9671109,11.3311024 C26.0383215,11.6068291 26.0383215,11.8826352 25.8247716,12.0204588 L17.4238847,20.844189 L17.4238847,39.8014106 Z M18.8477694,41.2490749 L16.7119424,41.1801234 C16.3559712,41.1801234 16,40.8354452 16,40.490767 L16,20.5684623 C16,20.3616872 16.0712106,20.2237841 16.2135499,20.0858811 L24.4720976,11.4690055 L23.1905521,8.43585322 C23.1193415,8.22899863 23.1193415,7.95327196 23.2617627,7.81544834 C23.404184,7.60859376 23.6177339,7.53964223 23.8312838,7.53964223 L25.9671109,7.53964223 L22.5498204,3.12777716 C22.3362705,2.92100201 22.3362705,2.57632381 22.5498204,2.30059714 C22.7633703,2.02487047 23.0482129,1.95591894 23.3329734,2.02487047 L25.8959823,2.78309896 C28.9573016,3.67930994 31.3066785,6.09205734 32.0898315,9.05625809 L37.2869778,27.3241233 C37.4293991,27.9445281 37.3581885,28.4960609 37.0022173,29.0475143 C36.6462461,29.5300955 36.076643,29.8747737 35.507122,29.9436458 L32.6593525,30.2194519 C31.591439,30.3572755 30.5235255,29.6679191 30.3099756,28.6338845 L27.6046275,18.1557149 L26.6790532,25.3250056 L30.9507073,38.9742305 C31.021918,39.1810057 30.9507073,39.3189087 30.8794967,39.5256839 C30.808286,39.6635869 30.5947361,39.8014106 30.4523149,39.8703621 L30.0963437,39.8703621 C26.4655033,40.7664936 22.621031,41.2490749 18.8477694,41.2490749 L18.8477694,41.2490749 Z" id="Fill-3"></path>
                <path d="M12.7084721,11.444135 L16.9801262,15.9938237 L17.5497293,14.3393842 L13.7763856,4.0680692 L11.1422481,7.44589968 L13.2780752,7.44589968 C13.4916251,7.44589968 13.705257,7.58372329 13.8475962,7.72162635 C13.9900175,7.85944997 13.9900175,8.13525608 13.9188069,8.34203122 L12.7084721,11.444135 Z M17.1937581,18.0618929 C16.9801262,18.0618929 16.7665763,17.9930208 16.6953656,17.8551178 L11.355798,12.0645399 C11.1422481,11.8577648 11.1422481,11.5819586 11.2134588,11.3751835 L12.2813723,8.89348457 L9.71836341,8.89348457 C9.43360288,8.89348457 9.21997095,8.75566095 9.0776317,8.47993428 C8.93521042,8.20412817 9.00642106,7.99735302 9.14884235,7.79057788 L13.4204144,2.27572667 C13.5628357,2.06887209 13.8475962,2 14.1323568,2 C14.4171993,2.06887209 14.6307492,2.20677515 14.7019599,2.48250182 L18.973614,14.2015606 C19.0447426,14.3393842 19.0447426,14.4772873 18.973614,14.6151904 L17.9057004,17.6483426 C17.8344898,17.8551178 17.6208579,18.0618929 17.407308,18.1308444 C17.3360973,18.0618929 17.2648867,18.0618929 17.1937581,18.0618929 L17.1937581,18.0618929 Z" id="Fill-4"></path>
                <path d="M7.97126841,38.6985039 C10.4630666,39.2499572 13.0260755,39.6635869 15.5890844,39.8014106 L15.5890844,20.6374138 C15.5890844,20.5684623 15.5890844,20.4995108 15.660295,20.4306387 L16.6569979,17.6042616 L11.5309802,12.1583619 C11.3174303,11.9515867 11.3174303,11.6757806 11.3886409,11.4690055 L12.4565544,8.98730656 L9.89354557,8.98730656 C9.60878504,8.98730656 9.39515311,8.84948294 9.25281387,8.57375627 C9.11039258,8.29795016 9.18160322,8.09117501 9.32402451,7.88439987 L12.3141332,4.02398814 L11.8158227,4.09293967 C9.25281387,4.8512476 7.2594081,6.85036527 6.54746575,9.40093629 L1.35023737,27.737753 C1.27910877,27.9445281 1.35023737,28.1513827 1.42144801,28.2892063 C1.49265866,28.4271094 1.70620854,28.5650124 1.91984047,28.5650124 L4.76760987,28.9096906 C5.12358105,28.9785627 5.47955222,28.7028361 5.55068083,28.3581579 L9.18160322,14.2953826 C9.25281387,13.9507044 9.60878504,13.7438498 9.89354557,13.7438498 C10.2495167,13.7438498 10.5342773,14.0196559 10.5342773,14.3643341 L11.958162,25.3939571 L11.958162,25.6696838 L7.97126841,38.6985039 Z M16.3010267,41.2490749 L16.3010267,41.2490749 C13.1684968,41.1112513 10.1070955,40.6976215 7.18819746,39.9393136 L6.90343693,39.8703621 C6.689805,39.80149 6.54746575,39.7325385 6.47625511,39.5256839 C6.33383382,39.3878603 6.33383382,39.1810057 6.33383382,39.0431821 L10.6054879,25.3939571 L9.67999568,18.1557149 L6.97456553,28.7028361 C6.76101564,29.7368707 5.69310211,30.4262271 4.62518859,30.2884034 L1.84862983,29.9437252 C1.20789812,29.8747737 0.709505662,29.5300955 0.353534487,29.0475143 C-0.00243668863,28.5650124 -0.0736473316,27.9445281 0.0687739544,27.3930748 L5.2659203,9.05625809 C6.04907329,6.09205734 8.46966087,3.67930994 11.4598516,2.78317839 L13.9515677,2.02487047 C14.2364103,1.95591894 14.5923815,2.02487047 14.7347207,2.30059714 C14.877142,2.57632381 14.877142,2.85205048 14.7347207,3.12785659 L11.3174303,7.53972167 L13.4532573,7.53972167 C13.6668072,7.53972167 13.8804391,7.67754529 14.0227784,7.81544834 C14.1651997,7.95327196 14.1651997,8.22907807 14.093989,8.43585322 L12.8125256,11.4690055 L17.8672507,16.9149052 C18.009672,17.1216803 18.0808826,17.3285349 18.009672,17.6042616 L17.0129691,20.7753169 L17.0129691,40.5597185 C17.0129691,40.7665731 16.9417584,40.9043967 16.7993371,41.0422997 C16.6569979,41.1801234 16.5145766,41.2490749 16.3010267,41.2490749 L16.3010267,41.2490749 Z" id="Fill-5"></path>
                <path d="M14.5229512,2.27484435 L17.9403237,11.7189794 L21.3576141,2.27484435 L20.9304323,1.86121462 C20.5032505,1.3787128 18.9370266,1.3787128 17.9403237,1.3787128 C16.9435387,1.3787128 15.3773148,1.3787128 14.8789223,1.86121462 L14.5229512,2.27484435 Z M17.9403237,14.476405 C17.6554811,14.476405 17.3707206,14.2696298 17.2995099,13.9939032 L13.0279379,2.27484435 C12.9567272,1.99911767 13.0279379,1.723391 13.1702771,1.58548795 L13.8822195,0.896131546 C14.7365831,0.0689515275 16.2315964,0 17.9403237,0 C19.3642084,0 21.0728536,0 21.9983458,0.896131546 L22.7102882,1.58548795 C22.9238381,1.79234253 22.9950487,2.0680692 22.8527095,2.27484435 L18.5810554,13.9939032 C18.5098447,14.2696298 18.2250842,14.476405 17.9403237,14.476405 L17.9403237,14.476405 Z" id="Fill-7"></path>
                <path d="M18.8477694,25.3787128 L16.7119424,25.3787128 C16.2847605,25.3787128 16,25.1029861 16,24.6893564 C16,24.2757267 16.2847605,24 16.7119424,24 L18.8477694,24 C19.2748692,24 19.5597118,24.2757267 19.5597118,24.6893564 C19.5597118,25.1029861 19.2748692,25.3787128 18.8477694,25.3787128" id="Fill-8"></path>
                <path d="M18.7119424,25.7574256 C18.2847605,25.7574256 18,25.4816989 18,25.0680692 L18,23.6893564 C18,23.2757267 18.2847605,23 18.7119424,23 C19.1390421,23 19.4238847,23.2757267 19.4238847,23.6893564 L19.4238847,25.0680692 C19.4238847,25.4816989 19.1390421,25.7574256 18.7119424,25.7574256" id="Fill-9"></path>
                <path d="M18.8477694,30.3787128 L16.7119424,30.3787128 C16.2847605,30.3787128 16,30.1029067 16,29.6893564 C16,29.2757267 16.2847605,29 16.7119424,29 L18.8477694,29 C19.2748692,29 19.5597118,29.2757267 19.5597118,29.6893564 C19.5597118,30.1029067 19.2748692,30.3787128 18.8477694,30.3787128" id="Fill-10"></path>
                <path d="M18.7119424,31.7573462 C18.2847605,31.7573462 18,31.4816195 18,31.0680692 L18,29.6893564 C18,29.2757267 18.2847605,29 18.7119424,29 C19.1390421,29 19.4238847,29.2757267 19.4238847,29.6893564 L19.4238847,31.0680692 C19.4238847,31.4816195 19.1390421,31.7573462 18.7119424,31.7573462" id="Fill-11"></path>
            </g>
        </g>
    </g>
</svg>