<?xml version="1.0" encoding="UTF-8"?>
<svg width="16px" height="16px" viewBox="0 0 16 16" version="1.1" xmlns="http://www.w3.org/2000/svg" xmlns:xlink="http://www.w3.org/1999/xlink">
    <!-- Generator: Sketch 47.1 (45422) - http://www.bohemiancoding.com/sketch -->
    <title>tag</title>
    <desc>Created with Sketch.</desc>
    <defs></defs>
    <g id="Page-1" stroke="none" stroke-width="1" fill="none" fill-rule="evenodd" opacity="0.6">
        <g id="card" transform="translate(-1126.000000, -308.000000)" fill="#000000">
            <g id="tag" transform="translate(1126.000000, 308.000000)">
                <path d="M11.9327885,2.20305036 C10.9235842,2.20305036 10.0976631,3.03194245 10.0976631,4.04477698 C10.0976631,5.05784173 10.9235842,5.8865036 11.9327885,5.8865036 C12.9422222,5.8865036 13.767914,5.05784173 13.767914,4.04477698 C13.767914,3.03194245 12.9422222,2.20305036 11.9327885,2.20305036 Z M11.9327885,5.14998561 C11.3273118,5.14998561 10.8317706,4.65271942 10.8317706,4.04477698 C10.8317706,3.4371223 11.3273118,2.93979856 11.9327885,2.93979856 C12.538552,2.93979856 13.0340358,3.4371223 13.0340358,4.04477698 C13.0340358,4.65271942 12.538552,5.14998561 11.9327885,5.14998561 Z" id="Fill-1"></path>
                <path d="M14.1350538,0.0115107914 L9.18010036,0.0115107914 C8.68478853,0.0115107914 8.22600717,0.195625899 7.89562724,0.545669065 L0.536716846,7.89415827 C-0.178982079,8.61243165 -0.178982079,9.77277698 0.536716846,10.4908201 L5.45496774,15.4083453 C5.80352688,15.7583885 6.26230824,15.9425036 6.75784946,15.9425036 C7.25333333,15.9425036 7.7121147,15.7583885 8.06073118,15.4083453 L15.4195842,8.02296403 C15.7683728,7.69156835 15.9701792,7.23113669 15.9701792,6.75228777 L15.9701792,1.85323741 C15.9701792,0.840172662 15.1442581,0.0115107914 14.1350538,0.0115107914 Z M15.236129,6.75228777 C15.236129,7.02860432 15.1261362,7.30469065 14.9059211,7.48903597 L7.5286595,14.8926043 C7.32685305,15.0951367 7.05152688,15.2057554 6.75784946,15.2057554 C6.46417204,15.2057554 6.18907527,15.0951367 5.98698208,14.8926043 L1.05060932,9.97530935 C0.628587814,9.55176978 0.628587814,8.85191367 1.05060932,8.40989928 L8.40951971,1.06117986 C8.61132616,0.858647482 8.88665233,0.748258993 9.18010036,0.748258993 L14.1350538,0.748258993 C14.7405878,0.748258993 15.236129,1.24552518 15.236129,1.85323741 L15.236129,6.75228777 Z" id="Fill-3"></path>
            </g>
        </g>
    </g>
</svg>