<?xml version="1.0" encoding="UTF-8"?>
<svg width="27px" height="16px" viewBox="0 0 27 16" version="1.1" xmlns="http://www.w3.org/2000/svg" xmlns:xlink="http://www.w3.org/1999/xlink">
    <!-- Generator: Sketch 48.2 (47327) - http://www.bohemiancoding.com/sketch -->
    <title>eye (4)</title>
    <desc>Created with Sketch.</desc>
    <defs>
        <polygon id="path-1" points="0.00413265306 0.0599148936 26.936736 0.0599148936 26.936736 15.931983 0.00413265306 15.931983"></polygon>
    </defs>
    <g id="catalogue" stroke="none" stroke-width="1" fill="none" fill-rule="evenodd" transform="translate(-1023.000000, -762.000000)">
        <g id="Group-5" transform="translate(360.000000, 281.000000)">
            <g id="Group-6" transform="translate(409.000000, 0.000000)">
                <g id="eye-(4)" transform="translate(254.000000, 481.000000)">
                    <mask id="mask-2" fill="white">
                        <use xlink:href="#path-1"></use>
                    </mask>
                    <g id="Clip-2"></g>
                    <path d="M13.4682474,0.0599148936 C8.32178571,0.0599148936 3.65457398,2.84316596 0.210696429,7.36415319 C-0.070255102,7.7344 -0.070255102,8.25191489 0.210696429,8.62243404 C3.65457398,13.1484596 8.32178571,15.931983 13.4682474,15.931983 C18.6149847,15.931983 23.2819898,13.1484596 26.7258673,8.62774468 C27.0070255,8.25722553 27.0070255,7.73998298 26.7258673,7.36946383 C23.2819898,2.84316596 18.6149847,0.0599148936 13.4682474,0.0599148936 Z M13.8373622,13.5844085 C10.4212423,13.7969021 7.59994898,11.0133787 7.81491582,7.63091064 C7.99117347,4.8420766 10.2778393,2.58171915 13.0991327,2.40748936 C16.5155281,2.19499574 19.3365459,4.97824681 19.1218546,8.36098723 C18.939949,11.1442383 16.6532832,13.4045957 13.8373622,13.5844085 Z M13.6668214,11.0024851 C11.8262066,11.1168 10.3055281,9.61892766 10.4266148,7.79982979 C10.5202194,6.29664681 11.7546429,5.08200851 13.2753214,4.98382979 C15.1159362,4.86951489 16.6366148,6.36738723 16.5155281,8.18648511 C16.4162755,9.69531915 15.1821276,10.9098894 13.6668214,11.0024851 Z" id="Fill-1" fill="#FFFFFF" mask="url(#mask-2)"></path>
                </g>
            </g>
        </g>
    </g>
</svg>