<?xml version="1.0" encoding="UTF-8"?>
<svg width="30px" height="25px" viewBox="0 0 30 25" version="1.1" xmlns="http://www.w3.org/2000/svg" xmlns:xlink="http://www.w3.org/1999/xlink">
    <!-- Generator: Sketch 47.1 (45422) - http://www.bohemiancoding.com/sketch -->
    <title>like</title>
    <desc>Created with Sketch.</desc>
    <defs></defs>
    <g id="Page-1" stroke="none" stroke-width="1" fill="none" fill-rule="evenodd">
        <g id="main" transform="translate(-1186.000000, -27.000000)" fill="#FFFFFF">
            <g id="heart-shape-silhouette" transform="translate(1186.000000, 27.000000)">
                <path d="M27.8264103,2.00049505 C26.4112821,0.667326733 24.4561538,0 21.9602564,0 C21.2689744,0 20.5638462,0.116089109 19.845641,0.347277228 C19.1266667,0.578217822 18.4584615,0.890594059 17.8405128,1.28217822 C17.2215385,1.67475248 16.6907692,2.04405941 16.2441026,2.38737624 C15.7982051,2.73168317 15.375641,3.0980198 14.9738462,3.48490099 C14.5733333,3.0980198 14.1497436,2.73168317 13.7038462,2.38737624 C13.2582051,2.04405941 12.7264103,1.67574257 12.1084615,1.28217822 C11.4894872,0.88960396 10.8212821,0.578217822 10.1020513,0.347277228 C9.38410256,0.116089109 8.67897436,0 7.98871795,0 C5.49282051,0 3.53769231,0.667326733 2.12230769,2.00049505 C0.707179487,3.33391089 0,5.18465347 0,7.55049505 C0,8.27079208 0.131282051,9.01336634 0.392564103,9.77623762 C0.655128205,10.540099 0.952564103,11.1908416 1.28717949,11.7284653 C1.62153846,12.2660891 2.00025641,12.7910891 2.42384615,13.3017327 C2.84666667,13.8131188 3.15615385,14.165099 3.35128205,14.3584158 C3.54564103,14.5517327 3.69897436,14.6920792 3.81,14.7782178 L14.2387179,24.489604 C14.4389744,24.6839109 14.6846154,24.7806931 14.9738462,24.7806931 C15.264359,24.7806931 15.5087179,24.6839109 15.7102564,24.4905941 L26.1217949,14.809901 C28.6728205,12.3472772 29.9489744,9.92722772 29.9489744,7.55049505 C29.9489744,5.18465347 29.2407692,3.33391089 27.8264103,2.00049505 Z" id="like"></path>
            </g>
        </g>
    </g>
</svg>