<?xml version="1.0" encoding="UTF-8"?>
<svg width="15px" height="21px" viewBox="0 0 15 21" version="1.1" xmlns="http://www.w3.org/2000/svg" xmlns:xlink="http://www.w3.org/1999/xlink">
    <!-- Generator: Sketch 47.1 (45422) - http://www.bohemiancoding.com/sketch -->
    <title>location</title>
    <desc>Created with Sketch.</desc>
    <defs></defs>
    <g id="Symbols" stroke="none" stroke-width="1" fill="none" fill-rule="evenodd">
        <g id="footer" transform="translate(-120.000000, -295.000000)" fill="#FF8F5B">
            <g id="Group-9" transform="translate(0.000000, 10.000000)">
                <path d="M127.396755,296.17501 C125.344743,296.17501 123.675321,294.497028 123.675321,292.434503 C123.675321,290.372019 125.344783,288.694037 127.396755,288.694037 C129.448768,288.694037 131.11823,290.372019 131.11823,292.434503 C131.11823,294.497028 129.448768,296.17501 127.396755,296.17501 Z M127.396755,285 C123.31818,285 120,288.335114 120,292.434503 C120,297.521974 126.619407,304.990678 126.901234,305.306139 C127.165948,305.602475 127.628081,305.601994 127.892316,305.306139 C128.174144,304.990678 134.793551,297.521974 134.793551,292.434503 C134.793511,288.335114 131.47533,285 127.396755,285 L127.396755,285 Z" id="location"></path>
            </g>
        </g>
    </g>
</svg>