<?xml version="1.0" encoding="UTF-8"?>
<svg width="22px" height="16px" viewBox="0 0 22 16" version="1.1" xmlns="http://www.w3.org/2000/svg" xmlns:xlink="http://www.w3.org/1999/xlink">
    <!-- Generator: Sketch 47.1 (45422) - http://www.bohemiancoding.com/sketch -->
    <title>logout</title>
    <desc>Created with Sketch.</desc>
    <defs></defs>
    <g id="Page-1" stroke="none" stroke-width="1" fill="none" fill-rule="evenodd" opacity="0.597826087">
        <g id="orders" transform="translate(-140.000000, -367.000000)" fill="#000000">
            <g id="logout" transform="translate(140.000000, 367.000000)">
                <path d="M3.41408333,9.00215228 L15,9.00215228 C15.5520833,9.00215228 16,8.56584772 16,8.02753299 C16,7.48946193 15.5520833,7.05291371 15,7.05291371 L3.41408333,7.05291371 L4.707,5.79273096 C5.09766667,5.41230457 5.09766667,4.79528934 4.707,4.41453807 C4.31675,4.03386802 3.68358333,4.03386802 3.293,4.41453807 L0.293333333,7.33807107 C0.269833333,7.36097462 0.248083333,7.3844467 0.22725,7.40913706 C0.222333333,7.41514721 0.21775,7.42156345 0.212916667,7.42789848 C0.197583333,7.44657868 0.182583333,7.46566497 0.168916667,7.48564467 C0.165,7.49165482 0.16175,7.49766497 0.157916667,7.50367513 C0.143916667,7.52462944 0.1305,7.54558376 0.1185,7.56775635 C0.11625,7.57189848 0.11425,7.57669036 0.111666667,7.58107614 C0.09925,7.6048731 0.0869166667,7.62899492 0.0765,7.65409137 C0.0751666667,7.65693401 0.07425,7.66010152 0.0729166667,7.66326904 C0.0621666667,7.68958376 0.0520833333,7.71630457 0.0435833333,7.74351269 C0.0423333333,7.74700508 0.0416666667,7.75049746 0.0406666667,7.75398985 C0.0325833333,7.78095431 0.0254166667,7.80791878 0.0195,7.83585787 C0.0179166667,7.84414213 0.01725,7.85234518 0.0156666667,7.86095431 C0.0114166667,7.88377665 0.0075,7.90692386 0.00516666667,7.93039594 C0.00166666667,7.96247716 0,7.99480203 0,8.02753299 C0,8.06018274 0.00166666667,8.09250761 0.00516666667,8.12491371 C0.0075,8.14871066 0.01175,8.17185787 0.0156666667,8.19500508 C0.01725,8.20328934 0.0179166667,8.21149239 0.0195,8.21945178 C0.0254166667,8.24739086 0.0325833333,8.2746802 0.0406666667,8.30188832 C0.0416666667,8.30513706 0.0423333333,8.30830457 0.0433333333,8.31147208 C0.0520833333,8.33900508 0.0621666667,8.36605076 0.0729166667,8.39236548 C0.07425,8.39520812 0.0751666667,8.39837563 0.0765,8.40121827 C0.0869166667,8.42631472 0.09925,8.4506802 0.112,8.47447716 C0.11425,8.47894416 0.11625,8.48308629 0.1185,8.4875533 C0.1305,8.50972589 0.144166667,8.53100508 0.158166667,8.55195939 C0.16175,8.55764467 0.165,8.56365482 0.168916667,8.5693401 C0.182583333,8.58940102 0.197916667,8.60840609 0.212916667,8.62741117 C0.21775,8.63374619 0.222333333,8.64016244 0.22725,8.64617259 C0.248083333,8.67061929 0.269833333,8.69433503 0.293,8.71691371 L3.293,11.6404467 C3.48825,11.8308223 3.74416667,11.9260102 4,11.9260102 C4.25583333,11.9260102 4.51175,11.8308223 4.707,11.6404467 C5.09766667,11.2600203 5.09766667,10.6430051 4.707,10.2622538 L3.41408333,9.00215228 Z" id="Fill-1"></path>
                <path d="M13.82,0.0550659898 C11.0905,0.0550659898 8.55075,1.37486294 7.02633333,3.58521827 C6.71841667,4.03191878 6.84016667,4.63756345 7.2985,4.93798985 C7.75716667,5.23817259 8.37825,5.11951269 8.6865,4.67248731 C9.8385,3.00182741 11.7575,2.00430457 13.82,2.00430457 C17.2275,2.00430457 20,4.70643655 20,8.02753299 C20,11.3488731 17.2275,14.0506802 13.82,14.0506802 C11.7636667,14.0506802 9.84766667,13.0576244 8.69466667,11.394599 C8.38541667,10.948467 7.764,10.8311066 7.30633333,11.1325076 C6.84866667,11.4339086 6.72816667,12.0398782 7.03741667,12.4856041 C8.56283333,14.686132 11.0983333,15.9999188 13.82,15.9999188 C18.3304167,15.9999188 22,12.4237157 22,8.02753299 C22,3.63159391 18.3304167,0.0550659898 13.82,0.0550659898 Z" id="Fill-2"></path>
            </g>
        </g>
    </g>
</svg>