<?xml version="1.0" encoding="UTF-8"?>
<svg width="218px" height="71px" viewBox="0 0 218 71" version="1.1" xmlns="http://www.w3.org/2000/svg" xmlns:xlink="http://www.w3.org/1999/xlink">
    <!-- Generator: Sketch 47.1 (45422) - http://www.bohemiancoding.com/sketch -->
    <title>logo</title>
    <desc>Created with Sketch.</desc>
    <defs></defs>
    <g id="Page-1" stroke="none" stroke-width="1" fill="none" fill-rule="evenodd">
        <g id="main" transform="translate(-120.000000, -5.000000)" fill="#FFFFFF">
            <g id="Page-1" transform="translate(120.000000, 5.000000)">
                <path d="M183.151766,32.2435739 C178.398476,42.1214508 173.732386,50.1145406 173.129994,50.1145406 C172.697553,47.7067915 177.536264,31.4693069 181.592843,27.261719 C182.546704,26.3149011 183.497896,26.143235 184.793439,27.4289606 C184.273798,28.8916616 183.668737,30.5251437 183.151766,32.2435739 Z M10.3445894,51.3172648 C13.0228751,40.9190805 22.3550547,17.3804796 24.6008996,18.0662589 C24.1684588,16.8645966 21.4901731,15.1452815 19.7630792,14.2851815 C20.8833322,14.1179398 22.0071445,14.0294521 23.1318465,14.0294521 C34.4464914,14.0294521 36.5250547,21.1580176 34.7979608,28.6308 C32.2896261,39.8864296 21.2312424,51.3172648 10.3445894,51.3172648 Z M211.141186,22.3586181 C212.95548,21.3321613 216.931088,23.8257434 217.448949,24.7663671 C212.176909,36.7130853 203.796811,62.7426137 203.796811,70.9887782 C202.844729,71.0746113 198.094109,69.2694631 198.526549,66.9510866 C199.735782,59.9118937 201.809896,52.262136 203.796811,45.2176338 C201.633717,50.7144869 199.043521,56.2104551 197.056607,56.2104551 C195.934574,56.2104551 192.394966,54.8380116 191.616394,51.3170878 C191.3717,50.2932856 191.350345,48.9305758 191.477586,47.351956 C189.297586,51.3790292 186.880011,54.7530634 185.5729,54.7530634 C183.579758,54.7530634 179.954729,50.5428208 179.954729,48.7394424 C179.954729,47.4475227 180.040149,45.8166952 180.29908,44.0956103 C178.137766,49.8579264 175.204109,56.2104551 173.129994,56.2104551 C172.004402,56.2104551 168.463904,54.8380116 167.683553,51.3170878 C166.045439,44.269931 173.303504,19.1863356 180.818721,21.2445585 C182.719325,21.7630961 184.532729,22.9629887 186.088982,24.2522539 C186.867553,22.3586181 187.643456,21.1578406 188.074117,21.1578406 C190.148231,21.1578406 193.690509,22.875386 194.38188,23.9115764 C192.824737,26.3149011 188.161317,36.1963174 186.260713,48.1359566 C188.547488,45.5282255 191.227553,41.6356535 193.145064,38.3934659 C195.306378,30.0119153 198.840647,21.2127029 199.909292,21.1578406 C202.068827,21.0728924 205.523904,23.2187181 205.865586,23.9115764 C202.501268,29.1473909 196.626835,47.7067915 197.056607,50.1145406 C197.747978,50.1145406 203.45068,40.2295847 208.723611,28.8075983 C210.013815,24.9380332 210.968566,22.4506452 211.141186,22.3586181 Z M21.3166629,7.49729349 C32.1161159,7.49729349 40.9304343,16.9530842 40.9304343,27.6901762 C40.9304343,41.6906929 26.4997241,57.1565651 11.8972833,57.1565651 C1.18769959,57.1565651 -2.44088816,48.5688382 1.61925061,43.4135475 C0.66716898,46.506191 2.39693224,49.2546176 5.68205878,50.5429978 C5.33681796,49.5138864 5.07788735,48.5688382 5.07788735,47.8795194 C5.07788735,44.0108392 13.7996669,19.5271901 17.3455037,14.6311682 C10.259169,16.0080361 4.29575673,19.6112534 3.77611592,22.9631657 C3.34723429,22.6189487 0.322817959,16.2628805 2.48235265,13.7719531 C4.47104653,11.5385247 14.2321078,7.49729349 21.3166629,7.49729349 Z M56.6509037,14.2850045 C55.354471,14.2850045 52.9333363,11.7126684 52.9333363,10.5056968 C52.9333363,5.43623904 55.8714424,0.884434105 57.2577445,0.884434105 C59.0666996,0.884434105 61.4887241,2.68869738 62.1783159,3.6346304 C60.7101527,4.83540787 57.6012057,10.1632495 56.6509037,14.2850045 Z M118.166322,22.3582641 C119.981505,21.3326922 123.952664,23.8253894 124.474085,24.7668981 C119.201154,36.7136163 110.820167,62.7431447 110.820167,70.9884243 C109.869864,71.0751422 105.120134,69.269994 105.550795,66.9516175 C106.761807,59.9115397 108.832362,52.261782 110.820167,45.2172798 C108.660632,50.7141329 106.066877,56.210986 104.081742,56.210986 C102.95793,56.210986 99.4156522,54.8376576 98.64064,51.3176187 C96.9971869,44.2704619 105.203775,21.2442045 106.933538,21.1583715 C109.093073,21.0734234 112.54815,23.219249 112.894281,23.9121073 C109.521954,29.1479218 103.651081,47.7064376 104.081742,50.1141866 C104.774893,50.1141866 110.475816,40.2292308 115.747856,28.8072444 C117.04162,24.9376792 117.992811,22.4502913 118.166322,22.3582641 Z M168.293776,7.32828207 C170.5414,7.32828207 175.895302,12.2225342 175.551841,13.8560163 C170.108959,31.1261518 158.877065,57.0751565 153.517824,57.0751565 C151.44549,57.0751565 144.707065,52.7764262 144.531776,48.8245676 C144.361824,46.2486919 144.881465,41.0916315 145.660037,35.2514463 C141.510029,47.1070222 137.18918,57.0751565 133.646902,57.0751565 C131.576347,57.0751565 125.612045,52.7764262 125.351335,48.8245676 C124.921563,41.0916315 134.511784,7.07078299 136.412388,7.07078299 C138.138592,7.07078299 143.064502,10.2519142 143.496943,11.5385247 C139.693065,11.7933691 129.672184,50.1987808 131.404616,52.1738253 C136.240657,48.9086308 144.361824,30.4403725 148.680004,18.4989635 C149.803816,13.5162237 150.839539,9.90769719 151.53002,9.90769719 L151.703531,9.90769719 C153.689555,10.1634265 157.931212,13.1711219 158.359204,14.2851815 C156.113359,14.2851815 148.422853,50.1987808 150.147278,52.1738253 C156.5458,47.8795194 171.059261,9.04494256 168.293776,7.32828207 Z M83.223591,49.6917466 C88.8880318,47.9290725 92.7550849,47.782183 93.6947094,48.4803506 C94.7331012,49.337796 96.7707339,54.6647527 96.1638931,56.2106321 C94.3522686,53.8081923 85.3866849,53.2914244 77.782489,56.2106321 C75.5517706,56.2106321 73.5070196,51.3208043 74.8968808,49.3094799 L74.90044,49.3094799 C74.9102278,49.2970916 74.9155665,49.2705453 74.9306931,49.2546176 C74.9449298,49.2546176 74.9547176,49.2510781 74.9707339,49.2510781 C81.1601543,44.4426589 91.8875339,32.6127444 93.2284563,28.2556123 C89.4939829,30.4731129 85.2719012,30.5500972 83.4709543,29.8572389 C82.4245543,29.0042179 79.6537298,22.7074364 80.2436645,21.1580176 C82.9086033,22.8215855 90.823338,24.4179027 96.3044808,21.1580176 C96.3409624,21.1580176 96.3783339,21.1739453 96.4157053,21.1854487 C96.4521869,21.1712907 96.4895584,21.1580176 96.5278196,21.1580176 C99.311991,23.7684034 101.195689,25.2939305 100.914513,26.9212185 C99.9366278,32.6021259 91.6108073,44.177196 83.223591,49.6917466 Z M60.1761861,49.6917466 C65.8424065,47.9290725 69.7112392,47.782183 70.6508637,48.4803506 C71.6839167,49.337796 73.723329,54.6647527 73.1182678,56.2106321 C71.3066433,53.8081923 62.3375004,53.2914244 54.7359739,56.2106321 C53.3977208,56.2106321 52.1181943,54.4329151 51.6207984,52.5826382 C49.4176637,54.7957145 46.5258269,56.2106321 44.6385698,56.2106321 C42.7397453,56.2106321 39.3700882,52.003929 39.3700882,50.1987808 C39.5435984,41.2632975 46.8016637,21.1580176 48.3561371,21.1580176 C50.5138922,21.1580176 53.6263984,22.8746781 54.3195494,23.9117534 C52.7615167,26.3150781 47.7519657,37.0548247 45.5079004,49.1696694 C48.9345045,50.5084876 52.1404392,49.0112765 54.3364555,47.2309049 C60.5659167,41.6951173 69.0002922,32.0888975 70.1810514,28.2556123 C66.4483576,30.4731129 62.2244963,30.5500972 60.4262188,29.8572389 C59.378929,29.0042179 56.6081045,22.7074364 57.2015984,21.1580176 C59.8638678,22.8215855 67.7759331,24.4179027 73.2535167,21.1580176 C73.2962269,21.1580176 73.3273698,21.1739453 73.3683004,21.1854487 C73.4110106,21.1712907 73.4457127,21.1580176 73.4813045,21.1580176 C76.2690351,23.7684034 78.1509535,25.2939305 77.8715576,26.9212185 C76.8936718,32.6021259 68.5634024,44.177196 60.1761861,49.6917466 Z" id="logo"></path>
            </g>
        </g>
    </g>
</svg>