<?xml version="1.0" encoding="UTF-8"?>
<svg width="16px" height="14px" viewBox="0 0 16 14" version="1.1" xmlns="http://www.w3.org/2000/svg" xmlns:xlink="http://www.w3.org/1999/xlink">
    <!-- Generator: Sketch 47.1 (45422) - http://www.bohemiancoding.com/sketch -->
    <title>mail</title>
    <desc>Created with Sketch.</desc>
    <defs></defs>
    <g id="Symbols" stroke="none" stroke-width="1" fill="none" fill-rule="evenodd">
        <g id="footer" transform="translate(-120.000000, -404.000000)" fill="#FF8F5B">
            <g id="Group-9" transform="translate(0.000000, 10.000000)">
                <g id="mail" transform="translate(120.000000, 394.000000)">
                    <path d="M1.53312821,3.8804686 C1.73511111,4.0223905 2.34406838,4.44339372 3.36,5.14388647 C4.37661538,5.84492351 5.15487179,6.38444444 5.69545299,6.76244928 C5.75480342,6.80381481 5.8814359,6.89416586 6.07425641,7.03295813 C6.26762393,7.17215862 6.42789744,7.284281 6.55562393,7.36986957 C6.68321368,7.45600242 6.83760684,7.55166023 7.01921368,7.65847585 C7.2002735,7.76488325 7.37121368,7.84462077 7.53148718,7.89768841 C7.69230769,7.95089211 7.84082051,7.97742593 7.97757265,7.97742593 L7.99521368,7.97742593 C8.13196581,7.97742593 8.28047863,7.95089211 8.44129915,7.89768841 C8.6014359,7.84462077 8.77237607,7.76433897 8.95357265,7.65847585 C9.13463248,7.55166023 9.28902564,7.45600242 9.41716239,7.36986957 C9.54488889,7.284281 9.70516239,7.17215862 9.89798291,7.03295813 C10.0913504,6.89416586 10.2179829,6.80381481 10.2771966,6.76244928 C10.8236581,6.38390016 12.2141538,5.42351208 14.4486838,3.87992432 C14.8824615,3.57852738 15.2447179,3.21494605 15.5357265,2.78918035 C15.8268718,2.36341465 15.9727863,1.91751047 15.9727863,1.45024316 C15.9727863,1.06012802 15.8312479,0.725801932 15.5491282,0.447809179 C15.2671453,0.169816425 14.9326496,0.0311602254 14.5464615,0.0311602254 L1.42632479,0.0311602254 C0.968478632,0.0311602254 0.616478632,0.184784219 0.369641026,0.492440419 C0.123350427,0.799688406 0,1.1839525 0,1.64536876 C0,2.01793076 0.163418803,2.42138084 0.490393162,2.85626329 C0.816820513,3.29046538 1.1645812,3.63227536 1.53312821,3.8804686 Z" id="Fill-1"></path>
                    <path d="M15.0811624,5.82929066 C13.1324444,7.14155797 11.6527863,8.16154509 10.6425983,8.88870773 C10.304,9.13744525 10.0288547,9.330938 9.81784615,9.4695942 C9.60738462,9.60893076 9.32635897,9.75085266 8.976,9.8953599 C8.62495726,10.0405475 8.29866667,10.1128011 7.99521368,10.1128011 L7.97757265,10.1128011 C7.67411966,10.1128011 7.34728205,10.0405475 6.99678632,9.8953599 C6.64642735,9.75085266 6.36540171,9.60893076 6.15439316,9.4695942 C5.94393162,9.330938 5.66878632,9.13744525 5.33018803,8.88870773 C4.5277265,8.30346699 3.05121368,7.28347987 0.900102564,5.82929066 C0.561367521,5.60436554 0.261196581,5.34719163 0,5.05749678 L0,12.0991634 C0,12.4898229 0.139487179,12.8236047 0.418735043,13.1015974 C0.698119658,13.3795902 1.03411966,13.5182464 1.42632479,13.5182464 L14.5464615,13.5182464 C14.9385299,13.5182464 15.2745299,13.3795902 15.5539145,13.1015974 C15.8332991,12.8236047 15.9727863,12.4898229 15.9727863,12.0991634 L15.9727863,5.05749678 C15.7169231,5.34134058 15.4198974,5.59851449 15.0811624,5.82929066 Z" id="Fill-3"></path>
                </g>
            </g>
        </g>
    </g>
</svg>