<?xml version="1.0" encoding="UTF-8"?>
<svg width="14px" height="14px" viewBox="0 0 14 14" version="1.1" xmlns="http://www.w3.org/2000/svg" xmlns:xlink="http://www.w3.org/1999/xlink">
    <!-- Generator: Sketch 47.1 (45422) - http://www.bohemiancoding.com/sketch -->
    <title>phone</title>
    <desc>Created with Sketch.</desc>
    <defs></defs>
    <g id="Symbols" stroke="none" stroke-width="1" fill="none" fill-rule="evenodd">
        <g id="footer" transform="translate(-120.000000, -357.000000)" fill="#FF8F5B">
            <g id="Group-9" transform="translate(0.000000, 10.000000)">
                <g id="phone" transform="translate(120.000000, 347.000000)">
                    <path d="M13.4734783,11.1251304 L11.3451739,8.99591304 C10.920913,8.57378261 10.2193913,8.58686957 9.78082609,9.02573913 L8.70830435,10.0979565 C8.64073913,10.0611304 8.57043478,10.0218696 8.49678261,9.98047826 C7.819,9.6046087 6.89286957,9.09117391 5.91682609,8.11513043 C4.93865217,7.13665217 4.42369565,6.20808696 4.04813043,5.53030435 C4.00765217,5.45908696 3.9696087,5.39030435 3.93278261,5.32365217 L4.65195652,4.6053913 L5.00621739,4.25113043 C5.44508696,3.81134783 5.45817391,3.10982609 5.03482609,2.68678261 L2.9056087,0.557565217 C2.48347826,0.134217391 1.78104348,0.147304348 1.34095652,0.587086957 L0.742,1.19 L0.757217391,1.20643478 C0.556347826,1.46330435 0.388652174,1.75943478 0.263869565,2.07808696 C0.148521739,2.38243478 0.0760869565,2.67247826 0.0441304348,2.96252174 C-0.237695652,5.2926087 0.827521739,7.42182609 3.7163913,10.311913 C7.71095652,14.3052609 10.9303478,14.0045652 11.0694348,13.9890435 C11.3713478,13.9534348 11.6613913,13.881 11.9563043,13.7668696 C12.2725217,13.6433043 12.5686522,13.4756087 12.8243043,13.2747391 L12.8373913,13.2866087 L13.446087,12.691 C13.8834348,12.250913 13.8965217,11.5496957 13.4734783,11.1251304 Z"></path>
                </g>
            </g>
        </g>
    </g>
</svg>