<?xml version="1.0" encoding="UTF-8"?>
<svg width="40px" height="40px" viewBox="0 0 40 40" version="1.1" xmlns="http://www.w3.org/2000/svg" xmlns:xlink="http://www.w3.org/1999/xlink">
    <!-- Generator: Sketch 47.1 (45422) - http://www.bohemiancoding.com/sketch -->
    <title>rain</title>
    <desc>Created with Sketch.</desc>
    <defs></defs>
    <g id="Symbols" stroke="none" stroke-width="1" fill="none" fill-rule="evenodd" opacity="0.2">
        <g id="menu_dropdown" transform="translate(-320.000000, -20.000000)" fill="#000000">
            <g id="umbrella" transform="translate(320.000000, 20.000000)">
                <path d="M21.1458228,2.69620253 L21.1458228,1.23257384 C21.1458228,0.527932489 20.6757806,0.057721519 19.9709705,0.057721519 C19.2661603,0.057721519 18.7961181,0.527932489 18.7961181,1.23257384 L18.7961181,2.69890295 C8.30565401,3.2764557 0,11.4646414 0,21.2035443 C0,21.9083544 0.470042194,22.3783966 1.17485232,22.3783966 C1.87966245,22.3783966 2.34970464,21.9083544 2.34970464,21.2035443 C2.34970464,19.7940928 3.52455696,18.6192405 4.93400844,18.6192405 C6.34362869,18.6192405 7.51848101,19.7940928 7.51848101,21.2035443 C7.51848101,21.9083544 7.98852321,22.3783966 8.69333333,22.3783966 C9.39814346,22.3783966 9.86818565,21.9083544 9.86818565,21.2035443 C9.86818565,19.7940928 11.043038,18.6192405 12.4524895,18.6192405 C13.8621097,18.6192405 15.036962,19.7940928 15.036962,21.2035443 C15.036962,21.9083544 15.5070042,22.3783966 16.2118143,22.3783966 C16.9164557,22.3783966 17.3866667,21.9083544 17.3866667,21.2035443 C17.3866667,20.1883544 18.0069198,19.3147679 18.8712236,18.8941772 C18.8264979,19.0253165 18.7961181,19.1664135 18.7961181,19.3240506 L18.7961181,36.0059072 C18.7961181,36.9453165 18.091308,37.6508017 17.1518987,37.6508017 C16.2118143,37.6508017 15.5070042,36.9459916 15.5070042,36.0059072 L15.5070042,33.8914768 C15.5070042,33.1866667 15.036962,32.7166245 14.3321519,32.7166245 C13.6273418,32.7166245 13.1572996,33.1861603 13.1572996,33.8914768 L13.1572996,36.0059072 C13.1572996,38.1201688 15.036962,39.9998312 17.1512236,39.9998312 C19.2661603,39.9998312 21.1458228,38.1201688 21.1458228,36.0059072 L21.1458228,19.3240506 C21.1458228,19.1664135 21.1147679,19.0253165 21.0707173,18.8941772 C21.9375527,19.3147679 22.555443,20.1908861 22.555443,21.2035443 C22.555443,21.9083544 23.0254852,22.3783966 23.7302954,22.3783966 C24.4349367,22.3783966 24.9049789,21.9083544 24.9049789,21.2035443 C24.9049789,19.7934177 26.0798312,18.6192405 27.4894515,18.6192405 C28.8990717,18.6192405 30.0739241,19.7940928 30.0739241,21.2035443 C30.0739241,21.9083544 30.5439662,22.3783966 31.2486076,22.3783966 C31.9534177,22.3783966 32.4234599,21.9083544 32.4234599,21.2035443 C32.4234599,19.7934177 33.5983122,18.6192405 35.0079325,18.6192405 C36.417384,18.6192405 37.5922363,19.7940928 37.5922363,21.2035443 C37.5922363,21.9083544 38.0624473,22.3783966 38.7670886,22.3783966 C39.4718987,22.3783966 39.9419409,21.9083544 39.9419409,21.2035443 C39.9419409,11.2366245 31.6362869,3.2578903 21.1458228,2.69620253 Z M35.0079325,16.2695359 C33.5983122,16.2695359 32.1888608,16.7395781 31.2486076,17.9144304 C30.3091983,16.974346 28.8990717,16.2695359 27.4894515,16.2695359 C26.0798312,16.2695359 24.6697046,16.7395781 23.7302954,17.9144304 C22.7907173,16.974346 21.3805907,16.2695359 19.9709705,16.2695359 C18.561519,16.2695359 17.1512236,16.7395781 16.2118143,17.9144304 C15.2722363,16.974346 13.8621097,16.2695359 12.4524895,16.2695359 C11.043038,16.2695359 9.63274262,16.7395781 8.69333333,17.9144304 C7.75324895,16.974346 6.34362869,16.2695359 4.93400844,16.2695359 C4.27156118,16.2695359 3.65316456,16.3940928 3.08945148,16.6104641 C5.26767932,9.90936709 12.0602532,4.99189873 19.9709705,4.99189873 C27.8816878,4.99189873 34.6742616,9.90683544 36.8526582,16.6104641 C36.28827,16.3940928 35.6705485,16.2695359 35.0079325,16.2695359 Z" id="rain"></path>
            </g>
        </g>
    </g>
</svg>