<?xml version="1.0" encoding="UTF-8"?>
<svg width="16px" height="17px" viewBox="0 0 16 17" version="1.1" xmlns="http://www.w3.org/2000/svg" xmlns:xlink="http://www.w3.org/1999/xlink">
    <!-- Generator: Sketch 47.1 (45422) - http://www.bohemiancoding.com/sketch -->
    <title>search</title>
    <desc>Created with Sketch.</desc>
    <defs></defs>
    <g id="Page-1" stroke="none" stroke-width="1" fill="none" fill-rule="evenodd">
      <path d="M7,13 C10.3137085,13 13,10.3137085 13,7 C13,3.6862915 10.3137085,1 7,1 C3.6862915,1 1,3.6862915 1,7 C1,10.3137085 3.6862915,13 7,13 Z M12.2071068,13.2071068 L12.9142136,12.5 L11.5,12.5 L11.8535534,12.8535534 L11.5,12.5 L11.5,13.9142136 L12.2071068,13.2071068 L13,14 L12.2071068,13.2071068 Z M14.5,15.5 L14.5,14.0857864 L13.7928932,14.7928932 L13,14 L13.7928932,14.7928932 L13.0857864,15.5 L14.5,15.5 Z"></path>
    </g>
</svg>
