<?xml version="1.0" encoding="UTF-8"?>
<svg width="44px" height="41px" viewBox="0 0 44 41" version="1.1" xmlns="http://www.w3.org/2000/svg" xmlns:xlink="http://www.w3.org/1999/xlink">
    <!-- Generator: Sketch 47.1 (45422) - http://www.bohemiancoding.com/sketch -->
    <title>sewing-machine</title>
    <desc>Created with Sketch.</desc>
    <defs></defs>
    <g id="Page-1" stroke="none" stroke-width="1" fill="none" fill-rule="evenodd">
        <g id="main" transform="translate(-120.000000, -1660.000000)" fill="#000000">
            <g id="sewing-machine" transform="translate(120.000000, 1660.000000)">
                <path d="M23.4859606,34.8709787 L37.0830508,34.8709787 L37.0830508,21.7986383 L37.0830508,21.1450213 C36.8649153,17.8042553 35.192514,14.7540426 32.3567513,12.7931915 C29.4483051,10.7597447 25.8126835,10.1061277 22.3952826,11.1228936 L14.7605369,13.3742128 C13.7425424,13.6646809 12.7245479,13.8099574 11.6338699,13.8099574 L11.1249153,13.8099574 C9.45251397,13.8099574 7.85288136,13.3742128 6.39861566,12.5027234 C5.52607329,11.994383 4.87166651,11.2680851 4.21725973,10.1787234 C3.92644068,9.74297872 3.49016949,9.45251064 2.98121484,9.45251064 C2.18135593,9.45251064 1.52694915,10.1061277 1.52694915,10.9050213 L1.52694915,27.6085106 C1.52694915,28.4074043 2.18135593,29.0610213 2.98121484,29.0610213 C3.78098855,29.0610213 4.43539533,28.4074043 4.43539533,27.6085106 L4.43539533,26.1560851 C4.43539533,23.3237447 6.68951993,21.0723404 9.52528264,21.0723404 L19.7048869,21.0723404 C20.7228814,21.0723404 21.7408759,21.3628936 22.6134182,21.871234 C24.7220055,23.1058723 25.8126835,25.7203404 25.1582767,28.2621277 L23.4859606,34.8709787 Z M38.5373165,36.3234043 L21.5954237,36.3234043 L23.7040962,27.8990638 C24.2130508,26.0108085 23.4131919,24.0499574 21.8135593,23.1058723 C21.1591525,22.7427234 20.3592936,22.5248511 19.6322034,22.5248511 L9.45251397,22.5248511 C7.41661017,22.5248511 5.81697756,24.1225532 5.81697756,26.1560851 L5.81697756,27.6085106 C5.81697756,29.2062979 4.508164,30.5135319 2.90844617,30.5135319 C1.30881356,30.5135319 0,29.2062979 0,27.6085106 L0,10.9050213 C0,9.30723404 1.30881356,8 2.90844617,8 C3.92644068,8 4.87166651,8.58102128 5.45338983,9.45251064 C5.96234448,10.324 6.47138434,10.9050213 7.12579111,11.2680851 C8.28915254,11.994383 9.67064956,12.3574468 11.1249153,12.3574468 L11.6338699,12.3574468 C12.5791809,12.3574468 13.4517233,12.2122553 14.3242657,11.994383 L21.9590115,9.74297872 C25.8126835,8.58102128 29.8845763,9.30723404 33.2292936,11.631234 C36.3559606,13.8825532 38.3191809,17.2959149 38.5373165,21.0723404 L38.5373165,21.871234 L38.5373165,36.3234043 L38.5373165,36.3234043 Z" id="Fill-1"></path>
                <path d="M2.90844617,36.4524255 C2.10867247,36.4524255 1.45426569,37.1060426 1.45426569,37.9049362 C1.45426569,38.7038298 2.10867247,39.3574468 2.90844617,39.3574468 L40.7186725,39.3574468 C41.5184462,39.3574468 42.172853,38.7038298 42.172853,37.9049362 C42.172853,37.1060426 41.5184462,36.4524255 40.7186725,36.4524255 L2.90844617,36.4524255 Z M40.7186725,40.8098723 L2.90844617,40.8098723 C1.30881356,40.8098723 0,39.5026383 0,37.9049362 C0,36.307234 1.30881356,35 2.90844617,35 L40.7186725,35 C42.3183051,35 43.6271186,36.307234 43.6271186,37.9049362 C43.6271186,39.5026383 42.3183051,40.8098723 40.7186725,40.8098723 L40.7186725,40.8098723 Z" id="Fill-3"></path>
                <path d="M2.72709024,33.3574468 C2.29081905,33.3574468 2,33.0669787 2,32.631234 L2,29.7262128 C2,29.2904681 2.29081905,29 2.72709024,29 C3.16336143,29 3.45426569,29.2904681 3.45426569,29.7262128 L3.45426569,32.631234 C3.45426569,33.0669787 3.16336143,33.3574468 2.72709024,33.3574468" id="Fill-5"></path>
                <path d="M25.7270902,10.0836596 C25.2908191,10.0836596 25,9.79319149 25,9.35744681 L25,5.72621277 C25,5.29046809 25.2908191,5 25.7270902,5 C26.1633614,5 26.4541805,5.29046809 26.4541805,5.72621277 L26.4541805,9.35744681 C26.4541805,9.79319149 26.1633614,10.0836596 25.7270902,10.0836596" id="Fill-6"></path>
                <path d="M29.4542657,30.7262128 C29.4542657,31.1619574 29.1633614,31.4524255 28.7270902,31.4524255 C28.2908191,31.4524255 28,31.1619574 28,30.7262128 C28,30.2904681 28.2908191,30 28.7270902,30 C29.1633614,30 29.4542657,30.2904681 29.4542657,30.7262128" id="Fill-7"></path>
                <path d="M29.4542657,18.7262128 C29.4542657,19.1619574 29.1633614,19.4525106 28.7270902,19.4525106 C28.2908191,19.4525106 28,19.1619574 28,18.7262128 C28,18.2904681 28.2908191,18 28.7270902,18 C29.1633614,18 29.4542657,18.2904681 29.4542657,18.7262128" id="Fill-8"></path>
                <path d="M32.4542657,30.7262128 C32.4542657,31.1619574 32.1634466,31.4524255 31.7271755,31.4524255 C31.2909043,31.4524255 31,31.1619574 31,30.7262128 C31,30.2904681 31.2909043,30 31.7271755,30 C32.1634466,30 32.4542657,30.2904681 32.4542657,30.7262128" id="Fill-9"></path>
                <path d="M25.4542657,4.35744681 L26.9084462,4.35744681 L26.9084462,1.45251064 L25.4542657,1.45251064 L25.4542657,4.35744681 Z M27.6356216,5.80995745 L24.7270902,5.80995745 C24.2908191,5.80995745 24,5.51940426 24,5.08365957 L24,0.726212766 C24,0.290468085 24.2908191,0 24.7270902,0 L27.6356216,0 C28.0718928,0 28.3627119,0.290468085 28.3627119,0.726212766 L28.3627119,5.08365957 C28.3627119,5.51940426 28.0718928,5.80995745 27.6356216,5.80995745 L27.6356216,5.80995745 Z" id="Fill-10"></path>
                <path d="M29.5440678,1.45251064 L23.7271755,1.45251064 C23.2909043,1.45251064 23,1.16195745 23,0.726212766 C23,0.290468085 23.2909043,0 23.7271755,0 L29.5440678,0 C29.980339,0 30.2712432,0.290468085 30.2712432,0.726212766 C30.2712432,1.16195745 29.980339,1.45251064 29.5440678,1.45251064" id="Fill-11"></path>
                <path d="M29.5440678,6.45251064 L23.7271755,6.45251064 C23.2909043,6.45251064 23,6.16195745 23,5.72621277 C23,5.29046809 23.2909043,5 23.7271755,5 L29.5440678,5 C29.980339,5 30.2712432,5.29046809 30.2712432,5.72621277 C30.2712432,6.16195745 29.980339,6.45251064 29.5440678,6.45251064" id="Fill-12"></path>
                <path d="M39.9084462,26.4525106 L37.7270902,26.4525106 C37.2908191,26.4525106 37,26.1620426 37,25.7262979 C37,25.2905532 37.2908191,25 37.7270902,25 L39.9084462,25 C40.3447174,25 40.6356216,25.2905532 40.6356216,25.7262979 C40.6356216,26.1620426 40.3447174,26.4525106 39.9084462,26.4525106" id="Fill-13"></path>
                <path d="M41.1813559,20.4524255 C40.7450847,20.4524255 40.4542657,20.7429787 40.4542657,21.1787234 L40.4542657,29.893617 C40.4542657,30.3293617 40.7450847,30.6198298 41.1813559,30.6198298 C41.6176271,30.6198298 41.9084462,30.3293617 41.9084462,29.893617 L41.9084462,21.1787234 C41.9084462,20.7429787 41.6176271,20.4524255 41.1813559,20.4524255 Z M41.1813559,32.0723404 C39.9452258,32.0723404 39,31.1281702 39,29.893617 L39,21.1787234 C39,19.9440851 39.9452258,19 41.1813559,19 C42.417486,19 43.3627119,19.9440851 43.3627119,21.1787234 L43.3627119,29.893617 C43.3627119,31.1281702 42.417486,32.0723404 41.1813559,32.0723404 L41.1813559,32.0723404 Z" id="Fill-14"></path>
                <path d="M28.6355364,16.4524255 C27.3994915,16.4524255 26.4541805,17.3965957 26.4541805,18.6311489 C26.4541805,19.8657872 27.3994915,20.8098723 28.6355364,20.8098723 C29.8716665,20.8098723 30.8168923,19.8657872 30.8168923,18.6311489 C30.8168923,17.3965957 29.8716665,16.4524255 28.6355364,16.4524255 Z M28.6355364,22.262383 C26.5996326,22.262383 25,20.6646809 25,18.6311489 C25,16.5977021 26.5996326,15 28.6355364,15 C30.6715254,15 32.271158,16.5977021 32.271158,18.6311489 C32.271158,20.6646809 30.6715254,22.262383 28.6355364,22.262383 L28.6355364,22.262383 Z" id="Fill-15"></path>
                <path d="M14.0898873,16.4524255 L9.72717545,16.4524255 C9.29090426,16.4524255 9,16.1619574 9,15.7262128 C9,15.2904681 9.29090426,15 9.72717545,15 L14.0898873,15 C14.5261585,15 14.8169776,15.2904681 14.8169776,15.7262128 C14.8169776,16.1619574 14.5261585,16.4524255 14.0898873,16.4524255" id="Fill-16"></path>
                <path d="M16.9983335,19.4525106 L9.72717545,19.4525106 C9.29090426,19.4525106 9,19.1619574 9,18.7262128 C9,18.2904681 9.29090426,18 9.72717545,18 L16.9983335,18 C17.4346047,18 17.7254237,18.2904681 17.7254237,18.7262128 C17.7254237,19.1619574 17.4346047,19.4525106 16.9983335,19.4525106" id="Fill-17"></path>
                <polygon id="Fill-18" points="40 23.4525106 42.9085314 23.4525106 42.9085314 22 40 22"></polygon>
                <polygon id="Fill-19" points="40 26.4525106 42.9085314 26.4525106 42.9085314 25 40 25"></polygon>
                <polygon id="Fill-20" points="40 29.4524255 42.9085314 29.4524255 42.9085314 28 40 28"></polygon>
            </g>
        </g>
    </g>
</svg>