<?xml version="1.0" encoding="UTF-8"?>
<svg width="17px" height="17px" viewBox="0 0 17 17" version="1.1" xmlns="http://www.w3.org/2000/svg" xmlns:xlink="http://www.w3.org/1999/xlink">
    <!-- Generator: Sketch 47.1 (45422) - http://www.bohemiancoding.com/sketch -->
    <title>Fill 1</title>
    <desc>Created with Sketch.</desc>
    <defs></defs>
    <g id="Page-1" stroke="none" stroke-width="1" fill="none" fill-rule="evenodd" opacity="0.6">
        <g id="card" transform="translate(-1152.000000, -477.000000)" fill="#000000">
            <path d="M1157.87594,483.509173 L1159.18143,484.810764 L1159.83415,484.159943 L1158.52871,482.858403 L1157.87594,483.509173 Z M1159.18143,482.20743 L1161.13979,484.159943 L1161.79256,483.509173 L1159.83415,481.55666 L1159.18143,482.20743 Z M1162.44625,478.952513 L1161.79353,479.603284 L1163.09896,480.904875 L1163.75173,480.254104 L1162.44625,478.952513 Z M1163.09896,477 L1152,488.065833 L1157.87594,493.924236 L1168.97496,482.858403 L1163.09896,477 Z M1153.30564,488.065833 L1153.95841,487.415063 L1155.26385,488.716603 L1155.91657,488.065833 L1154.61113,486.764293 L1155.26487,486.113472 L1157.22302,488.065833 L1157.87574,487.415063 L1155.91758,485.461534 L1156.5703,484.810764 L1157.87594,486.113319 L1158.52871,485.462499 L1157.22302,484.159943 L1161.00023,480.394012 L1160.48687,480.905839 L1161.79256,482.207633 L1162.44528,481.55666 L1161.13979,480.254104 L1163.098,478.301743 L1167.6683,482.858403 L1157.87594,492.622493 L1153.30564,488.065833 Z" id="Fill-1"></path>
        </g>
    </g>
</svg>