<?xml version="1.0" encoding="UTF-8"?>
<svg width="36px" height="40px" viewBox="0 0 36 40" version="1.1" xmlns="http://www.w3.org/2000/svg" xmlns:xlink="http://www.w3.org/1999/xlink">
    <!-- Generator: Sketch 47.1 (45422) - http://www.bohemiancoding.com/sketch -->
    <title>snow</title>
    <desc>Created with Sketch.</desc>
    <defs></defs>
    <g id="Symbols" stroke="none" stroke-width="1" fill="none" fill-rule="evenodd">
        <g id="menu_dropdown" transform="translate(-120.000000, -20.000000)" fill="#C1C1C1">
            <g id="snowflake" transform="translate(120.000000, 20.000000)">
                <path d="M35.7904528,23.6884034 C35.3173585,22.9867227 34.6083962,22.9867227 34.1354717,23.2203361 L30.0885283,25.4242017 L20.3819434,19.8957983 L29.8828868,14.4842017 L33.8992642,16.6697479 C33.8992642,16.9033613 34.1359811,16.9033613 34.3721887,16.9033613 C34.8451132,16.9033613 35.3173585,16.6697479 35.3173585,16.4352941 C35.5542453,15.7334454 35.3173585,15.0317647 34.8451132,14.7979832 L32.1169245,13.2092437 L35.079283,11.5226891 C35.7884151,11.0544538 35.7884151,10.3527731 35.5515283,9.88470588 C35.079283,9.18285714 34.3694717,9.18285714 33.8972264,9.41647059 L30.8241509,11.1667227 L30.8241509,7.77848739 C30.8241509,7.07680672 30.3510566,6.60857143 29.6420943,6.60857143 C28.9329623,6.60857143 28.4600377,7.07680672 28.4600377,7.77848739 L28.4600377,12.5139496 L19.0042642,17.9 L19.0042642,6.56201681 L22.7866415,4.50319328 C23.4956038,4.03512605 23.4956038,3.33327731 23.2588868,2.86521008 C22.7866415,2.16336134 22.0768302,2.16336134 21.6045849,2.39781513 L19.0042642,3.91159664 L19.0042642,1.22789916 C19.0042642,0.52605042 18.5313396,0.0579831933 17.8222075,0.0579831933 C17.1130755,0.0579831933 16.6401509,0.52605042 16.6401509,1.22789916 L16.6401509,4.18739496 L13.5670755,2.39781513 C12.8579434,2.16403361 12.1488113,2.39781513 11.9119245,2.86588235 C11.6758868,3.56773109 11.9119245,4.26941176 12.3850189,4.50319328 L16.6401509,6.81932773 L16.6401509,17.7647059 L7.18454717,12.3786555 L7.18454717,7.54487395 C7.18454717,6.84302521 6.71145283,6.37495798 6.00249057,6.37495798 C5.29335849,6.37495798 4.82043396,6.84302521 4.82043396,7.54487395 L4.82043396,11.0334454 L1.98407547,9.41647059 C1.2749434,9.18285714 0.565811321,9.41647059 0.32909434,9.88470588 C0.0928867925,10.5863866 0.32909434,11.2882353 0.802018868,11.5220168 L3.44258491,13.0267227 L0.802018868,14.5635294 C0.0928867925,15.0317647 0.0928867925,15.7334454 0.32909434,16.2015126 C0.565811321,16.6697479 0.802018868,16.9033613 1.2749434,16.9033613 C1.2749434,16.9033613 1.51098113,16.9033613 1.74718868,16.4352941 L5.67407547,14.2969748 L15.5005472,19.8937815 L6.00503774,25.3028571 L1.74718868,22.9840336 C1.0380566,22.7502521 0.32909434,22.7502521 0.0928867925,23.4521008 C-0.144,24.1539496 0.0928867925,24.8557983 0.565811321,25.090084 L3.44003774,26.7628571 L1.04077358,28.1337815 C0.331641509,28.6018487 0.331641509,29.3036975 0.567849057,29.7717647 C0.803886792,30.2391597 1.04077358,30.4734454 1.51301887,30.4734454 C1.74990566,30.4734454 1.74990566,30.4734454 2.22215094,30.2391597 L4.58626415,28.8919328 L4.58626415,32.1115966 C4.58626415,32.8132773 5.05918868,33.2808403 5.76832075,33.2808403 C6.47745283,33.2808403 6.95037736,32.8132773 7.18641509,31.8771429 L7.18641509,27.4109244 L16.6428679,22.0248739 L16.6428679,33.0936134 L12.8604906,35.152437 C12.1508491,35.6205042 12.1508491,36.3223529 12.387566,36.7904202 C12.8604906,37.4922689 13.5696226,37.4922689 14.0418679,37.2586555 L16.6428679,35.7447059 L16.6428679,38.6621849 C16.6428679,39.3640336 17.1151132,39.8321008 17.8249245,39.8321008 C18.5340566,39.8321008 19.0063019,39.3640336 19.0063019,38.6621849 L19.0063019,35.4682353 L22.0793774,37.2586555 C22.0793774,37.4922689 22.3162642,37.4922689 22.5524717,37.4922689 C22.7885094,37.4922689 23.261434,37.2586555 23.970566,36.7904202 C24.2074528,36.0887395 23.970566,35.3868908 23.4983208,35.152437 L19.0063019,32.707563 L19.0063019,21.8915966 L28.6987925,27.4129412 L28.6987925,32.1134454 C28.6987925,32.8152941 29.171717,33.2833613 29.8808491,33.2833613 C30.5899811,33.2833613 31.0629057,32.8152941 31.2989434,32.3478992 L31.2989434,28.8939496 L33.6630566,30.2418487 C33.6630566,30.4761345 33.8992642,30.4761345 34.1359811,30.4761345 C34.6083962,30.4761345 35.0813208,30.2418487 35.3180377,29.7736134 C35.5542453,29.0719328 35.3180377,28.370084 34.8451132,28.1363025 L32.6469057,26.8843697 L35.3180377,25.3284034 C36.0264906,24.8583193 36.0264906,24.1566387 35.7904528,23.6884034 Z" id="snow"></path>
            </g>
        </g>
    </g>
</svg>