<?xml version="1.0" encoding="UTF-8"?>
<svg width="9px" height="17px" viewBox="0 0 9 17" version="1.1" xmlns="http://www.w3.org/2000/svg" xmlns:xlink="http://www.w3.org/1999/xlink">
    <!-- Generator: Sketch 47.1 (45422) - http://www.bohemiancoding.com/sketch -->
    <title>social-fb</title>
    <desc>Created with Sketch.</desc>
    <defs></defs>
    <g id="Symbols" stroke="none" stroke-width="1" fill="none" fill-rule="evenodd">
        <g id="footer" transform="translate(-124.000000, -525.000000)" fill="#3B5998">
            <g id="Group-9" transform="translate(0.000000, 10.000000)">
                <path d="M132.661856,515.003153 L130.502886,515 C128.077645,515 126.509886,516.561349 126.509886,518.977458 L126.509886,520.811608 L124.33901,520.811608 C124.152186,520.811608 124,520.958516 124,521.140733 L124,523.798327 C124,523.979703 124.152186,524.127452 124.33901,524.127452 L126.509886,524.127452 L126.509886,530.832491 C126.509886,531.013867 126.662072,531.161616 126.849762,531.161616 L129.680906,531.161616 C129.868596,531.161616 130.020782,531.013867 130.020782,530.832491 L130.020782,524.127452 L132.558594,524.127452 C132.746284,524.127452 132.897821,523.979703 132.897821,523.798327 L132.899336,521.140733 C132.899336,521.053723 132.862967,520.970076 132.799538,520.907655 C132.736109,520.846076 132.649949,520.811608 132.55946,520.811608 L130.020782,520.811608 L130.020782,519.256774 C130.020782,518.509621 130.204358,518.130265 131.206451,518.130265 L132.66099,518.129424 C132.848679,518.129424 133,517.981675 133,517.800299 L133,515.333329 C133,515.150902 132.848679,515.003993 132.661856,515.003153 Z" id="social-fb"></path>
            </g>
        </g>
    </g>
</svg>