<?xml version="1.0" encoding="UTF-8"?>
<svg width="18px" height="12px" viewBox="0 0 18 12" version="1.1" xmlns="http://www.w3.org/2000/svg" xmlns:xlink="http://www.w3.org/1999/xlink">
    <!-- Generator: Sketch 47.1 (45422) - http://www.bohemiancoding.com/sketch -->
    <title>social-vk</title>
    <desc>Created with Sketch.</desc>
    <defs></defs>
    <g id="Symbols" stroke="none" stroke-width="1" fill="none" fill-rule="evenodd">
        <g id="footer" transform="translate(-120.000000, -497.000000)" fill="#45668E">
            <g id="Group-9" transform="translate(0.000000, 10.000000)">
                <path d="M134.95286,492.838582 C134.95286,492.838582 137.324585,489.378677 137.560263,488.241611 C137.638778,487.835545 137.466005,487.608022 137.057554,487.608022 L135.000022,487.608022 C134.528799,487.608022 134.356026,487.819196 134.214673,488.12785 C134.214673,488.12785 133.102232,490.579225 131.74869,492.123931 C131.314178,492.623304 131.093251,492.773595 130.853406,492.773595 C130.65993,492.773595 130.570699,492.606818 130.570699,492.156356 L130.570699,488.209117 C130.570699,487.656865 130.50786,487.494398 130.068123,487.494398 L126.769695,487.494398 C126.518341,487.494398 126.361244,487.64551 126.361244,487.851689 C126.361244,488.37179 127.130917,488.489245 127.130917,489.898436 L127.130917,492.806089 C127.130917,493.390903 127.099498,493.618288 126.832467,493.618288 C126.125699,493.618288 124.445066,491.100558 123.502686,488.241611 C123.314171,487.656865 123.109978,487.494398 122.575917,487.494398 L120.518385,487.494398 C120.219935,487.494398 120,487.705503 120,488.014088 C120,488.582621 120.643996,491.214182 123.172817,494.739142 C124.869127,497.110687 127.099498,498.393939 129.109934,498.393939 C130.335087,498.393939 130.633537,498.182834 130.633537,497.646726 L130.633537,495.827434 C130.633537,495.372594 130.80631,495.177701 131.057598,495.177701 C131.340306,495.177701 131.83931,495.271625 133.005262,496.460954 C134.387446,497.825475 134.481703,498.393939 135.2357,498.393939 L137.54452,498.393939 C137.780131,498.393939 138,498.280246 138,497.874181 C138,497.338073 137.324585,496.379755 136.287947,495.24262 C135.863887,494.657874 135.172795,494.024423 134.95286,493.73205 C134.6388,493.390903 134.732991,493.195873 134.95286,492.838582" id="social-vk"></path>
            </g>
        </g>
    </g>
</svg>