<?xml version="1.0" encoding="UTF-8"?>
<svg width="11px" height="18px" viewBox="0 0 11 18" version="1.1" xmlns="http://www.w3.org/2000/svg" xmlns:xlink="http://www.w3.org/1999/xlink">
    <!-- Generator: Sketch 47.1 (45422) - http://www.bohemiancoding.com/sketch -->
    <title>social-ok</title>
    <desc>Created with Sketch.</desc>
    <defs></defs>
    <g id="Symbols" stroke="none" stroke-width="1" fill="none" fill-rule="evenodd">
        <g id="footer" transform="translate(-123.000000, -554.000000)" fill="#ED812B">
            <g id="Group-9" transform="translate(0.000000, 10.000000)">
                <g id="social-ok" transform="translate(123.000000, 544.000000)">
                    <path d="M4.59779327,12.6397614 C3.17851423,12.4933198 1.89785351,12.1475086 0.800898063,11.299239 C0.664917796,11.1936206 0.524620695,11.0915624 0.400871458,10.9738395 C-0.0787767495,10.5176631 -0.127461043,9.99574232 0.25194069,9.45697004 C0.57690235,8.99628413 1.12226236,8.87286493 1.68896672,9.13726683 C1.79856633,9.18900796 1.90360929,9.25309101 2.00361594,9.3216836 C4.04691731,10.710387 6.8526195,10.7495488 8.9043147,9.38386789 C9.10768554,9.22983123 9.32400689,9.10380124 9.57606202,9.03971819 C10.0660227,8.91558696 10.5221681,9.09359542 10.7845357,9.51725557 C11.0852751,10.0012012 11.0804786,10.4739917 10.7113893,10.8494709 C10.1437257,11.425269 9.46166592,11.8425208 8.70382175,12.1337427 C7.98722733,12.408113 7.20300251,12.5462476 6.42549277,12.638812 C6.54348623,12.7650793 6.5979263,12.8270263 6.67179212,12.8994164 C7.72677835,13.9489543 8.78632124,14.9927959 9.83747029,16.045182 C10.1952879,16.404047 10.270113,16.8481188 10.0734572,17.2653707 C9.85713587,17.7205977 9.37460977,18.0208386 8.90143681,17.9885597 C8.60165669,17.9681481 8.36758836,17.8207571 8.15942104,17.6130805 C7.36320501,16.8203495 6.55283937,16.0423338 5.77245173,15.2348875 C5.54581796,14.9994416 5.43621834,15.043825 5.23668469,15.2479414 C4.43567218,16.0636949 3.62170917,16.8675811 2.80294968,17.665771 C2.43553915,18.0246361 1.99809999,18.0894312 1.57193256,17.8846028 C1.11842518,17.6676698 0.82991678,17.2095947 0.852460245,16.7498582 C0.86732934,16.4382247 1.02201589,16.1999307 1.23833723,15.9867952 C2.28205173,14.9557702 3.32264851,13.921185 4.36444442,12.8882612 C4.43375359,12.8196686 4.4975468,12.7465665 4.59779327,12.6397614 Z" id="Fill-1"></path>
                    <path d="M5.46679845,8.9999751 C3.00502058,8.99182803 0.985626196,6.95319776 1.00007708,4.48998863 C1.01382873,1.99931222 3.03415542,-0.00742808228 5.52063964,2.06695765e-05 C8.01248468,0.00630555396 10.0118343,2.04214255 9.99994727,4.55819126 C9.98736102,7.01581383 7.95421499,9.00812217 5.46679845,8.9999751 Z M7.70482071,4.49627351 C7.70015914,3.27328156 6.72519068,2.29959003 5.50339182,2.29865894 C4.27040517,2.29679675 3.28727896,3.28794629 3.29636903,4.52257691 C3.3054591,5.74021507 4.28881839,6.70762172 5.51411344,6.70296625 C6.73614538,6.69854355 7.70831689,5.71833436 7.70482071,4.49627351 Z" id="Fill-3"></path>
                </g>
            </g>
        </g>
    </g>
</svg>