<?xml version="1.0" encoding="UTF-8"?>
<svg width="40px" height="40px" viewBox="0 0 40 40" version="1.1" xmlns="http://www.w3.org/2000/svg" xmlns:xlink="http://www.w3.org/1999/xlink">
    <!-- Generator: Sketch 47.1 (45422) - http://www.bohemiancoding.com/sketch -->
    <title>sun</title>
    <desc>Created with Sketch.</desc>
    <defs></defs>
    <g id="Symbols" stroke="none" stroke-width="1" fill="none" fill-rule="evenodd" fill-opacity="0.2">
        <g id="menu_dropdown" transform="translate(-520.000000, -20.000000)" fill="#000000">
            <g id="sun" transform="translate(520.000000, 20.000000)">
                <path d="M19.9709705,9.45603376 C14.097384,9.45603376 9.39814346,14.155443 9.39814346,20.0288608 C9.39814346,25.9024473 14.097384,30.6018565 19.9709705,30.6018565 C25.844557,30.6018565 30.5439662,25.9024473 30.5439662,20.0288608 C30.5439662,14.155443 25.844557,9.45603376 19.9709705,9.45603376 Z M19.9709705,28.2521519 C15.5070042,28.2521519 11.7476793,24.4929958 11.7476793,20.0288608 C11.7476793,15.5648945 15.5070042,11.8057384 19.9709705,11.8057384 C24.4349367,11.8057384 28.1942616,15.5648945 28.1942616,20.0288608 C28.1942616,24.4929958 24.4349367,28.2521519 19.9709705,28.2521519 Z M19.9709705,4.75662447 C19.2661603,4.75662447 18.7961181,4.28725738 18.7961181,3.58244726 L18.7961181,1.23274262 C18.7961181,0.527932489 19.2661603,0.0578902954 19.9709705,0.0578902954 C20.6757806,0.0578902954 21.1458228,0.527932489 21.1458228,1.23274262 L21.1458228,3.58177215 C21.1458228,4.28725738 20.6757806,4.75662447 19.9709705,4.75662447 Z M19.9709705,35.3005907 C20.6757806,35.3005907 21.1458228,35.7706329 21.1458228,36.475443 L21.1458228,38.8251477 C21.1458228,39.529789 20.6757806,39.9998312 19.9709705,39.9998312 C19.2661603,39.9998312 18.7961181,39.529789 18.7961181,38.8251477 L18.7961181,36.475443 C18.7961181,35.7706329 19.2661603,35.3005907 19.9709705,35.3005907 Z M38.7670886,18.8540084 C39.4718987,18.8540084 39.9419409,19.3242194 39.9419409,20.0288608 C39.9419409,20.7336709 39.4718987,21.2037131 38.7670886,21.2037131 L36.417384,21.2037131 C35.7127426,21.2037131 35.2425316,20.7336709 35.2425316,20.0288608 C35.2425316,19.3242194 35.7127426,18.8540084 36.417384,18.8540084 L38.7670886,18.8540084 Z M3.52455696,18.8540084 C4.22936709,18.8540084 4.69873418,19.3242194 4.69940928,20.0288608 C4.69940928,20.7336709 4.22936709,21.2037131 3.52455696,21.2037131 L1.17485232,21.2037131 C0.470042194,21.2037131 0,20.7336709 0,20.0288608 C0,19.3242194 0.470042194,18.8540084 1.17485232,18.8540084 L3.52455696,18.8540084 Z M32.4234599,5.93147679 C32.8936709,5.4621097 33.5983122,5.4621097 34.0678481,5.93147679 C34.5378903,6.40151899 34.5378903,7.10632911 34.0678481,7.57637131 L32.4234599,9.22126582 C32.1881857,9.45603376 31.9534177,9.45603376 31.7188186,9.45603376 C31.4833755,9.45603376 31.0140084,9.45603376 30.7785654,9.22126582 C30.3085232,8.75122363 30.3085232,8.0464135 30.7785654,7.57637131 L32.4234599,5.93147679 Z M7.28371308,31.0718987 C7.75324895,30.6018565 8.4578903,30.6018565 8.92793249,31.0718987 C9.39814346,31.5412658 9.39814346,32.2467511 8.92793249,32.7161181 L7.28371308,34.3610127 C7.28371308,34.3610127 7.04843882,34.5957806 6.57839662,34.5957806 C6.34362869,34.5957806 5.8735865,34.5957806 5.63881857,34.3610127 C5.16877637,33.8909705 5.16877637,33.1861603 5.63881857,32.7161181 L7.28371308,31.0718987 Z M32.4234599,31.0718987 L34.0678481,32.7161181 C34.5378903,33.1861603 34.5378903,33.8909705 34.0678481,34.3610127 C33.8330802,34.3610127 33.5983122,34.5957806 33.363038,34.5957806 C33.12827,34.5957806 32.6582278,34.5957806 32.4234599,34.3610127 L30.7785654,32.7161181 C30.3085232,32.2467511 30.3085232,31.5412658 30.7785654,31.0718987 C31.2486076,30.6018565 31.9534177,30.6018565 32.4234599,31.0718987 Z M7.28371308,5.93147679 L8.92793249,7.57637131 C9.39814346,8.0464135 9.39814346,8.75122363 8.92793249,9.22126582 C8.92793249,9.45603376 8.69333333,9.45603376 8.22329114,9.45603376 C7.98852321,9.45603376 7.51848101,9.45603376 7.28371308,9.22126582 L5.63881857,7.57637131 C5.16877637,7.10632911 5.16877637,6.40151899 5.63881857,5.93147679 C6.10886076,5.4621097 6.81367089,5.4621097 7.28371308,5.93147679 Z"></path>
            </g>
        </g>
    </g>
</svg>