<?xml version="1.0" encoding="UTF-8"?>
<svg width="30px" height="32px" viewBox="0 0 30 32" version="1.1" xmlns="http://www.w3.org/2000/svg" xmlns:xlink="http://www.w3.org/1999/xlink">
    <!-- Generator: Sketch 47.1 (45422) - http://www.bohemiancoding.com/sketch -->
    <title>Fill 1</title>
    <desc>Created with Sketch.</desc>
    <defs></defs>
    <g id="Page-1" stroke="none" stroke-width="1" fill="none" fill-rule="evenodd" opacity="0.2">
        <g id="card" transform="translate(-840.000000, -210.000000)" fill="#000000">
            <path d="M869.541818,238.260766 L862.148182,230.582809 C864.049773,228.324426 865.091591,225.483915 865.091591,222.526979 C865.091591,215.619745 859.463864,210 852.544091,210 C845.627727,210 840,215.619745 840,222.526979 C840,229.436255 845.627727,235.056 852.544091,235.056 C855.141136,235.056 857.618182,234.274383 859.7325,232.787404 L867.184773,240.526638 C867.496364,240.851404 867.914318,241.029106 868.365,241.029106 C868.788409,241.029106 869.19,240.867064 869.496818,240.572255 C870.149318,239.947234 870.167727,238.91234 869.541818,238.260766 Z M852.544091,213.268766 C857.657727,213.268766 861.818182,217.423319 861.818182,222.526979 C861.818182,227.633362 857.657727,231.787234 852.544091,231.787234 C847.433182,231.787234 843.273409,227.633362 843.273409,222.526979 C843.273409,217.423319 847.433182,213.268766 852.544091,213.268766 Z" id="Fill-1"></path>
        </g>
    </g>
</svg>